<svg xmlns="http://www.w3.org/2000/svg" xmlns:xlink="http://www.w3.org/1999/xlink" width="2491.67" height="1276.37" viewBox="0 0 2491.67 1276.37">
  <defs>
    <style>
      .cls-1 {
        fill: #DAF800;
      }

      .cls-2 {
        fill: #DAF800;
      }

      .cls-3 {
        fill: #DAF800;
      }

      .cls-4 {
        fill: #DAF800;
      }

      .cls-5 {
        fill: #DAF800;
      }

      .cls-6 {
        fill:#DAF800;
      }

      .cls-7 {
        fill: url(#linear-gradient-7);
      }

      .cls-8 {
        fill: url(#linear-gradient-8);
      }

      .cls-9 {
        fill: none;
      }

      .cls-10 {
        fill: #676d73;
      }

      .cls-11 {
        fill: #899299;
      }

      .cls-12 {
        fill: #777f85;
      }

      .cls-13 {
        fill: #9aa3ab;
      }

      .cls-14 {
        fill: #aab4bd;
      }
    </style>
    <linearGradient id="linear-gradient" x1="1281.15" y1="845.48" x2="1330.86" y2="1157.28" gradientUnits="userSpaceOnUse">
      <stop offset="0.03" stop-color="#4fbbf7"/>
      <stop offset="1" stop-color="#005668"/>
    </linearGradient>
    <linearGradient id="linear-gradient-2" x1="733.14" y1="816.66" x2="737.48" y2="1020.26" xlink:href="#linear-gradient"/>
    <linearGradient id="linear-gradient-3" x1="1872" y1="885.85" x2="1902.61" y2="1165.7" xlink:href="#linear-gradient"/>
    <linearGradient id="linear-gradient-4" x1="815.81" y1="1365.49" x2="1341.64" y2="839.65" gradientUnits="userSpaceOnUse">
      <stop offset="0.03" stop-color="#4fbbf7"/>
      <stop offset="1" stop-color="#8ff7ff"/>
    </linearGradient>
    <linearGradient id="linear-gradient-5" x1="255.62" y1="966.61" x2="818.49" y2="966.61" xlink:href="#linear-gradient-4"/>
    <linearGradient id="linear-gradient-6" x1="1673.24" y1="952.43" x2="1895.37" y2="952.43" xlink:href="#linear-gradient-4"/>
    <linearGradient id="linear-gradient-7" x1="1059.66" y1="1245.44" x2="856.36" y2="669.86" gradientUnits="userSpaceOnUse">
      <stop offset="0" stop-color="#002e46"/>
      <stop offset="0.3" stop-color="#003a50"/>
      <stop offset="1" stop-color="#005264"/>
    </linearGradient>
    <linearGradient id="linear-gradient-8" x1="1740.57" y1="1311.15" x2="1758.15" y2="678.18" xlink:href="#linear-gradient-7"/>
  </defs>
  <g id="Layer_1" data-name="Layer 1">
    <g>
      <path class="cls-1" d="M1262.09,693.07l75.69-33.2,14.42,7.38,61.55,67.44L1639.3,911.92s97.17,31.88,103.4,33.15,297.73,232.3,297.73,232.3H627.7l242.91-180s53.57-20.4,59.8-23,100.9-99.46,100.9-99.46,195.58-178.5,203-181.05S1262.09,693.07,1262.09,693.07Z"/>
      <polygon class="cls-2" points="255.62 1177.37 683.16 871.01 785.04 755.85 818.49 755.85 900.61 839.9 967.51 858.58 1226.02 1177.37 255.62 1177.37"/>
      <polygon class="cls-3" points="1504.48 1177.37 1704.18 1014.96 1822.68 859.88 1857.22 829.45 1921.91 846.72 2075.47 994.81 2303.3 1177.37 1504.48 1177.37"/>
      <path class="cls-4" d="M1290.71,991.93l67.51-73.31L1304.77,825l-185.64,109.4L1265.4,827.83l72.38-168-75.69,33.2s-20.25-1.73-27.73.82-203,181.05-203,181.05-94.67,96.91-100.9,99.46-59.8,23-59.8,23l-242.91,180H1226l250.33-96.2Z"/>
      <polygon class="cls-5" points="818.49 755.85 764.73 856.62 584.71 974.65 770.35 873.89 787.23 908.44 680.35 983.89 716.91 1020.72 351.25 1177.37 255.62 1177.37 683.16 871.01 785.04 755.85 818.49 755.85"/>
      <polygon class="cls-6" points="1857.22 829.45 1822.68 859.88 1704.18 1014.96 1805.44 948.74 1673.24 1075.42 1884.2 989.05 1856.07 888.28 1895.37 864.8 1857.22 829.45"/>
    </g>
    <path class="cls-7" d="M2074.64,1276.37c-233.58-47.25-515.25-92.89-817.17-130l-9.82-42.51L1237,1135.67l-14.79-46.74-23.06,50.34q-61.86-7.33-124.67-14.14l-14.46-88L1040,1121.43l-9.86-1-8.34-50.81-11.59,48.73q-15-1.54-30-3.06l-25.06-78L929,1103l-14.67-50.79L895.82,1107q-77.36-7.29-155.36-13.62l-9.56-28.7-9.77,27.15q-18.17-1.44-36.34-2.83l-14.06-68.21-15.69,66-15.56-1.14-7-32.32L625,1084.63q-19.44-1.38-38.86-2.7l-12.76-42.38L560.3,1077l-14-85.2-19.58,68.48-11.2-38.89-20,54.82q-53.62-3.2-107.1-5.83l-13-49.57L362,1069.06l-.35,0L337.6,922.37,311.81,1030.8l-12.47-75.93L273.07,1065.3l-7.59-.29-20.72-64.44-19.19,43.79L199.37,966l-39.17,65.85-48-204.89s-25,81.74-45.63,150.13v299.3"/>
    <path class="cls-8" d="M2491.67,1276.37V977.07c-20.6-68.39-45.63-150.13-45.63-150.13l-48,204.89L2358.83,966l-26.2,78.38-19.19-43.79-23.1,71.84-3.46.27-28-117.81-12.92,78.68L2220.6,922.37l-24.42,146.71-13.48-48.32-16.34,62.47q-37.07,3.54-76.72,7.73l-21.79-.48-25.18-69.14-11.19,38.89-19.59-68.48-14,85.2-13.11-37.4-19.73,65.53q-13,1.58-26.25,3.23l-13.08-55-12.62,58.2-3.94.51-21.7-91.22-19.91,96.63q-10.1,1.33-20.31,2.72l-19.94-55.46-20.34,61q-27.85,3.88-56.5,8.07l-20.77-61.71L1715,1122.87l-26.14-65.67-29,90.29q-12.12,1.89-24.34,3.84l-11.28-40.74-10.42,44.22-6.35,1L1584,1057,1553.8,1164.7q-20.7,3.48-41.73,7.12l-26.77-63-22.16,54.79-12-35.93-24.58,59.3c-136.29,24.8-281.74,54.29-435.15,89.38"/>
    <path class="cls-9" d="M2398.07,0l80.06,1250.74"/>
    <path class="cls-9" d="M80.07,1250.74,0,0"/>
  </g>
  <g id="Layer_2" data-name="Layer 2">
    <path class="cls-10" d="M1288.28,682.06a16.74,16.74,0,0,1-.25-5.82c0,.15-7,.61-7.74,2.19a1.34,1.34,0,0,0-.14.47c-.14,1.17.85,2.75,1.3,3.86"/>
    <path class="cls-10" d="M1342.88,671.76a16.74,16.74,0,0,1-.12-5.82c0,.14-7,.43-7.79,2a1.84,1.84,0,0,0-.15.47c-.17,1.16.79,2.77,1.2,3.89a1.29,1.29,0,0,0,.46.69"/>
    <path class="cls-11" d="M1347.88,646.36q.6,7.18.86,14.42c.18,5.23-.68,7.75-6.13,8.57-18.09,2.73-36,6.62-54,9.75-4.44.78-9.32,2.78-13.8,1.14a3.91,3.91,0,0,1-1.49-1c-1.94-2.07-2.29-5.76-3-8.38q-1.65-6-3.23-11.93c-3.61-13.68-6.88-27.41-9.47-41.32-.4-2.15-.65-4.73,1-6.18a6.53,6.53,0,0,1,3.21-1.23l20.61-3.82,19.58-3.63c6.86-1.27,13.7-2.63,20.58-3.82q5.28-.92,10.57-1.66c1.75-.23,4.11-1.17,5.8-.26,1.86,1,2,3.89,2.34,5.76A361.62,361.62,0,0,1,1347.88,646.36Z"/>
    <path class="cls-12" d="M1346.13,666.3c-1.49.31-3.15.94-4.33,1.19q-3.73.79-7.5,1.46c-5,.89-10.06,1.61-15.12,2.15-9.14,1-18.08,2.86-27.13,4.44-4.44.77-9.32,2.78-13.8,1.13a3.88,3.88,0,0,1-1.49-1c-1.94-2.08-2.29-5.76-3-8.38q-1.65-6-3.23-11.93c-2.44-9.25-5.48-18.32-7.73-27.61-1.35-5.56-1.94-10.78-4.34-16-2,2.7-.79,6.13-.21,9.13q1.26,6.46,2.69,12.88c1.88,8.45,4,16.85,6.17,25.21q1.58,6,3.23,11.93c.73,2.62,1.08,6.31,3,8.38a3.91,3.91,0,0,0,1.49,1c4.48,1.64,9.36-.36,13.8-1.14,18-3.13,35.89-7,54-9.75,1.9-.28,4.91-1.1,5.62-3.18A5.74,5.74,0,0,0,1346.13,666.3Z"/>
    <path class="cls-12" d="M1278.85,671.12c-.18-.8-.36-1.63-.59-2.48-1.09-3.91-2.17-7.88-3.21-11.82-3.79-14.4-6.59-26.43-8.79-37.87l-.23-1.16,26.39-4.9c14-2.6,28.45-6.53,42.53-8,2.45,13,4.61,25.26,5,38.48v.21c.16,5.46.33,11.11.52,16.68l0,1-1,.16c-10.5,1.63-21,3.64-31.19,5.58l-.27-1.14.22,1.15c-6.9,1.32-14,2.68-21,3.9-1.31.23-2.55.52-3.75.8s-2.21.52-3.18.68l-1.1.18Z"/>
    <path class="cls-13" d="M1338.78,643.48l.12,3.66c.13,4.36.26,8.8.41,13.2-10.53,1.63-21.06,3.64-31.26,5.59-6.9,1.32-14,2.69-21,3.9-1.34.24-2.6.53-3.81.82s-2.17.51-3.1.66c0-.16-.07-.31-.1-.45-.18-.81-.37-1.66-.61-2.53-1.09-3.91-2.17-7.89-3.2-11.81-3.77-14.3-6.58-26.4-8.78-37.79l9.88-1.89c18.63-3.64,37.33-7.61,56.12-9.8C1335.23,619.3,1338.41,631.09,1338.78,643.48Z"/>
    <path class="cls-12" d="M1279,623.75a1.62,1.62,0,0,1-.21,3.16c-1.49.35-6.22,2.41-7.09.1a1.48,1.48,0,0,1,.46-1.56,4.09,4.09,0,0,1,1.9-.8l3.7-.87A2.1,2.1,0,0,1,1279,623.75Z"/>
    <path class="cls-10" d="M1279.23,625.8c-1.5.35-6.22,2.41-7.1.1a1.34,1.34,0,0,1-.07-.39,1.47,1.47,0,0,0-.4,1.5c.87,2.31,5.6.25,7.09-.1a1.68,1.68,0,0,0,1.38-1.6A1.79,1.79,0,0,1,1279.23,625.8Z"/>
    <path class="cls-14" d="M1338.78,643.48l.12,3.66a51.19,51.19,0,0,0-24.16-24.23,65,65,0,0,0-22.06-5.55c-3.83-.35-7.67-.39-11.51-.4-1.17,0-2.51,0-3.88-.12,18.63-3.64,37.33-7.61,56.12-9.8C1335.23,619.3,1338.41,631.09,1338.78,643.48Z"/>
    <g>
      <path class="cls-11" d="M1339.57,626.1c-.57.09-2.67.88-3.21.56-.88-.5-.78-2.82-.95-3.83-.12-.68-1.75-7.34-1.5-7.45a8.38,8.38,0,0,1,3.92-.72Z"/>
      <path class="cls-14" d="M1335.18,614.93a8,8,0,0,1,1.2,0l1.75,11.43c-.26,0-.83.22-1.43.38a17.24,17.24,0,0,0,2.87-.63l-1.74-11.44A8.45,8.45,0,0,0,1335.18,614.93Z"/>
      <path class="cls-12" d="M1337.44,626.48c-.88-.51-.78-2.83-1-3.84-.12-.67-1.74-7.33-1.5-7.44a8.18,8.18,0,0,1,1.44-.5,8.06,8.06,0,0,0-2.51.68c-.59.29,1.53,10.75,2.45,11.28a2.68,2.68,0,0,0,1.54-.11A.86.86,0,0,1,1337.44,626.48Z"/>
    </g>
    <g>
      <path class="cls-11" d="M1341.56,654.1c-.58,0-2.75.57-3.25.2-.82-.61-.45-2.9-.51-3.92,0-.69-.9-7.49-.64-7.57a8.38,8.38,0,0,1,4-.27Z"/>
      <path class="cls-14" d="M1338.47,642.51a8.13,8.13,0,0,1,1.2.12q.21,5.77.43,11.56c-.27,0-.85.13-1.46.22a16.76,16.76,0,0,0,2.92-.31l-.42-11.56A8.54,8.54,0,0,0,1338.47,642.51Z"/>
      <path class="cls-12" d="M1339.4,654.23c-.82-.6-.45-2.89-.51-3.92-.05-.68-.9-7.48-.64-7.56a7.48,7.48,0,0,1,1.49-.33,8,8,0,0,0-2.58.39c-.62.22.29,10.86,1.15,11.49a2.81,2.81,0,0,0,1.54.06A.83.83,0,0,1,1339.4,654.23Z"/>
    </g>
    <path class="cls-12" d="M1317.63,649.11c-8.09,8.32-25.59,6.19-29-5.93a17,17,0,0,1,4.39-16,17.89,17.89,0,0,1,17.38-4.66A16.66,16.66,0,0,1,1322.08,636,16.24,16.24,0,0,1,1317.63,649.11Z"/>
    <path class="cls-11" d="M1316.53,648.14c-7.38,7.58-23.34,5.64-26.44-5.41a15.48,15.48,0,0,1,4-14.63,16.32,16.32,0,0,1,15.85-4.26,15.22,15.22,0,0,1,10.64,12.33A14.82,14.82,0,0,1,1316.53,648.14Z"/>
    <path class="cls-13" d="M1313.72,645.65c-5.57,5.72-17.61,4.26-20-4.08a11.69,11.69,0,0,1,3-11,12.28,12.28,0,0,1,12-3.2,11.45,11.45,0,0,1,8,9.29A11.2,11.2,0,0,1,1313.72,645.65Z"/>
    <path class="cls-10" d="M1299.56,638.31a12.61,12.61,0,0,1,.62,2.48c-1.24-.17-2.49-.34-3.74-.49Z"/>
    <path class="cls-12" d="M1309.58,642c-2.9,3-9.18,2.22-10.39-2.13a6,6,0,0,1,1.57-5.75,6.4,6.4,0,0,1,6.23-1.67,6,6,0,0,1,4.19,4.84A5.83,5.83,0,0,1,1309.58,642Z"/>
    <path class="cls-11" d="M1308.42,641c-2.15,2.22-6.81,1.65-7.72-1.58a4.54,4.54,0,0,1,1.17-4.27,4.79,4.79,0,0,1,4.63-1.24,4.45,4.45,0,0,1,3.11,3.6A4.34,4.34,0,0,1,1308.42,641Z"/>
    <path class="cls-11" d="M1308.42,641c-2.15,2.22-6.81,1.65-7.72-1.58a4.54,4.54,0,0,1,1.17-4.27,4.79,4.79,0,0,1,4.63-1.24,4.45,4.45,0,0,1,3.11,3.6A4.34,4.34,0,0,1,1308.42,641Z"/>
    <path class="cls-14" d="M1306.5,633.88a4.79,4.79,0,0,0-4.63,1.24,4.65,4.65,0,0,0-.78,1.08l.1-.11a4.76,4.76,0,0,1,4.63-1.24,4.44,4.44,0,0,1,3.11,3.6,4.29,4.29,0,0,1-.47,2.48,4.35,4.35,0,0,0,1.15-3.45A4.45,4.45,0,0,0,1306.5,633.88Z"/>
    <path class="cls-11" d="M1274.08,622.4c.77,5.41,1.8,10.75,2.85,16.12a3.34,3.34,0,0,0,.63,1.63,1.86,1.86,0,0,0,1.88.55c1-.33,1.18-1.47,1.08-2.34-.55-5.33-2.22-10.48-3.89-15.6a1.85,1.85,0,0,0-1-1.34c-.6-.24-1.59.27-1.32.76"/>
    <path class="cls-14" d="M1276.63,622.76a1.85,1.85,0,0,0-1-1.34,1.19,1.19,0,0,0-.83,0,.94.94,0,0,1,.29.06,1.88,1.88,0,0,1,1,1.34c1.66,5.12,3.33,10.27,3.89,15.6a2,2,0,0,1-1,2.32,1.59,1.59,0,0,0,.48-.07c1-.33,1.18-1.47,1.08-2.34C1280,633,1278.3,627.88,1276.63,622.76Z"/>
    <path class="cls-12" d="M1278.94,639.91a3.26,3.26,0,0,1-.64-1.63c-1-5.37-2.07-10.71-2.85-16.12l.23-.22a.39.39,0,0,1,.09-.46.84.84,0,0,0-.14-.06c-.6-.24-1.59.27-1.32.76l-.23.22c.77,5.41,1.8,10.75,2.85,16.12a3.34,3.34,0,0,0,.63,1.63,1.86,1.86,0,0,0,1.88.55,1.23,1.23,0,0,0,.44-.23A1.79,1.79,0,0,1,1278.94,639.91Z"/>
    <path class="cls-14" d="M1347.88,646.36c-3.84-9.06-4.82-19.25-6.87-28.8-.94-4.33-2-13.75-6.48-15.63-5.2-2.2-11.37-1.31-16.78-.54l-31.16,4.43c-1.4.2-2.78.48-4.16.55l19.58-3.63c6.86-1.27,13.7-2.63,20.58-3.82q5.28-.92,10.57-1.66c1.75-.23,4.11-1.17,5.8-.26,1.86,1,2,3.89,2.34,5.76A361.62,361.62,0,0,1,1347.88,646.36Z"/>
    <path class="cls-14" d="M1302.61,624.31c-.08-.67-1.17-.41-.92.29s.43,1.6.69,2.38c.13.39.72.17.67-.21C1302.94,625.94,1302.71,625.13,1302.61,624.31Z"/>
    <path class="cls-14" d="M1293.24,640.6a26.62,26.62,0,0,0-3.45.95.11.11,0,0,0,0,.21,26.39,26.39,0,0,0,3.54-.37C1293.89,641.35,1293.72,640.45,1293.24,640.6Z"/>
    <path class="cls-14" d="M1308.78,651.68a4.25,4.25,0,0,1-.48-1.39,8.54,8.54,0,0,0-.21-1.23.25.25,0,0,0-.45,0,4.41,4.41,0,0,0,.35,2.85C1308.18,652.54,1309.06,652.19,1308.78,651.68Z"/>
    <path class="cls-14" d="M1320.1,635.49a32.57,32.57,0,0,0-3.28.57c-.28.08-.33.57,0,.57,1.13,0,2.27-.27,3.39-.38C1320.73,636.2,1320.6,635.39,1320.1,635.49Z"/>
    <path class="cls-14" d="M1294.47,630.7c-.46-.36-.88-.78-1.36-1.11-.29-.2-.58.17-.4.43a5.93,5.93,0,0,0,1.25,1.25,2.06,2.06,0,0,0,1.42.68.12.12,0,0,0,.12-.17A2.61,2.61,0,0,0,1294.47,630.7Z"/>
    <path class="cls-14" d="M1317.23,647.27c-.24-.5-.85-.85-1.27-1.2a4.42,4.42,0,0,0-1.51-1.08.21.21,0,0,0-.26.28c.22.51.81.88,1.22,1.23s.93,1,1.48,1.14A.27.27,0,0,0,1317.23,647.27Z"/>
    <path class="cls-14" d="M1314.2,626.42a.24.24,0,0,0-.26-.14c-.28,0-.35.16-.49.39l-.48.82a5,5,0,0,0-.75,1.47c0,.19.2.27.32.17a5.41,5.41,0,0,0,1.08-1.39C1313.88,627.35,1314.38,626.91,1314.2,626.42Z"/>
    <path class="cls-14" d="M1297.61,647.76c-.33.76-.59,1.56-.88,2.34a.36.36,0,0,0,.68.25c.31-.77.65-1.54.92-2.33A.38.38,0,0,0,1297.61,647.76Z"/>
    <path class="cls-14" d="M1298.67,628.39a14.23,14.23,0,0,1-1.78-2.1.22.22,0,0,0-.39.18,4.23,4.23,0,0,0,1.74,2.52C1298.62,629.29,1299,628.69,1298.67,628.39Z"/>
    <path class="cls-14" d="M1293.56,636.2a30.61,30.61,0,0,1-3.15-.73c-.23-.05-.3.27-.14.4a6.4,6.4,0,0,0,3.22,1A.34.34,0,0,0,1293.56,636.2Z"/>
    <path class="cls-14" d="M1295.19,645.33a10.48,10.48,0,0,0-1.22.88,6.48,6.48,0,0,0-1.14.94c-.16.19.09.4.27.33a5.58,5.58,0,0,0,1.2-.71,10.1,10.1,0,0,0,1.27-.86C1295.85,645.66,1295.56,645.14,1295.19,645.33Z"/>
    <path class="cls-14" d="M1303,649a.25.25,0,0,0-.43,0,3.11,3.11,0,0,0-.28,1.55c0,.41-.24,1,.11,1.25a.17.17,0,0,0,.17,0c.41-.2.33-.81.37-1.2A3.08,3.08,0,0,0,1303,649Z"/>
    <path class="cls-14" d="M1307.52,624a7.19,7.19,0,0,1-.17,1.6,12.35,12.35,0,0,0-.34,1.33.17.17,0,0,0,.27.14,4.15,4.15,0,0,0,.9-3.09C1308.17,623.56,1307.52,623.59,1307.52,624Z"/>
    <path class="cls-14" d="M1318.15,630.7c-.5-.07-1,.41-1.37.65a6.91,6.91,0,0,0-1.36,1c-.08.08,0,.24.09.2a6.63,6.63,0,0,0,1.61-.71c.44-.23,1-.35,1.21-.83A.21.21,0,0,0,1318.15,630.7Z"/>
    <path class="cls-14" d="M1319.81,641.27a11.52,11.52,0,0,0-3.18-.45c-.23,0-.19.31,0,.39a6,6,0,0,0,1.48.44c.56.13,1.11.26,1.66.37S1320.27,641.37,1319.81,641.27Z"/>
    <path class="cls-14" d="M1312.86,649c-.39-.45-.71-1-1.12-1.37-.13-.13-.42-.05-.36.17a4.48,4.48,0,0,0,.88,1.58c.32.39.75,1.06,1.29,1.09a.25.25,0,0,0,.26-.28C1313.73,649.67,1313.17,649.32,1312.86,649Z"/>
  </g>
</svg>
