<svg xmlns="http://www.w3.org/2000/svg" xmlns:xlink="http://www.w3.org/1999/xlink" version="1.1" id="Layer_1" x="0px" y="0px" viewBox="0 0 288 249" style="enable-background:new 0 0 288 249;" xml:space="preserve">
<style type="text/css">
	.st0{filter:url(#filter-4);}
	.st1{fill-rule:evenodd;clip-rule:evenodd;}
	.st2{fill-rule:evenodd;clip-rule:evenodd;fill:url(#path-2_00000052821969927386450950000017639249197389592220_);}
	.st3{filter:url(#Adobe_OpacityMaskFilter);}
	.st4{fill-rule:evenodd;clip-rule:evenodd;fill:#FFFFFF;}
	.st5{mask:url(#mask-3_00000173138627569234414410000017320795238985250962_);fill-rule:evenodd;clip-rule:evenodd;fill:#C5C9E0;}
	.st6{filter:url(#Adobe_OpacityMaskFilter_00000080177613504606845990000013742471614806247085_);}
	.st7{mask:url(#mask-3_00000165199866881048082500000009597404046169741972_);fill-rule:evenodd;clip-rule:evenodd;fill:#C5C9E0;}
	.st8{filter:url(#Adobe_OpacityMaskFilter_00000132077892901142601200000002411674608656126866_);}
	.st9{mask:url(#mask-3_00000175283434726788865440000001041956463262102925_);fill-rule:evenodd;clip-rule:evenodd;fill:#C5C9E0;}
	.st10{filter:url(#Adobe_OpacityMaskFilter_00000175303804539772924730000014841723901194027151_);}
	.st11{mask:url(#mask-3_00000072268472928884394420000017087029651943060625_);fill-rule:evenodd;clip-rule:evenodd;fill:#C5C9E0;}
	.st12{filter:url(#Adobe_OpacityMaskFilter_00000103228003499367045970000008454815494972239507_);}
	.st13{mask:url(#mask-3_00000016053076734738230130000001704212233476067244_);fill-rule:evenodd;clip-rule:evenodd;fill:#C5C9E0;}
	.st14{filter:url(#Adobe_OpacityMaskFilter_00000039820151541666242650000007877023061458989203_);}
	.st15{mask:url(#mask-3_00000062910566002838430340000013988184203869602994_);fill-rule:evenodd;clip-rule:evenodd;fill:#C5C9E0;}
	.st16{filter:url(#Adobe_OpacityMaskFilter_00000179608140177947548530000016446406381101963412_);}
	.st17{mask:url(#mask-3_00000066512662957684252840000014634288580174336446_);fill-rule:evenodd;clip-rule:evenodd;fill:#C5C9E0;}
	.st18{filter:url(#Adobe_OpacityMaskFilter_00000021082350181860987310000006825068541820094107_);}
	.st19{opacity:0.5;mask:url(#mask-3_00000159453406047459456990000017699588239692547252_);}
	.st20{fill-rule:evenodd;clip-rule:evenodd;fill:#C5C9E0;}
	.st21{filter:url(#Adobe_OpacityMaskFilter_00000080192481870608916330000012808463628594240924_);}
	.st22{opacity:0.5;mask:url(#mask-3_00000006668787947112579080000005840887286763602614_);}
	.st23{fill-rule:evenodd;clip-rule:evenodd;fill:#ED5A6A;}
	.st24{fill-rule:evenodd;clip-rule:evenodd;fill:#F8BE9A;}
	.st25{fill-rule:evenodd;clip-rule:evenodd;fill:#61C5C8;}
	.st26{fill:#5468FF;}
	.st27{fill:url(#Rectangle-3_00000035491420680542389380000014590972592873599115_);}
	.st28{filter:url(#filter-6);}
	.st29{opacity:0.5;fill-rule:evenodd;clip-rule:evenodd;fill:#C5C9E0;}
	.st30{fill-rule:evenodd;clip-rule:evenodd;fill:#F5F5FA;}
	.st31{fill:#05AF8F;}
	.st32{fill:#049B93;}
	.st33{fill:#0CC4A1;}
	.st34{fill:#0F343A;}
	.st35{fill:#6F8782;}
	.st36{fill:#4E605C;}
</style>
<filter filterUnits="objectBoundingBox" height="184.8%" id="filter-6" width="184.8%" x="-42.4%" y="-42.4%">
	<feOffset dx="0" dy="6" in="SourceAlpha" result="shadowOffsetOuter1"/>
	<feGaussianBlur in="shadowOffsetOuter1" result="shadowBlurOuter1" stdDeviation="7"/>

		<feColorMatrix in="shadowBlurOuter1" result="shadowMatrixOuter1" type="matrix" values="0 0 0 0 0.145098039   0 0 0 0 0.17254902   0 0 0 0 0.380392157  0 0 0 0.15 0">
		</feColorMatrix>
	<feMerge>
		<feMergeNode in="shadowMatrixOuter1"/>
		<feMergeNode in="SourceGraphic"/>
	</feMerge>
</filter>
<filter filterUnits="objectBoundingBox" height="129.2%" id="filter-4" width="122.9%" x="-11.4%" y="-11.3%">
	<feOffset dx="0" dy="5" in="SourceAlpha" result="shadowOffsetOuter1"/>
	<feGaussianBlur in="shadowOffsetOuter1" result="shadowBlurOuter1" stdDeviation="6.5"/>

		<feColorMatrix in="shadowBlurOuter1" result="shadowMatrixOuter1" type="matrix" values="0 0 0 0 0.145098039   0 0 0 0 0.17254902   0 0 0 0 0.380392157  0 0 0 0.15 0">
		</feColorMatrix>
	<feOffset dx="0" dy="2" in="SourceAlpha" result="shadowOffsetOuter2"/>
	<feGaussianBlur in="shadowOffsetOuter2" result="shadowBlurOuter2" stdDeviation="1.5"/>

		<feColorMatrix in="shadowBlurOuter2" result="shadowMatrixOuter2" type="matrix" values="0 0 0 0 0.364705882   0 0 0 0 0.392156863   0 0 0 0 0.580392157  0 0 0 0.2 0">
		</feColorMatrix>
	<feMerge>
		<feMergeNode in="shadowMatrixOuter1"/>
		<feMergeNode in="shadowMatrixOuter2"/>
	</feMerge>
</filter>
<g id="Page-1">
	<g id="Artboard" transform="translate(-216.000000, -1601.000000)">
		<g id="How" transform="translate(0.000000, 1402.000000)">
			<g id="scraping" transform="translate(216.332736, 228.246568)">
				<g id="Group-3" transform="translate(0.000000, 48.753432)">
					<g id="Group-8" transform="translate(21.571103, 0.380238)">
						<g id="Rectangle-_x2B_-Rectangle-Copy-_x2B_-Group-7-_x2B_-Group-6-Mask">
							<g id="Mask">
								<g class="st0">
									<path id="path-2_00000164490245419667645050000002483709832026707642_" class="st1" d="M5.8,0h180.6c3.2,0,5.8,2.6,5.8,5.8           V145c0,3.2-2.6,5.8-5.8,5.8H5.8c-3.2,0-5.8-2.6-5.8-5.8V5.8C0,2.6,2.6,0,5.8,0z"/>
								</g>
								<g>

										<linearGradient id="path-2_00000045584666552842494970000007999466605530798265_" gradientUnits="userSpaceOnUse" x1="-295.9683" y1="341.7487" x2="-295.9683" y2="342.7487" gradientTransform="matrix(192.26 0 0 -150.8783 56998.9805 51713.3438)">
										<stop offset="0" style="stop-color:#F5F5FA"/>
										<stop offset="1" style="stop-color:#FFFFFF"/>
									</linearGradient>

										<path id="path-2_00000044863973114674279250000017119926160971250338_" style="fill-rule:evenodd;clip-rule:evenodd;fill:url(#path-2_00000045584666552842494970000007999466605530798265_);" d="           M5.8,0h180.6c3.2,0,5.8,2.6,5.8,5.8V145c0,3.2-2.6,5.8-5.8,5.8H5.8c-3.2,0-5.8-2.6-5.8-5.8V5.8C0,2.6,2.6,0,5.8,0z"/>
								</g>
							</g>
							<defs>
								<filter id="Adobe_OpacityMaskFilter" filterUnits="userSpaceOnUse" x="16.5" y="15.8" width="16.5" height="4.6">
									<feColorMatrix type="matrix" values="1 0 0 0 0  0 1 0 0 0  0 0 1 0 0  0 0 0 1 0"/>
								</filter>
							</defs>

								<mask maskUnits="userSpaceOnUse" x="16.5" y="15.8" width="16.5" height="4.6" id="mask-3_00000173138627569234414410000017320795238985250962_">
								<g class="st3">
									<path id="path-2_00000032629699485259187950000015502299068873787026_" class="st4" d="M5.8,0h180.6c3.2,0,5.8,2.6,5.8,5.8           V145c0,3.2-2.6,5.8-5.8,5.8H5.8c-3.2,0-5.8-2.6-5.8-5.8V5.8C0,2.6,2.6,0,5.8,0z"/>
								</g>
							</mask>
							<path id="Rectangle-7-Copy-10" class="st5" d="M18.8,15.8h11.9c1.3,0,2.3,1,2.3,2.3c0,1.3-1,2.3-2.3,2.3H18.8         c-1.3,0-2.3-1-2.3-2.3C16.5,16.8,17.5,15.8,18.8,15.8z"/>
							<defs>

									<filter id="Adobe_OpacityMaskFilter_00000175304121060524083040000007662122096803128492_" filterUnits="userSpaceOnUse" x="115.4" y="15.8" width="16.5" height="4.6">
									<feColorMatrix type="matrix" values="1 0 0 0 0  0 1 0 0 0  0 0 1 0 0  0 0 0 1 0"/>
								</filter>
							</defs>

								<mask maskUnits="userSpaceOnUse" x="115.4" y="15.8" width="16.5" height="4.6" id="mask-3_00000165199866881048082500000009597404046169741972_">
								<g style="filter:url(#Adobe_OpacityMaskFilter_00000175304121060524083040000007662122096803128492_);">
									<path id="path-2_00000150079739122451879890000014094903152043484053_" class="st4" d="M5.8,0h180.6c3.2,0,5.8,2.6,5.8,5.8           V145c0,3.2-2.6,5.8-5.8,5.8H5.8c-3.2,0-5.8-2.6-5.8-5.8V5.8C0,2.6,2.6,0,5.8,0z"/>
								</g>
							</mask>
							<path id="Rectangle-7-Copy-11" class="st7" d="M117.7,15.8h11.9c1.3,0,2.3,1,2.3,2.3c0,1.3-1,2.3-2.3,2.3h-11.9         c-1.3,0-2.3-1-2.3-2.3C115.4,16.8,116.4,15.8,117.7,15.8z"/>
							<defs>

									<filter id="Adobe_OpacityMaskFilter_00000101820618125183074810000004233601876215337372_" filterUnits="userSpaceOnUse" x="137.3" y="15.8" width="16.5" height="4.6">
									<feColorMatrix type="matrix" values="1 0 0 0 0  0 1 0 0 0  0 0 1 0 0  0 0 0 1 0"/>
								</filter>
							</defs>

								<mask maskUnits="userSpaceOnUse" x="137.3" y="15.8" width="16.5" height="4.6" id="mask-3_00000175283434726788865440000001041956463262102925_">
								<g style="filter:url(#Adobe_OpacityMaskFilter_00000101820618125183074810000004233601876215337372_);">
									<path id="path-2_00000016076911637499181900000010193330800269158531_" class="st4" d="M5.8,0h180.6c3.2,0,5.8,2.6,5.8,5.8           V145c0,3.2-2.6,5.8-5.8,5.8H5.8c-3.2,0-5.8-2.6-5.8-5.8V5.8C0,2.6,2.6,0,5.8,0z"/>
								</g>
							</mask>
							<path id="Rectangle-7-Copy-12" class="st9" d="M139.6,15.8h11.9c1.3,0,2.3,1,2.3,2.3c0,1.3-1,2.3-2.3,2.3h-11.9         c-1.3,0-2.3-1-2.3-2.3C137.3,16.8,138.4,15.8,139.6,15.8z"/>
							<defs>

									<filter id="Adobe_OpacityMaskFilter_00000157994277327832868030000000552612865831450293_" filterUnits="userSpaceOnUse" x="159.3" y="15.8" width="16.5" height="4.6">
									<feColorMatrix type="matrix" values="1 0 0 0 0  0 1 0 0 0  0 0 1 0 0  0 0 0 1 0"/>
								</filter>
							</defs>

								<mask maskUnits="userSpaceOnUse" x="159.3" y="15.8" width="16.5" height="4.6" id="mask-3_00000072268472928884394420000017087029651943060625_">
								<g style="filter:url(#Adobe_OpacityMaskFilter_00000157994277327832868030000000552612865831450293_);">
									<path id="path-2_00000063627436255099940950000014898320875724996536_" class="st4" d="M5.8,0h180.6c3.2,0,5.8,2.6,5.8,5.8           V145c0,3.2-2.6,5.8-5.8,5.8H5.8c-3.2,0-5.8-2.6-5.8-5.8V5.8C0,2.6,2.6,0,5.8,0z"/>
								</g>
							</mask>
							<path id="Rectangle-7-Copy-13" class="st11" d="M161.6,15.8h11.9c1.3,0,2.3,1,2.3,2.3c0,1.3-1,2.3-2.3,2.3h-11.9         c-1.3,0-2.3-1-2.3-2.3C159.3,16.8,160.3,15.8,161.6,15.8z"/>
							<defs>

									<filter id="Adobe_OpacityMaskFilter_00000046319641358281372510000001496062062245812383_" filterUnits="userSpaceOnUse" x="107.1" y="31.6" width="68.7" height="34.3">
									<feColorMatrix type="matrix" values="1 0 0 0 0  0 1 0 0 0  0 0 1 0 0  0 0 0 1 0"/>
								</filter>
							</defs>

								<mask maskUnits="userSpaceOnUse" x="107.1" y="31.6" width="68.7" height="34.3" id="mask-3_00000016053076734738230130000001704212233476067244_">
								<g style="filter:url(#Adobe_OpacityMaskFilter_00000046319641358281372510000001496062062245812383_);">
									<path id="path-2_00000054952369875769540310000011538828245069301931_" class="st4" d="M5.8,0h180.6c3.2,0,5.8,2.6,5.8,5.8           V145c0,3.2-2.6,5.8-5.8,5.8H5.8c-3.2,0-5.8-2.6-5.8-5.8V5.8C0,2.6,2.6,0,5.8,0z"/>
								</g>
							</mask>
							<path id="Rectangle" class="st13" d="M111.8,31.6h59.3c2.6,0,4.7,2.1,4.7,4.7v25c0,2.6-2.1,4.7-4.7,4.7h-59.3         c-2.6,0-4.7-2.1-4.7-4.7v-25C107.1,33.7,109.2,31.6,111.8,31.6z"/>
							<defs>

									<filter id="Adobe_OpacityMaskFilter_00000070827514568445821300000013074915649320294538_" filterUnits="userSpaceOnUse" x="107.1" y="105.5" width="68.7" height="34.3">
									<feColorMatrix type="matrix" values="1 0 0 0 0  0 1 0 0 0  0 0 1 0 0  0 0 0 1 0"/>
								</filter>
							</defs>

								<mask maskUnits="userSpaceOnUse" x="107.1" y="105.5" width="68.7" height="34.3" id="mask-3_00000062910566002838430340000013988184203869602994_">
								<g style="filter:url(#Adobe_OpacityMaskFilter_00000070827514568445821300000013074915649320294538_);">
									<path id="path-2_00000101084665570947715170000014067402075365660861_" class="st4" d="M5.8,0h180.6c3.2,0,5.8,2.6,5.8,5.8           V145c0,3.2-2.6,5.8-5.8,5.8H5.8c-3.2,0-5.8-2.6-5.8-5.8V5.8C0,2.6,2.6,0,5.8,0z"/>
								</g>
							</mask>
							<path id="Rectangle-Copy-4" class="st15" d="M111.8,105.5h59.3c2.6,0,4.7,2.1,4.7,4.7v25c0,2.6-2.1,4.7-4.7,4.7h-59.3         c-2.6,0-4.7-2.1-4.7-4.7v-25C107.1,107.6,109.2,105.5,111.8,105.5z"/>
							<defs>

									<filter id="Adobe_OpacityMaskFilter_00000012460289887283949780000004110943986847857070_" filterUnits="userSpaceOnUse" x="16.5" y="70.7" width="68.7" height="29.5">
									<feColorMatrix type="matrix" values="1 0 0 0 0  0 1 0 0 0  0 0 1 0 0  0 0 0 1 0"/>
								</filter>
							</defs>

								<mask maskUnits="userSpaceOnUse" x="16.5" y="70.7" width="68.7" height="29.5" id="mask-3_00000066512662957684252840000014634288580174336446_">
								<g style="filter:url(#Adobe_OpacityMaskFilter_00000012460289887283949780000004110943986847857070_);">
									<path id="path-2_00000082351225369494384600000013782038309570305431_" class="st4" d="M5.8,0h180.6c3.2,0,5.8,2.6,5.8,5.8           V145c0,3.2-2.6,5.8-5.8,5.8H5.8c-3.2,0-5.8-2.6-5.8-5.8V5.8C0,2.6,2.6,0,5.8,0z"/>
								</g>
							</mask>
							<path id="Rectangle-Copy" class="st17" d="M21.1,70.7h59.3c2.6,0,4.7,2.1,4.7,4.7v20.2c0,2.6-2.1,4.7-4.7,4.7H21.1         c-2.6,0-4.7-2.1-4.7-4.7V75.4C16.5,72.8,18.6,70.7,21.1,70.7z"/>
							<defs>

									<filter id="Adobe_OpacityMaskFilter_00000049219462923328498020000016803805469880748957_" filterUnits="userSpaceOnUse" x="16.5" y="41.2" width="68.7" height="88.9">
									<feColorMatrix type="matrix" values="1 0 0 0 0  0 1 0 0 0  0 0 1 0 0  0 0 0 1 0"/>
								</filter>
							</defs>

								<mask maskUnits="userSpaceOnUse" x="16.5" y="41.2" width="68.7" height="88.9" id="mask-3_00000159453406047459456990000017699588239692547252_">
								<g style="filter:url(#Adobe_OpacityMaskFilter_00000049219462923328498020000016803805469880748957_);">
									<path id="path-2_00000167389041680551572540000009576272959508154533_" class="st4" d="M5.8,0h180.6c3.2,0,5.8,2.6,5.8,5.8           V145c0,3.2-2.6,5.8-5.8,5.8H5.8c-3.2,0-5.8-2.6-5.8-5.8V5.8C0,2.6,2.6,0,5.8,0z"/>
								</g>
							</mask>
							<g id="Group-7" class="st19">
								<g transform="translate(16.479426, 41.198565)">
									<path id="Rectangle-7" class="st20" d="M2.3,0h11.9c1.3,0,2.3,1,2.3,2.3s-1,2.3-2.3,2.3H2.3C1,4.6,0,3.6,0,2.3S1,0,2.3,0z"/>
									<path id="Rectangle-7-Copy-5" class="st20" d="M2.3,73.9h11.9c1.3,0,2.3,1,2.3,2.3s-1,2.3-2.3,2.3H2.3           c-1.3,0-2.3-1-2.3-2.3S1,73.9,2.3,73.9z"/>
									<path id="Rectangle-7-Copy-4" class="st20" d="M20.8,0h45.5c1.3,0,2.3,1,2.3,2.3l0,0c0,1.3-1,2.3-2.3,2.3H20.8           c-1.3,0-2.3-1-2.3-2.3l0,0C18.5,1,19.6,0,20.8,0z"/>
									<path id="Rectangle-7-Copy-6" class="st20" d="M20.8,73.9h45.5c1.3,0,2.3,1,2.3,2.3l0,0c0,1.3-1,2.3-2.3,2.3H20.8           c-1.3,0-2.3-1-2.3-2.3l0,0C18.5,74.9,19.6,73.9,20.8,73.9z"/>
									<path id="Rectangle-7-Copy" class="st20" d="M2.3,10.4h64.1c1.3,0,2.3,1,2.3,2.3s-1,2.3-2.3,2.3H2.3C1,15,0,13.9,0,12.7           S1,10.4,2.3,10.4z"/>
									<path id="Rectangle-7-Copy-7" class="st20" d="M2.3,84.3h64.1c1.3,0,2.3,1,2.3,2.3s-1,2.3-2.3,2.3H2.3           c-1.3,0-2.3-1-2.3-2.3S1,84.3,2.3,84.3z"/>
								</g>
							</g>
							<defs>

									<filter id="Adobe_OpacityMaskFilter_00000106142101048004433080000006645592832850290862_" filterUnits="userSpaceOnUse" x="107.1" y="80.3" width="68.7" height="15">
									<feColorMatrix type="matrix" values="1 0 0 0 0  0 1 0 0 0  0 0 1 0 0  0 0 0 1 0"/>
								</filter>
							</defs>

								<mask maskUnits="userSpaceOnUse" x="107.1" y="80.3" width="68.7" height="15" id="mask-3_00000006668787947112579080000005840887286763602614_">
								<g style="filter:url(#Adobe_OpacityMaskFilter_00000106142101048004433080000006645592832850290862_);">
									<path id="path-2_00000179625908235130862390000002937486540848392862_" class="st4" d="M5.8,0h180.6c3.2,0,5.8,2.6,5.8,5.8           V145c0,3.2-2.6,5.8-5.8,5.8H5.8c-3.2,0-5.8-2.6-5.8-5.8V5.8C0,2.6,2.6,0,5.8,0z"/>
								</g>
							</mask>
							<g id="Group-6" class="st22">
								<g transform="translate(107.116268, 80.337201)">
									<path id="Rectangle-7-Copy-2" class="st20" d="M2.3,0h25.6c1.3,0,2.3,1,2.3,2.3s-1,2.3-2.3,2.3H2.3C1,4.6,0,3.6,0,2.3           S1,0,2.3,0z"/>
									<path id="Rectangle-7-Copy-3" class="st20" d="M34.6,0h31.8c1.3,0,2.3,1,2.3,2.3l0,0c0,1.3-1,2.3-2.3,2.3H34.6           c-1.3,0-2.3-1-2.3-2.3l0,0C32.3,1,33.3,0,34.6,0z"/>
									<path id="Rectangle-7-Copy-9" class="st20" d="M2.3,10.4h11.9c1.3,0,2.3,1,2.3,2.3s-1,2.3-2.3,2.3H2.3C1,15,0,13.9,0,12.7           S1,10.4,2.3,10.4z"/>
									<path id="Rectangle-7-Copy-8" class="st20" d="M20.8,10.4h45.5c1.3,0,2.3,1,2.3,2.3l0,0c0,1.3-1,2.3-2.3,2.3H20.8           c-1.3,0-2.3-1-2.3-2.3l0,0C18.5,11.4,19.6,10.4,20.8,10.4z"/>
								</g>
							</g>
						</g>
						<circle id="Oval" class="st23" cx="6.2" cy="4.8" r="2.1"/>
						<circle id="Oval-Copy" class="st24" cx="14.4" cy="4.8" r="2.1"/>
						<circle id="Oval-Copy-2" class="st25" cx="22.7" cy="4.8" r="2.1"/>
					</g>
					<g id="Group-12" transform="translate(0.285178, 69.925704)">
						<path id="Rectangle-2" class="st26" d="M1.5,0h231.7c0.9,0,1.5,0.7,1.5,1.5l0,0c0,0.9-0.7,1.5-1.5,1.5H1.5        C0.7,3.1,0,2.4,0,1.5l0,0C0,0.7,0.7,0,1.5,0z"/>

							<linearGradient id="Rectangle-3_00000030461901874194435890000018052920612865758346_" gradientUnits="userSpaceOnUse" x1="-274.8634" y1="263.1586" x2="-274.8634" y2="263.9726" gradientTransform="matrix(220.0003 0 0 -16.671 60586.832 4403.7866)">
							<stop offset="0" style="stop-color:#A0AAF8;stop-opacity:0"/>
							<stop offset="1" style="stop-color:#5468FF;stop-opacity:0.4"/>
						</linearGradient>

							<rect id="Rectangle-3" x="6.8" y="3.1" style="fill:url(#Rectangle-3_00000030461901874194435890000018052920612865758346_);" width="220" height="16.7"/>
					</g>
				</g>
				<g id="Group_00000156586552057449597070000002225173824172982407_" transform="translate(165.011827, 0.000000)" class="st28">
					<g id="Oval_00000052826732944141365800000017479955596620573084_">
						<circle class="st29" cx="45.9" cy="45.9" r="45.9"/>
					</g>
					<g id="Oval_00000067930849638972714860000005249861222663724473_">

						<g>

								<ellipse id="path-7_00000060014031275059035370000011462755675812554666_" class="st30" cx="45.9" cy="46" rx="35" ry="34.8"/>
						</g>
					</g>
					<g id="Group-3_00000043427299269362428520000009495595143025283740_" transform="translate(3.810651, 3.810651)">
						<g id="Group_00000135680388262536020870000016052052588658477986_" transform="translate(41.644970, 0.000000)">
							<g id="Group_00000116231362912453628470000012244362653718769303_" transform="translate(0.000000, 0.272189)">
								<path id="Rectangle_00000155145802948004706090000010689240010063474862_" class="st4" d="M0.5,0L0.5,0          c0.4,0,0.6,0.2,0.6,0.5v0.9c0,0.3-0.2,0.5-0.5,0.5H0.5C0.2,1.9,0,1.7,0,1.4V0.5C0,0.2,0.2,0,0.5,0z"/>
								<path id="Rectangle-Copy-2_00000050656210065656180230000005409830481918451608_" class="st4" d="M0.5,81.7L0.5,81.7          c0.4,0,0.6,0.2,0.6,0.5v0.9c0,0.3-0.2,0.5-0.5,0.5H0.5c-0.3,0-0.5-0.2-0.5-0.5v-0.9C0,81.9,0.2,81.7,0.5,81.7z"/>
							</g>
						</g>
						<g id="Group_00000097468849546293524550000010586023507359818411_" transform="translate(41.644970, 0.000000)">

								<g id="Mins-Copy_00000028305055576613141280000013920559837213650366_" transform="translate(0.544379, 42.053254) rotate(10.000000) translate(-0.544379, -42.053254) ">
								<g id="Group_00000072245038942989692080000006655835992290862489_" transform="translate(0.000000, 0.272189)">
									<path id="Rectangle_00000123429649503792795720000008314519415069160090_" class="st4" d="M0.5,0L0.5,0           c0.4,0,0.6,0.2,0.6,0.5l0,0.9c0,0.3-0.2,0.5-0.5,0.5H0.5C0.2,1.9,0,1.7,0,1.4l0-0.9C0,0.2,0.2,0,0.5,0z"/>
									<path id="Rectangle-Copy-2_00000182507536351177306790000000045773596227158674_" class="st4" d="M0.5,81.7L0.5,81.7           c0.4,0,0.6,0.2,0.6,0.5l0,0.9c0,0.3-0.2,0.5-0.5,0.5H0.5c-0.3,0-0.5-0.2-0.5-0.5l0-0.9C0,81.9,0.2,81.7,0.5,81.7z"/>
								</g>
							</g>
						</g>
						<g id="Group_00000030447581942158467980000013691182911926355120_" transform="translate(41.644970, 0.000000)">

								<g id="Mins-Copy-2_00000162325564045813572800000010937351070035384205_" transform="translate(0.544379, 42.053254) rotate(20.000000) translate(-0.544379, -42.053254) ">
								<g id="Group_00000143604363382028796470000017228746643634486157_" transform="translate(0.000000, 0.272189)">
									<path id="Rectangle_00000131358064752725850080000014484218160869892489_" class="st4" d="M0.5,0L0.5,0           c0.4,0,0.6,0.2,0.6,0.5l0,0.9c0,0.3-0.2,0.5-0.5,0.5H0.5C0.2,1.9,0,1.7,0,1.4l0-0.9C0,0.2,0.2,0,0.5,0z"/>
									<path id="Rectangle-Copy-2_00000110447186184990985100000012607179987387112639_" class="st4" d="M0.5,81.7L0.5,81.7           c0.4,0,0.6,0.2,0.6,0.5l0,0.9c0,0.3-0.2,0.5-0.5,0.5H0.5c-0.3,0-0.5-0.2-0.5-0.5l0-0.9C0,81.9,0.2,81.7,0.5,81.7z"/>
								</g>
							</g>
						</g>
						<g id="Group_00000055683718031386288160000016900618667650557319_" transform="translate(41.644970, 0.000000)">

								<g id="Mins-Copy-3_00000063611778682304960610000017650484622518517394_" transform="translate(0.544379, 42.053254) rotate(30.000000) translate(-0.544379, -42.053254) ">
								<g id="Group_00000054965433069573263070000001411662862305006726_" transform="translate(0.000000, 0.272189)">
									<path id="Rectangle_00000128453044093442938130000012067021617495441818_" class="st4" d="M0.5,0L0.5,0           c0.4,0,0.6,0.2,0.6,0.5l0,0.9c0,0.3-0.2,0.5-0.5,0.5H0.5C0.2,1.9,0,1.7,0,1.4l0-0.9C0,0.2,0.2,0,0.5,0z"/>
									<path id="Rectangle-Copy-2_00000071551407632804888540000012234306366873473718_" class="st4" d="M0.5,81.7L0.5,81.7           c0.4,0,0.6,0.2,0.6,0.5l0,0.9c0,0.3-0.2,0.5-0.5,0.5H0.5c-0.3,0-0.5-0.2-0.5-0.5l0-0.9C0,81.9,0.2,81.7,0.5,81.7z"/>
								</g>
							</g>
						</g>
						<g id="Group_00000149354424087840024070000017728537089444192676_" transform="translate(41.644970, 0.000000)">

								<g id="Mins-Copy-4_00000094580707017857820890000007317172550198438060_" transform="translate(0.544379, 42.053254) rotate(40.000000) translate(-0.544379, -42.053254) ">
								<g id="Group_00000150804079179547811240000013600406838681613998_" transform="translate(0.000000, 0.272189)">
									<path id="Rectangle_00000093899631333506352960000004672586602487839119_" class="st4" d="M0.5,0L0.5,0           c0.4,0,0.6,0.2,0.6,0.5l0,0.9c0,0.3-0.2,0.5-0.5,0.5l-0.1,0C0.2,1.9,0,1.7,0,1.4l0-0.9C0,0.2,0.2,0,0.5,0z"/>
									<path id="Rectangle-Copy-2_00000145058647315669923130000014933064841138003599_" class="st4" d="M0.5,81.7L0.5,81.7           c0.4,0,0.6,0.2,0.6,0.5l0,0.9c0,0.3-0.2,0.5-0.5,0.5H0.5c-0.3,0-0.5-0.2-0.5-0.5l0-0.9C0,81.9,0.2,81.7,0.5,81.7z"/>
								</g>
							</g>
						</g>
						<g id="Group_00000114773538687158843400000013228997790098205831_" transform="translate(41.644970, 0.000000)">

								<g id="Mins-Copy-5_00000170980234477811422940000007158683845841228686_" transform="translate(0.544379, 42.053254) rotate(50.000000) translate(-0.544379, -42.053254) ">
								<g id="Group_00000181796212785801067840000000135017471365304492_" transform="translate(0.000000, 0.272189)">
									<path id="Rectangle_00000148657881991486552400000004007613846813421214_" class="st4" d="M0.5,0L0.5,0           c0.4,0,0.6,0.2,0.6,0.5l0,0.9c0,0.3-0.2,0.5-0.5,0.5H0.5C0.2,1.9,0,1.7,0,1.4l0-0.9C0,0.2,0.2,0,0.5,0z"/>
									<path id="Rectangle-Copy-2_00000005252624320623363800000016417504533556546461_" class="st4" d="M0.5,81.7L0.5,81.7           c0.4,0,0.6,0.2,0.6,0.5l0,0.9c0,0.3-0.2,0.5-0.5,0.5H0.5c-0.3,0-0.5-0.2-0.5-0.5l0-0.9C0,81.9,0.2,81.7,0.5,81.7z"/>
								</g>
							</g>
						</g>
						<g id="Group_00000048496763061242050690000017642797968944991896_" transform="translate(41.644970, 0.000000)">

								<g id="Mins-Copy-6_00000059283031121695652660000004005127360372043439_" transform="translate(0.544379, 42.053254) rotate(60.000000) translate(-0.544379, -42.053254) ">
								<g id="Group_00000027591736603757023460000011014702530270879141_" transform="translate(0.000000, 0.272189)">
									<path id="Rectangle_00000174579200499353828940000011039722068913009850_" class="st4" d="M0.5,0L0.5,0           c0.4,0,0.6,0.2,0.6,0.5l0,0.9c0,0.3-0.2,0.5-0.5,0.5l-0.1,0C0.2,1.9,0,1.7,0,1.4l0-0.9C0,0.2,0.2,0,0.5,0z"/>
									<path id="Rectangle-Copy-2_00000112624714239056292380000016282366666309902723_" class="st4" d="M0.5,81.7L0.5,81.7           c0.4,0,0.6,0.2,0.6,0.5l0,0.9c0,0.3-0.2,0.5-0.5,0.5H0.5c-0.3,0-0.5-0.2-0.5-0.5l0-0.9C0,81.9,0.2,81.7,0.5,81.7z"/>
								</g>
							</g>
						</g>
						<g id="Group_00000163780646359337385820000017103731806162538929_" transform="translate(41.644970, 0.000000)">

								<g id="Mins-Copy-7_00000036961171956883779070000009468181586074101424_" transform="translate(0.544379, 42.053254) rotate(70.000000) translate(-0.544379, -42.053254) ">
								<g id="Group_00000018929015231286722390000000492776036895662511_" transform="translate(0.000000, 0.272189)">
									<path id="Rectangle_00000114762182495186600280000005206962275748459192_" class="st4" d="M0.5,0L0.5,0           c0.4,0,0.6,0.2,0.6,0.5l0,0.9c0,0.3-0.2,0.5-0.5,0.5H0.5C0.2,1.9,0,1.7,0,1.4l0-0.9C0,0.2,0.2,0,0.5,0z"/>
									<path id="Rectangle-Copy-2_00000040566607891519603510000002897234249818245519_" class="st4" d="M0.5,81.7L0.5,81.7           c0.4,0,0.6,0.2,0.6,0.5l0,0.9c0,0.3-0.2,0.5-0.5,0.5H0.5c-0.3,0-0.5-0.2-0.5-0.5l0-0.9C0,81.9,0.2,81.7,0.5,81.7z"/>
								</g>
							</g>
						</g>
						<g id="Group_00000002378041041081829710000003028241790016719766_" transform="translate(41.644970, 0.000000)">

								<g id="Mins-Copy-8_00000036210241189923374060000011082539534101545391_" transform="translate(0.544379, 42.053254) rotate(80.000000) translate(-0.544379, -42.053254) ">
								<g id="Group_00000108273761895605705440000007120273333274826927_" transform="translate(0.000000, 0.272189)">
									<path id="Rectangle_00000123417196685012575290000004373090696768021125_" class="st4" d="M0.5,0L0.5,0           c0.4,0,0.6,0.2,0.6,0.5l0,0.9c0,0.3-0.2,0.5-0.5,0.5H0.5C0.2,1.9,0,1.7,0,1.4l0-0.9C0,0.2,0.2,0,0.5,0z"/>
									<path id="Rectangle-Copy-2_00000049919766662877372200000001783863469306233998_" class="st4" d="M0.5,81.7L0.5,81.7           c0.4,0,0.6,0.2,0.6,0.5l0,0.9c0,0.3-0.2,0.5-0.5,0.5H0.5c-0.3,0-0.5-0.2-0.5-0.5l0-0.9C0,81.9,0.2,81.7,0.5,81.7z"/>
								</g>
							</g>
						</g>
						<g id="Group_00000022555244482596901620000011168158845441356197_" transform="translate(41.644970, 0.000000)">

								<g id="Mins-Copy-9_00000051354617199390615690000003143519226290737803_" transform="translate(0.544379, 42.053254) rotate(90.000000) translate(-0.544379, -42.053254) ">
								<g id="Group_00000045585142116277041360000002604678708174871939_" transform="translate(0.000000, 0.272189)">
									<path id="Rectangle_00000087376615837610029910000007581354476461916603_" class="st4" d="M0.5,0L0.5,0           c0.4,0,0.6,0.2,0.6,0.5v0.9c0,0.3-0.2,0.5-0.5,0.5H0.5C0.2,1.9,0,1.7,0,1.4V0.5C0,0.2,0.2,0,0.5,0z"/>
									<path id="Rectangle-Copy-2_00000176745341542497070870000003352407475606581680_" class="st4" d="M0.5,81.7L0.5,81.7           c0.4,0,0.6,0.2,0.6,0.5v0.9c0,0.3-0.2,0.5-0.5,0.5H0.5c-0.3,0-0.5-0.2-0.5-0.5v-0.9C0,81.9,0.2,81.7,0.5,81.7z"/>
								</g>
							</g>
						</g>
						<g id="Group_00000070085948725838040320000002768485216050006156_" transform="translate(41.644970, 0.000000)">

								<g id="Mins-Copy-10_00000149358055799513342060000007678095851402958733_" transform="translate(0.544379, 42.053254) rotate(100.000000) translate(-0.544379, -42.053254) ">
								<g id="Group_00000018226578089378754360000014780275007537074341_" transform="translate(0.000000, 0.272189)">
									<path id="Rectangle_00000138562696350704033860000004747225330950225066_" class="st4" d="M0.5,0L0.5,0           c0.4,0,0.6,0.2,0.6,0.5l0,0.9c0,0.3-0.2,0.5-0.5,0.5H0.5C0.2,1.9,0,1.7,0,1.4l0-0.9C0,0.2,0.2,0,0.5,0z"/>
									<path id="Rectangle-Copy-2_00000069359311867837636570000009016972406784816545_" class="st4" d="M0.5,81.7L0.5,81.7           c0.4,0,0.6,0.2,0.6,0.5l0,0.9c0,0.3-0.2,0.5-0.5,0.5H0.5c-0.3,0-0.5-0.2-0.5-0.5l0-0.9C0,81.9,0.2,81.7,0.5,81.7z"/>
								</g>
							</g>
						</g>
						<g id="Group_00000116930588018182009020000005974413423933609100_" transform="translate(41.644970, 0.000000)">

								<g id="Mins-Copy-11_00000100356806275949139910000008568879401393320837_" transform="translate(0.544379, 42.053254) rotate(110.000000) translate(-0.544379, -42.053254) ">
								<g id="Group_00000018229091954079873260000005888463132176473500_" transform="translate(0.000000, 0.272189)">
									<path id="Rectangle_00000163061687679450089730000016563336190811042749_" class="st4" d="M0.5,0L0.5,0           c0.4,0,0.6,0.2,0.6,0.5l0,0.9c0,0.3-0.2,0.5-0.5,0.5H0.5C0.2,1.9,0,1.7,0,1.4l0-0.9C0,0.2,0.2,0,0.5,0z"/>
									<path id="Rectangle-Copy-2_00000063604076907021474030000006419571058403323523_" class="st4" d="M0.5,81.7L0.5,81.7           c0.4,0,0.6,0.2,0.6,0.5l0,0.9c0,0.3-0.2,0.5-0.5,0.5H0.5c-0.3,0-0.5-0.2-0.5-0.5l0-0.9C0,81.9,0.2,81.7,0.5,81.7z"/>
								</g>
							</g>
						</g>
						<g id="Group_00000088109374763753490750000004896133752041298852_" transform="translate(41.644970, 0.000000)">

								<g id="Mins-Copy-12_00000146484914701255744690000002094448714700562315_" transform="translate(0.544379, 42.053254) rotate(120.000000) translate(-0.544379, -42.053254) ">
								<g id="Group_00000093159186055511580670000013618676469588576643_" transform="translate(0.000000, 0.272189)">
									<path id="Rectangle_00000155147167220574165360000005266301059932879780_" class="st4" d="M0.5,0L0.5,0           c0.4,0,0.6,0.2,0.6,0.5l0,0.9c0,0.3-0.2,0.5-0.5,0.5l-0.1,0C0.2,1.9,0,1.7,0,1.4l0-0.9C0,0.2,0.2,0,0.5,0z"/>
									<path id="Rectangle-Copy-2_00000061443924202757728790000001528682097987187073_" class="st4" d="M0.5,81.7L0.5,81.7           c0.4,0,0.6,0.2,0.6,0.5l0,0.9c0,0.3-0.2,0.5-0.5,0.5H0.5c-0.3,0-0.5-0.2-0.5-0.5l0-0.9C0,81.9,0.2,81.7,0.5,81.7z"/>
								</g>
							</g>
						</g>
						<g id="Group_00000079460209489972635460000005514156525607855502_" transform="translate(41.644970, 0.000000)">

								<g id="Mins-Copy-13_00000077324159911692344870000015170164834235924665_" transform="translate(0.544379, 42.053254) rotate(130.000000) translate(-0.544379, -42.053254) ">
								<g id="Group_00000014599168780897042260000017146874341678781326_" transform="translate(0.000000, 0.272189)">
									<path id="Rectangle_00000181082217269994164210000016860947977385375134_" class="st4" d="M0.5,0L0.5,0           c0.4,0,0.6,0.2,0.6,0.5l0,0.9c0,0.3-0.2,0.5-0.5,0.5l-0.1,0C0.2,1.9,0,1.7,0,1.4l0-0.9C0,0.2,0.2,0,0.5,0z"/>
									<path id="Rectangle-Copy-2_00000066487758354342120740000011513372892825658017_" class="st4" d="M0.5,81.7L0.5,81.7           c0.4,0,0.6,0.2,0.6,0.5l0,0.9c0,0.3-0.2,0.5-0.5,0.5H0.5c-0.3,0-0.5-0.2-0.5-0.5l0-0.9C0,81.9,0.2,81.7,0.5,81.7z"/>
								</g>
							</g>
						</g>
						<g id="Group_00000167386612566509702520000000467711778094242720_" transform="translate(41.644970, 0.000000)">

								<g id="Mins-Copy-14_00000124158085537660076950000015080690750567189435_" transform="translate(0.544379, 42.053254) rotate(140.000000) translate(-0.544379, -42.053254) ">
								<g id="Group_00000004541874862774301220000010800656039048196008_" transform="translate(0.000000, 0.272189)">
									<path id="Rectangle_00000178181562820137105470000017846489831620399523_" class="st4" d="M0.5,0L0.5,0           c0.4,0,0.6,0.2,0.6,0.5l0,0.9c0,0.3-0.2,0.5-0.5,0.5H0.5C0.2,1.9,0,1.7,0,1.4l0-0.9C0,0.2,0.2,0,0.5,0z"/>
									<path id="Rectangle-Copy-2_00000117651969671456346880000008568651942666383022_" class="st4" d="M0.5,81.7L0.5,81.7           c0.4,0,0.6,0.2,0.6,0.5l0,0.9c0,0.3-0.2,0.5-0.5,0.5H0.5c-0.3,0-0.5-0.2-0.5-0.5l0-0.9C0,81.9,0.2,81.7,0.5,81.7z"/>
								</g>
							</g>
						</g>
						<g id="Group_00000158015101677529623740000017165953973405438117_" transform="translate(41.644970, 0.000000)">

								<g id="Mins-Copy-15_00000116205591797398786410000013531909723711744388_" transform="translate(0.544379, 42.053254) rotate(150.000000) translate(-0.544379, -42.053254) ">
								<g id="Group_00000175281243726130302490000007343198722416524462_" transform="translate(0.000000, 0.272189)">
									<path id="Rectangle_00000053542093320653915230000012235400025078825145_" class="st4" d="M0.5,0L0.5,0           c0.4,0,0.6,0.2,0.6,0.5l0,0.9c0,0.3-0.2,0.5-0.5,0.5H0.5C0.2,1.9,0,1.7,0,1.4l0-0.9C0,0.2,0.2,0,0.5,0z"/>
									<path id="Rectangle-Copy-2_00000099643155221662808990000002732926977522394814_" class="st4" d="M0.5,81.7L0.5,81.7           c0.4,0,0.6,0.2,0.6,0.5l0,0.9c0,0.3-0.2,0.5-0.5,0.5H0.5c-0.3,0-0.5-0.2-0.5-0.5l0-0.9C0,81.9,0.2,81.7,0.5,81.7z"/>
								</g>
							</g>
						</g>
						<g id="Group_00000143595406585658497440000010662481989816998029_" transform="translate(41.644970, 0.000000)">

								<g id="Mins-Copy-16_00000078008448056327036950000007408730860930462633_" transform="translate(0.544379, 42.053254) rotate(160.000000) translate(-0.544379, -42.053254) ">
								<g id="Group_00000109717896430771377470000013666561604148228535_" transform="translate(0.000000, 0.272189)">
									<path id="Rectangle_00000166665414808089922350000018435106383852558737_" class="st4" d="M0.5,0L0.5,0           c0.4,0,0.6,0.2,0.6,0.5l0,0.9c0,0.3-0.2,0.5-0.5,0.5H0.5C0.2,1.9,0,1.7,0,1.4l0-0.9C0,0.2,0.2,0,0.5,0z"/>
									<path id="Rectangle-Copy-2_00000065039571472770050820000012270664516363807378_" class="st4" d="M0.5,81.7L0.5,81.7           c0.4,0,0.6,0.2,0.6,0.5l0,0.9c0,0.3-0.2,0.5-0.5,0.5H0.5c-0.3,0-0.5-0.2-0.5-0.5l0-0.9C0,81.9,0.2,81.7,0.5,81.7z"/>
								</g>
							</g>
						</g>
					</g>
					<g id="Mins-Copy-17_00000008847336103379773850000015426033954989331602_" transform="translate(45.455621, 3.810651)">
						<g transform="translate(0.544379, 42.053254) rotate(170.000000) translate(-0.544379, -42.053254) ">
							<g id="Group_00000072268101019692277150000010170834158676601489_" transform="translate(0.000000, 0.272189)">
								<path id="Rectangle_00000170996708433960964120000018278748033884143751_" class="st4" d="M0.5,0L0.5,0          c0.4,0,0.6,0.2,0.6,0.5l0,0.9c0,0.3-0.2,0.5-0.5,0.5H0.5C0.2,1.9,0,1.7,0,1.4l0-0.9C0,0.2,0.2,0,0.5,0z"/>
								<path id="Rectangle-Copy-2_00000015319059025710570780000003726584877789181113_" class="st4" d="M0.5,81.7L0.5,81.7          c0.4,0,0.6,0.2,0.6,0.5l0,0.9c0,0.3-0.2,0.5-0.5,0.5H0.5c-0.3,0-0.5-0.2-0.5-0.5l0-0.9C0,81.9,0.2,81.7,0.5,81.7z"/>
							</g>
						</g>
					</g>
				</g>
			</g>
		</g>
	</g>
</g>
<path class="st31" d="M226,91c0,2.2-1.8,4.1-4,4.1h-22.4c-2.2,0-4-1.9-4-4.1V75.5c0-2.2,1.8-4.1,4-4.1H222c2.2,0,4,1.9,4,4.1V91  L226,91z"/>
<path class="st32" d="M226,75.5V91c0,2.2-1.8,4.1-4,4.1h-22.4"/>
<g>
	<path class="st33" d="M195.6,75.5c0-2.2,1.8-4,4-4H222c2.2,0,4,1.8,4,4"/>
	<path class="st33" d="M214.3,80.8c0-2-1.5-3.5-3.5-3.5c-2,0-3.4,1.6-3.4,3.5c0,1.3,0.4,2.4,1.8,3v5.1c0,1,0.7,1.8,1.7,1.8   s1.7-0.8,1.7-1.8v-5.1C213.9,83.1,214.3,82,214.3,80.8z"/>
</g>
<path class="st34" d="M214.3,80c0-2-1.5-3.5-3.5-3.5c-2,0-3.4,1.6-3.4,3.5c0,1.3,0.4,2.4,1.8,3v5.1c0,1,0.7,1.8,1.7,1.8  s1.7-0.8,1.7-1.8V83C213.9,82.4,214.3,81.3,214.3,80z"/>
<path class="st33" d="M202.4,61.7C202.4,61.7,202.4,61.7,202.4,61.7l-0.2,0.1c0,0-0.1,0-0.1-0.1l0,0c0,0,0-0.1,0.1-0.1L202.4,61.7  C202.4,61.6,202.4,61.6,202.4,61.7L202.4,61.7z"/>
<path class="st35" d="M222,69.4h-3.4V64c0-4.3-3.4-7.9-7.8-7.9c-4.3,0-7.8,3.5-7.8,7.9v5.4h-3.4V64c0-6.3,4.8-11.5,11.2-11.5  c6.3,0,11.2,5.1,11.2,11.5V69.4L222,69.4z"/>
<g>
	<path class="st36" d="M199.6,67.6v1.8h3.4v-1.8V64c0-4.3,3.6-7.9,8-7.9C204.7,56.2,199.6,61.3,199.6,67.6z"/>
	<path class="st36" d="M210.6,56.2c4.3,0,8,3.5,8,7.9v3.6v1.8h3.4v-1.8C222,61.3,216.9,56.2,210.6,56.2z"/>
</g>
</svg>