<svg xmlns="http://www.w3.org/2000/svg" xmlns:xlink="http://www.w3.org/1999/xlink" version="1.1" x="0px" y="0px" viewBox="0 0 288 249" style="enable-background:new 0 0 288 249;" xml:space="preserve">
<style type="text/css">
	.st0{filter:url(#filter-4);}
	.st1{fill-rule:evenodd;clip-rule:evenodd;}
	.st2{fill-rule:evenodd;clip-rule:evenodd;fill:url(#path-2_00000012454011791332950890000015453738296481714344_);}
	.st3{filter:url(#Adobe_OpacityMaskFilter);}
	.st4{fill-rule:evenodd;clip-rule:evenodd;fill:#FFFFFF;}
	.st5{mask:url(#mask-3_00000173138627569234414410000017320795238985250962_);fill-rule:evenodd;clip-rule:evenodd;fill:#C5C9E0;}
	.st6{filter:url(#Adobe_OpacityMaskFilter_00000108279694430674990600000009893405028333548705_);}
	.st7{mask:url(#mask-3_00000165199866881048082500000009597404046169741972_);fill-rule:evenodd;clip-rule:evenodd;fill:#C5C9E0;}
	.st8{filter:url(#Adobe_OpacityMaskFilter_00000139278644899174023530000006820062570872110768_);}
	.st9{mask:url(#mask-3_00000175283434726788865440000001041956463262102925_);fill-rule:evenodd;clip-rule:evenodd;fill:#C5C9E0;}
	.st10{filter:url(#Adobe_OpacityMaskFilter_00000141446650448972126460000010812443691148926082_);}
	.st11{mask:url(#mask-3_00000072268472928884394420000017087029651943060625_);fill-rule:evenodd;clip-rule:evenodd;fill:#C5C9E0;}
	.st12{filter:url(#Adobe_OpacityMaskFilter_00000047768645155460607670000007860272991263048074_);}
	.st13{mask:url(#mask-3_00000016053076734738230130000001704212233476067244_);fill-rule:evenodd;clip-rule:evenodd;fill:#C5C9E0;}
	.st14{filter:url(#Adobe_OpacityMaskFilter_00000013903754635347466540000013534208669087442337_);}
	.st15{mask:url(#mask-3_00000062910566002838430340000013988184203869602994_);fill-rule:evenodd;clip-rule:evenodd;fill:#C5C9E0;}
	.st16{filter:url(#Adobe_OpacityMaskFilter_00000013152461869744310030000000944252310208827792_);}
	.st17{mask:url(#mask-3_00000066512662957684252840000014634288580174336446_);fill-rule:evenodd;clip-rule:evenodd;fill:#C5C9E0;}
	.st18{filter:url(#Adobe_OpacityMaskFilter_00000124850493095313102100000006594899319334683044_);}
	.st19{opacity:0.5;mask:url(#mask-3_00000159453406047459456990000017699588239692547252_);}
	.st20{fill-rule:evenodd;clip-rule:evenodd;fill:#C5C9E0;}
	.st21{filter:url(#Adobe_OpacityMaskFilter_00000114041282586733188370000009881495277381822344_);}
	.st22{opacity:0.5;mask:url(#mask-3_00000006668787947112579080000005840887286763602614_);}
	.st23{fill-rule:evenodd;clip-rule:evenodd;fill:#ED5A6A;}
	.st24{fill-rule:evenodd;clip-rule:evenodd;fill:#F8BE9A;}
	.st25{fill-rule:evenodd;clip-rule:evenodd;fill:#61C5C8;}
	.st26{fill:#5468FF;}
	.st27{fill:url(#Rectangle-3_00000046334379657541378140000013698123958071750034_);}
	.st28{filter:url(#filter-6);}
	.st29{opacity:0.5;fill-rule:evenodd;clip-rule:evenodd;fill:#C5C9E0;}
	.st30{fill-rule:evenodd;clip-rule:evenodd;fill:#F5F5FA;}
	.st31{fill:url(#SVGID_1_);}
	.st32{fill:url(#SVGID_00000106144598123193905740000008213997767475051915_);}
</style>
<filter filterUnits="objectBoundingBox" height="184.8%" id="filter-6" width="184.8%" x="-42.4%" y="-42.4%">
	<feOffset dx="0" dy="6" in="SourceAlpha" result="shadowOffsetOuter1"/>
	<feGaussianBlur in="shadowOffsetOuter1" result="shadowBlurOuter1" stdDeviation="7"/>

		<feColorMatrix in="shadowBlurOuter1" result="shadowMatrixOuter1" type="matrix" values="0 0 0 0 0.145098039   0 0 0 0 0.17254902   0 0 0 0 0.380392157  0 0 0 0.15 0">
		</feColorMatrix>
	<feMerge>
		<feMergeNode in="shadowMatrixOuter1"/>
		<feMergeNode in="SourceGraphic"/>
	</feMerge>
</filter>
<filter filterUnits="objectBoundingBox" height="129.2%" id="filter-4" width="122.9%" x="-11.4%" y="-11.3%">
	<feOffset dx="0" dy="5" in="SourceAlpha" result="shadowOffsetOuter1"/>
	<feGaussianBlur in="shadowOffsetOuter1" result="shadowBlurOuter1" stdDeviation="6.5"/>

		<feColorMatrix in="shadowBlurOuter1" result="shadowMatrixOuter1" type="matrix" values="0 0 0 0 0.145098039   0 0 0 0 0.17254902   0 0 0 0 0.380392157  0 0 0 0.15 0">
		</feColorMatrix>
	<feOffset dx="0" dy="2" in="SourceAlpha" result="shadowOffsetOuter2"/>
	<feGaussianBlur in="shadowOffsetOuter2" result="shadowBlurOuter2" stdDeviation="1.5"/>

		<feColorMatrix in="shadowBlurOuter2" result="shadowMatrixOuter2" type="matrix" values="0 0 0 0 0.364705882   0 0 0 0 0.392156863   0 0 0 0 0.580392157  0 0 0 0.2 0">
		</feColorMatrix>
	<feMerge>
		<feMergeNode in="shadowMatrixOuter1"/>
		<feMergeNode in="shadowMatrixOuter2"/>
	</feMerge>
</filter>
<g id="Layer_1">
	<g id="Page-1">
		<g id="Artboard" transform="translate(-216.000000, -1601.000000)">
			<g id="How" transform="translate(0.000000, 1402.000000)">
				<g id="scraping" transform="translate(216.332736, 228.246568)">
					<g id="Group-3" transform="translate(0.000000, 48.753432)">
						<g id="Group-8" transform="translate(21.571103, 0.380238)">
							<g id="Rectangle-_x2B_-Rectangle-Copy-_x2B_-Group-7-_x2B_-Group-6-Mask">
								<g id="Mask">
									<g class="st0">
										<path id="path-2_00000115498872490526553040000015799790075647199889_" class="st1" d="M5.8,0h180.6            c3.2,0,5.8,2.6,5.8,5.8V145c0,3.2-2.6,5.8-5.8,5.8H5.8c-3.2,0-5.8-2.6-5.8-5.8V5.8C0,2.6,2.6,0,5.8,0z"/>
									</g>
									<g>

											<linearGradient id="path-2_00000034047266289241036040000012715005015427770535_" gradientUnits="userSpaceOnUse" x1="-295.9683" y1="341.7487" x2="-295.9683" y2="342.7487" gradientTransform="matrix(192.26 0 0 -150.8783 56998.9805 51713.3438)">
											<stop offset="0" style="stop-color:#F5F5FA"/>
											<stop offset="1" style="stop-color:#FFFFFF"/>
										</linearGradient>

											<path id="path-2_00000044863973114674279250000017119926160971250338_" style="fill-rule:evenodd;clip-rule:evenodd;fill:url(#path-2_00000034047266289241036040000012715005015427770535_);" d="            M5.8,0h180.6c3.2,0,5.8,2.6,5.8,5.8V145c0,3.2-2.6,5.8-5.8,5.8H5.8c-3.2,0-5.8-2.6-5.8-5.8V5.8C0,2.6,2.6,0,5.8,0z"/>
									</g>
								</g>
								<defs>
									<filter id="Adobe_OpacityMaskFilter" filterUnits="userSpaceOnUse" x="16.5" y="15.8" width="16.5" height="4.6">
										<feColorMatrix type="matrix" values="1 0 0 0 0  0 1 0 0 0  0 0 1 0 0  0 0 0 1 0"/>
									</filter>
								</defs>

									<mask maskUnits="userSpaceOnUse" x="16.5" y="15.8" width="16.5" height="4.6" id="mask-3_00000173138627569234414410000017320795238985250962_">
									<g class="st3">
										<path id="path-2_00000032629699485259187950000015502299068873787026_" class="st4" d="M5.8,0h180.6            c3.2,0,5.8,2.6,5.8,5.8V145c0,3.2-2.6,5.8-5.8,5.8H5.8c-3.2,0-5.8-2.6-5.8-5.8V5.8C0,2.6,2.6,0,5.8,0z"/>
									</g>
								</mask>
								<path id="Rectangle-7-Copy-10" class="st5" d="M18.8,15.8h11.9c1.3,0,2.3,1,2.3,2.3c0,1.3-1,2.3-2.3,2.3H18.8          c-1.3,0-2.3-1-2.3-2.3C16.5,16.8,17.5,15.8,18.8,15.8z"/>
								<defs>

										<filter id="Adobe_OpacityMaskFilter_00000062891123052617203050000005762820581340912260_" filterUnits="userSpaceOnUse" x="115.4" y="15.8" width="16.5" height="4.6">
										<feColorMatrix type="matrix" values="1 0 0 0 0  0 1 0 0 0  0 0 1 0 0  0 0 0 1 0"/>
									</filter>
								</defs>

									<mask maskUnits="userSpaceOnUse" x="115.4" y="15.8" width="16.5" height="4.6" id="mask-3_00000165199866881048082500000009597404046169741972_">
									<g style="filter:url(#Adobe_OpacityMaskFilter_00000062891123052617203050000005762820581340912260_);">
										<path id="path-2_00000150079739122451879890000014094903152043484053_" class="st4" d="M5.8,0h180.6            c3.2,0,5.8,2.6,5.8,5.8V145c0,3.2-2.6,5.8-5.8,5.8H5.8c-3.2,0-5.8-2.6-5.8-5.8V5.8C0,2.6,2.6,0,5.8,0z"/>
									</g>
								</mask>
								<path id="Rectangle-7-Copy-11" class="st7" d="M117.7,15.8h11.9c1.3,0,2.3,1,2.3,2.3c0,1.3-1,2.3-2.3,2.3h-11.9          c-1.3,0-2.3-1-2.3-2.3C115.4,16.8,116.4,15.8,117.7,15.8z"/>
								<defs>

										<filter id="Adobe_OpacityMaskFilter_00000088130296395328106000000012780578390293591981_" filterUnits="userSpaceOnUse" x="137.3" y="15.8" width="16.5" height="4.6">
										<feColorMatrix type="matrix" values="1 0 0 0 0  0 1 0 0 0  0 0 1 0 0  0 0 0 1 0"/>
									</filter>
								</defs>

									<mask maskUnits="userSpaceOnUse" x="137.3" y="15.8" width="16.5" height="4.6" id="mask-3_00000175283434726788865440000001041956463262102925_">
									<g style="filter:url(#Adobe_OpacityMaskFilter_00000088130296395328106000000012780578390293591981_);">
										<path id="path-2_00000016076911637499181900000010193330800269158531_" class="st4" d="M5.8,0h180.6            c3.2,0,5.8,2.6,5.8,5.8V145c0,3.2-2.6,5.8-5.8,5.8H5.8c-3.2,0-5.8-2.6-5.8-5.8V5.8C0,2.6,2.6,0,5.8,0z"/>
									</g>
								</mask>
								<path id="Rectangle-7-Copy-12" class="st9" d="M139.6,15.8h11.9c1.3,0,2.3,1,2.3,2.3c0,1.3-1,2.3-2.3,2.3h-11.9          c-1.3,0-2.3-1-2.3-2.3C137.3,16.8,138.4,15.8,139.6,15.8z"/>
								<defs>

										<filter id="Adobe_OpacityMaskFilter_00000041264246153472483110000012377886877029301402_" filterUnits="userSpaceOnUse" x="159.3" y="15.8" width="16.5" height="4.6">
										<feColorMatrix type="matrix" values="1 0 0 0 0  0 1 0 0 0  0 0 1 0 0  0 0 0 1 0"/>
									</filter>
								</defs>

									<mask maskUnits="userSpaceOnUse" x="159.3" y="15.8" width="16.5" height="4.6" id="mask-3_00000072268472928884394420000017087029651943060625_">
									<g style="filter:url(#Adobe_OpacityMaskFilter_00000041264246153472483110000012377886877029301402_);">
										<path id="path-2_00000063627436255099940950000014898320875724996536_" class="st4" d="M5.8,0h180.6            c3.2,0,5.8,2.6,5.8,5.8V145c0,3.2-2.6,5.8-5.8,5.8H5.8c-3.2,0-5.8-2.6-5.8-5.8V5.8C0,2.6,2.6,0,5.8,0z"/>
									</g>
								</mask>
								<path id="Rectangle-7-Copy-13" class="st11" d="M161.6,15.8h11.9c1.3,0,2.3,1,2.3,2.3c0,1.3-1,2.3-2.3,2.3h-11.9          c-1.3,0-2.3-1-2.3-2.3C159.3,16.8,160.3,15.8,161.6,15.8z"/>
								<defs>

										<filter id="Adobe_OpacityMaskFilter_00000150061908192452535560000004584185983561532296_" filterUnits="userSpaceOnUse" x="107.1" y="31.6" width="68.7" height="34.3">
										<feColorMatrix type="matrix" values="1 0 0 0 0  0 1 0 0 0  0 0 1 0 0  0 0 0 1 0"/>
									</filter>
								</defs>

									<mask maskUnits="userSpaceOnUse" x="107.1" y="31.6" width="68.7" height="34.3" id="mask-3_00000016053076734738230130000001704212233476067244_">
									<g style="filter:url(#Adobe_OpacityMaskFilter_00000150061908192452535560000004584185983561532296_);">
										<path id="path-2_00000054952369875769540310000011538828245069301931_" class="st4" d="M5.8,0h180.6            c3.2,0,5.8,2.6,5.8,5.8V145c0,3.2-2.6,5.8-5.8,5.8H5.8c-3.2,0-5.8-2.6-5.8-5.8V5.8C0,2.6,2.6,0,5.8,0z"/>
									</g>
								</mask>
								<path id="Rectangle" class="st13" d="M111.8,31.6h59.3c2.6,0,4.7,2.1,4.7,4.7v25c0,2.6-2.1,4.7-4.7,4.7h-59.3          c-2.6,0-4.7-2.1-4.7-4.7v-25C107.1,33.7,109.2,31.6,111.8,31.6z"/>
								<defs>

										<filter id="Adobe_OpacityMaskFilter_00000057115835612511102380000010432221575508595616_" filterUnits="userSpaceOnUse" x="107.1" y="105.5" width="68.7" height="34.3">
										<feColorMatrix type="matrix" values="1 0 0 0 0  0 1 0 0 0  0 0 1 0 0  0 0 0 1 0"/>
									</filter>
								</defs>

									<mask maskUnits="userSpaceOnUse" x="107.1" y="105.5" width="68.7" height="34.3" id="mask-3_00000062910566002838430340000013988184203869602994_">
									<g style="filter:url(#Adobe_OpacityMaskFilter_00000057115835612511102380000010432221575508595616_);">
										<path id="path-2_00000101084665570947715170000014067402075365660861_" class="st4" d="M5.8,0h180.6            c3.2,0,5.8,2.6,5.8,5.8V145c0,3.2-2.6,5.8-5.8,5.8H5.8c-3.2,0-5.8-2.6-5.8-5.8V5.8C0,2.6,2.6,0,5.8,0z"/>
									</g>
								</mask>
								<path id="Rectangle-Copy-4" class="st15" d="M111.8,105.5h59.3c2.6,0,4.7,2.1,4.7,4.7v25c0,2.6-2.1,4.7-4.7,4.7h-59.3          c-2.6,0-4.7-2.1-4.7-4.7v-25C107.1,107.6,109.2,105.5,111.8,105.5z"/>
								<defs>

										<filter id="Adobe_OpacityMaskFilter_00000090265566119643102110000011695738175546949512_" filterUnits="userSpaceOnUse" x="16.5" y="70.7" width="68.7" height="29.5">
										<feColorMatrix type="matrix" values="1 0 0 0 0  0 1 0 0 0  0 0 1 0 0  0 0 0 1 0"/>
									</filter>
								</defs>

									<mask maskUnits="userSpaceOnUse" x="16.5" y="70.7" width="68.7" height="29.5" id="mask-3_00000066512662957684252840000014634288580174336446_">
									<g style="filter:url(#Adobe_OpacityMaskFilter_00000090265566119643102110000011695738175546949512_);">
										<path id="path-2_00000082351225369494384600000013782038309570305431_" class="st4" d="M5.8,0h180.6            c3.2,0,5.8,2.6,5.8,5.8V145c0,3.2-2.6,5.8-5.8,5.8H5.8c-3.2,0-5.8-2.6-5.8-5.8V5.8C0,2.6,2.6,0,5.8,0z"/>
									</g>
								</mask>
								<path id="Rectangle-Copy" class="st17" d="M21.1,70.7h59.3c2.6,0,4.7,2.1,4.7,4.7v20.2c0,2.6-2.1,4.7-4.7,4.7H21.1          c-2.6,0-4.7-2.1-4.7-4.7V75.4C16.5,72.8,18.6,70.7,21.1,70.7z"/>
								<defs>

										<filter id="Adobe_OpacityMaskFilter_00000017493330614568753110000012373335792105189562_" filterUnits="userSpaceOnUse" x="16.5" y="41.2" width="68.7" height="88.9">
										<feColorMatrix type="matrix" values="1 0 0 0 0  0 1 0 0 0  0 0 1 0 0  0 0 0 1 0"/>
									</filter>
								</defs>

									<mask maskUnits="userSpaceOnUse" x="16.5" y="41.2" width="68.7" height="88.9" id="mask-3_00000159453406047459456990000017699588239692547252_">
									<g style="filter:url(#Adobe_OpacityMaskFilter_00000017493330614568753110000012373335792105189562_);">
										<path id="path-2_00000167389041680551572540000009576272959508154533_" class="st4" d="M5.8,0h180.6            c3.2,0,5.8,2.6,5.8,5.8V145c0,3.2-2.6,5.8-5.8,5.8H5.8c-3.2,0-5.8-2.6-5.8-5.8V5.8C0,2.6,2.6,0,5.8,0z"/>
									</g>
								</mask>
								<g id="Group-7" class="st19">
									<g transform="translate(16.479426, 41.198565)">
										<path id="Rectangle-7" class="st20" d="M2.3,0h11.9c1.3,0,2.3,1,2.3,2.3s-1,2.3-2.3,2.3H2.3C1,4.6,0,3.6,0,2.3S1,0,2.3,0z            "/>
										<path id="Rectangle-7-Copy-5" class="st20" d="M2.3,73.9h11.9c1.3,0,2.3,1,2.3,2.3s-1,2.3-2.3,2.3H2.3            c-1.3,0-2.3-1-2.3-2.3S1,73.9,2.3,73.9z"/>
										<path id="Rectangle-7-Copy-4" class="st20" d="M20.8,0h45.5c1.3,0,2.3,1,2.3,2.3l0,0c0,1.3-1,2.3-2.3,2.3H20.8            c-1.3,0-2.3-1-2.3-2.3l0,0C18.5,1,19.6,0,20.8,0z"/>
										<path id="Rectangle-7-Copy-6" class="st20" d="M20.8,73.9h45.5c1.3,0,2.3,1,2.3,2.3l0,0c0,1.3-1,2.3-2.3,2.3H20.8            c-1.3,0-2.3-1-2.3-2.3l0,0C18.5,74.9,19.6,73.9,20.8,73.9z"/>
										<path id="Rectangle-7-Copy" class="st20" d="M2.3,10.4h64.1c1.3,0,2.3,1,2.3,2.3s-1,2.3-2.3,2.3H2.3C1,15,0,13.9,0,12.7            S1,10.4,2.3,10.4z"/>
										<path id="Rectangle-7-Copy-7" class="st20" d="M2.3,84.3h64.1c1.3,0,2.3,1,2.3,2.3s-1,2.3-2.3,2.3H2.3            c-1.3,0-2.3-1-2.3-2.3S1,84.3,2.3,84.3z"/>
									</g>
								</g>
								<defs>

										<filter id="Adobe_OpacityMaskFilter_00000148622603163729796990000010485775439870738320_" filterUnits="userSpaceOnUse" x="107.1" y="80.3" width="68.7" height="15">
										<feColorMatrix type="matrix" values="1 0 0 0 0  0 1 0 0 0  0 0 1 0 0  0 0 0 1 0"/>
									</filter>
								</defs>

									<mask maskUnits="userSpaceOnUse" x="107.1" y="80.3" width="68.7" height="15" id="mask-3_00000006668787947112579080000005840887286763602614_">
									<g style="filter:url(#Adobe_OpacityMaskFilter_00000148622603163729796990000010485775439870738320_);">
										<path id="path-2_00000179625908235130862390000002937486540848392862_" class="st4" d="M5.8,0h180.6            c3.2,0,5.8,2.6,5.8,5.8V145c0,3.2-2.6,5.8-5.8,5.8H5.8c-3.2,0-5.8-2.6-5.8-5.8V5.8C0,2.6,2.6,0,5.8,0z"/>
									</g>
								</mask>
								<g id="Group-6" class="st22">
									<g transform="translate(107.116268, 80.337201)">
										<path id="Rectangle-7-Copy-2" class="st20" d="M2.3,0h25.6c1.3,0,2.3,1,2.3,2.3s-1,2.3-2.3,2.3H2.3C1,4.6,0,3.6,0,2.3            S1,0,2.3,0z"/>
										<path id="Rectangle-7-Copy-3" class="st20" d="M34.6,0h31.8c1.3,0,2.3,1,2.3,2.3l0,0c0,1.3-1,2.3-2.3,2.3H34.6            c-1.3,0-2.3-1-2.3-2.3l0,0C32.3,1,33.3,0,34.6,0z"/>
										<path id="Rectangle-7-Copy-9" class="st20" d="M2.3,10.4h11.9c1.3,0,2.3,1,2.3,2.3s-1,2.3-2.3,2.3H2.3C1,15,0,13.9,0,12.7            S1,10.4,2.3,10.4z"/>
										<path id="Rectangle-7-Copy-8" class="st20" d="M20.8,10.4h45.5c1.3,0,2.3,1,2.3,2.3l0,0c0,1.3-1,2.3-2.3,2.3H20.8            c-1.3,0-2.3-1-2.3-2.3l0,0C18.5,11.4,19.6,10.4,20.8,10.4z"/>
									</g>
								</g>
							</g>
							<circle id="Oval" class="st23" cx="6.2" cy="4.8" r="2.1"/>
							<circle id="Oval-Copy" class="st24" cx="14.4" cy="4.8" r="2.1"/>
							<circle id="Oval-Copy-2" class="st25" cx="22.7" cy="4.8" r="2.1"/>
						</g>
						<g id="Group-12" transform="translate(0.285178, 69.925704)">
							<path id="Rectangle-2" class="st26" d="M1.5,0h231.7c0.9,0,1.5,0.7,1.5,1.5l0,0c0,0.9-0.7,1.5-1.5,1.5H1.5         C0.7,3.1,0,2.4,0,1.5l0,0C0,0.7,0.7,0,1.5,0z"/>

								<linearGradient id="Rectangle-3_00000032634729673075341710000011696075420877797281_" gradientUnits="userSpaceOnUse" x1="-274.8634" y1="263.1586" x2="-274.8634" y2="263.9726" gradientTransform="matrix(220.0003 0 0 -16.671 60586.832 4403.7866)">
								<stop offset="0" style="stop-color:#A0AAF8;stop-opacity:0"/>
								<stop offset="1" style="stop-color:#5468FF;stop-opacity:0.4"/>
							</linearGradient>

								<rect id="Rectangle-3" x="6.8" y="3.1" style="fill:url(#Rectangle-3_00000032634729673075341710000011696075420877797281_);" width="220" height="16.7"/>
						</g>
					</g>
					<g id="Group_00000156586552057449597070000002225173824172982407_" transform="translate(165.011827, 0.000000)" class="st28">
						<g id="Oval_00000046307235618136631420000013000862710900980890_">
							<circle class="st29" cx="45.9" cy="45.9" r="45.9"/>
						</g>
						<g id="Oval_00000005234926992646700840000014170554399988965539_">

							<g>

									<ellipse id="path-7_00000123411258896370170430000013081776358229467274_" class="st30" cx="45.9" cy="46" rx="35" ry="34.8"/>
							</g>
						</g>
						<g id="Group-3_00000135658316144952742100000005092347864974644875_" transform="translate(3.810651, 3.810651)">
							<g id="Group_00000098209655027976997820000001943724830376681604_" transform="translate(41.644970, 0.000000)">
								<g id="Group_00000085216568993569678700000012956223892065108115_" transform="translate(0.000000, 0.272189)">
									<path id="Rectangle_00000026160521233739554320000008967926949433303685_" class="st4" d="M0.5,0L0.5,0           c0.4,0,0.6,0.2,0.6,0.5v0.9c0,0.3-0.2,0.5-0.5,0.5H0.5C0.2,1.9,0,1.7,0,1.4V0.5C0,0.2,0.2,0,0.5,0z"/>
									<path id="Rectangle-Copy-2_00000114058298607903720890000013711195484230348726_" class="st4" d="M0.5,81.7L0.5,81.7           c0.4,0,0.6,0.2,0.6,0.5v0.9c0,0.3-0.2,0.5-0.5,0.5H0.5c-0.3,0-0.5-0.2-0.5-0.5v-0.9C0,81.9,0.2,81.7,0.5,81.7z"/>
								</g>
							</g>
							<g id="Group_00000170977511962527939990000003445157143112756099_" transform="translate(41.644970, 0.000000)">

									<g id="Mins-Copy_00000094608593421882600490000008585420180855939752_" transform="translate(0.544379, 42.053254) rotate(10.000000) translate(-0.544379, -42.053254) ">
									<g id="Group_00000084524803862693417700000011872568244704519090_" transform="translate(0.000000, 0.272189)">
										<path id="Rectangle_00000018947837413952500810000013867462519524009872_" class="st4" d="M0.5,0L0.5,0            c0.4,0,0.6,0.2,0.6,0.5l0,0.9c0,0.3-0.2,0.5-0.5,0.5H0.5C0.2,1.9,0,1.7,0,1.4l0-0.9C0,0.2,0.2,0,0.5,0z"/>
										<path id="Rectangle-Copy-2_00000011725882085576490630000000317840923794981769_" class="st4" d="M0.5,81.7L0.5,81.7            c0.4,0,0.6,0.2,0.6,0.5l0,0.9c0,0.3-0.2,0.5-0.5,0.5H0.5c-0.3,0-0.5-0.2-0.5-0.5l0-0.9C0,81.9,0.2,81.7,0.5,81.7z"/>
									</g>
								</g>
							</g>
							<g id="Group_00000109729282090252711550000011295244367970591639_" transform="translate(41.644970, 0.000000)">

									<g id="Mins-Copy-2_00000124860675999474042970000016544546307762523529_" transform="translate(0.544379, 42.053254) rotate(20.000000) translate(-0.544379, -42.053254) ">
									<g id="Group_00000119809689977786582610000015235265216980599449_" transform="translate(0.000000, 0.272189)">
										<path id="Rectangle_00000075880467784517509590000012062050534486759561_" class="st4" d="M0.5,0L0.5,0            c0.4,0,0.6,0.2,0.6,0.5l0,0.9c0,0.3-0.2,0.5-0.5,0.5H0.5C0.2,1.9,0,1.7,0,1.4l0-0.9C0,0.2,0.2,0,0.5,0z"/>
										<path id="Rectangle-Copy-2_00000153671319646899724690000009997028025519050662_" class="st4" d="M0.5,81.7L0.5,81.7            c0.4,0,0.6,0.2,0.6,0.5l0,0.9c0,0.3-0.2,0.5-0.5,0.5H0.5c-0.3,0-0.5-0.2-0.5-0.5l0-0.9C0,81.9,0.2,81.7,0.5,81.7z"/>
									</g>
								</g>
							</g>
							<g id="Group_00000057853288984919232030000001820280006946412957_" transform="translate(41.644970, 0.000000)">

									<g id="Mins-Copy-3_00000008848215897233421560000014574828172480395699_" transform="translate(0.544379, 42.053254) rotate(30.000000) translate(-0.544379, -42.053254) ">
									<g id="Group_00000103255806756460257840000013154699089602982308_" transform="translate(0.000000, 0.272189)">
										<path id="Rectangle_00000133530771482920564180000015741172314561064103_" class="st4" d="M0.5,0L0.5,0            c0.4,0,0.6,0.2,0.6,0.5l0,0.9c0,0.3-0.2,0.5-0.5,0.5H0.5C0.2,1.9,0,1.7,0,1.4l0-0.9C0,0.2,0.2,0,0.5,0z"/>
										<path id="Rectangle-Copy-2_00000147926260519399257280000012088401232131227789_" class="st4" d="M0.5,81.7L0.5,81.7            c0.4,0,0.6,0.2,0.6,0.5l0,0.9c0,0.3-0.2,0.5-0.5,0.5H0.5c-0.3,0-0.5-0.2-0.5-0.5l0-0.9C0,81.9,0.2,81.7,0.5,81.7z"/>
									</g>
								</g>
							</g>
							<g id="Group_00000020383800002404191620000001423286736601826468_" transform="translate(41.644970, 0.000000)">

									<g id="Mins-Copy-4_00000050637597547060658480000006262384634976699790_" transform="translate(0.544379, 42.053254) rotate(40.000000) translate(-0.544379, -42.053254) ">
									<g id="Group_00000103259507197554090130000006768125859473691833_" transform="translate(0.000000, 0.272189)">
										<path id="Rectangle_00000113343290627059319800000003239601165133131937_" class="st4" d="M0.5,0L0.5,0            c0.4,0,0.6,0.2,0.6,0.5l0,0.9c0,0.3-0.2,0.5-0.5,0.5l-0.1,0C0.2,1.9,0,1.7,0,1.4l0-0.9C0,0.2,0.2,0,0.5,0z"/>
										<path id="Rectangle-Copy-2_00000126323809140156480670000010072449702705781632_" class="st4" d="M0.5,81.7L0.5,81.7            c0.4,0,0.6,0.2,0.6,0.5l0,0.9c0,0.3-0.2,0.5-0.5,0.5H0.5c-0.3,0-0.5-0.2-0.5-0.5l0-0.9C0,81.9,0.2,81.7,0.5,81.7z"/>
									</g>
								</g>
							</g>
							<g id="Group_00000131330137883184401140000002140746797654588346_" transform="translate(41.644970, 0.000000)">

									<g id="Mins-Copy-5_00000064328498364136142220000017035132428216591767_" transform="translate(0.544379, 42.053254) rotate(50.000000) translate(-0.544379, -42.053254) ">
									<g id="Group_00000105392778639349424160000018265563820052585357_" transform="translate(0.000000, 0.272189)">
										<path id="Rectangle_00000116917754465229081830000013413633710641381802_" class="st4" d="M0.5,0L0.5,0            c0.4,0,0.6,0.2,0.6,0.5l0,0.9c0,0.3-0.2,0.5-0.5,0.5H0.5C0.2,1.9,0,1.7,0,1.4l0-0.9C0,0.2,0.2,0,0.5,0z"/>
										<path id="Rectangle-Copy-2_00000157287167009390118240000008480073142786731153_" class="st4" d="M0.5,81.7L0.5,81.7            c0.4,0,0.6,0.2,0.6,0.5l0,0.9c0,0.3-0.2,0.5-0.5,0.5H0.5c-0.3,0-0.5-0.2-0.5-0.5l0-0.9C0,81.9,0.2,81.7,0.5,81.7z"/>
									</g>
								</g>
							</g>
							<g id="Group_00000013873851859538135030000017181610217133767561_" transform="translate(41.644970, 0.000000)">

									<g id="Mins-Copy-6_00000172415360424094914440000008392990574368801943_" transform="translate(0.544379, 42.053254) rotate(60.000000) translate(-0.544379, -42.053254) ">
									<g id="Group_00000133510833613692262860000005525384180214410909_" transform="translate(0.000000, 0.272189)">
										<path id="Rectangle_00000163765555053117499300000011369863780199732629_" class="st4" d="M0.5,0L0.5,0            c0.4,0,0.6,0.2,0.6,0.5l0,0.9c0,0.3-0.2,0.5-0.5,0.5l-0.1,0C0.2,1.9,0,1.7,0,1.4l0-0.9C0,0.2,0.2,0,0.5,0z"/>
										<path id="Rectangle-Copy-2_00000108992682953192074720000007104194755605324720_" class="st4" d="M0.5,81.7L0.5,81.7            c0.4,0,0.6,0.2,0.6,0.5l0,0.9c0,0.3-0.2,0.5-0.5,0.5H0.5c-0.3,0-0.5-0.2-0.5-0.5l0-0.9C0,81.9,0.2,81.7,0.5,81.7z"/>
									</g>
								</g>
							</g>
							<g id="Group_00000170987285585649572360000001877831895466890396_" transform="translate(41.644970, 0.000000)">

									<g id="Mins-Copy-7_00000034061684470157440670000003465795929665360554_" transform="translate(0.544379, 42.053254) rotate(70.000000) translate(-0.544379, -42.053254) ">
									<g id="Group_00000069381081384139758790000011898033824921625772_" transform="translate(0.000000, 0.272189)">
										<path id="Rectangle_00000113335226352251170490000010502554627874374070_" class="st4" d="M0.5,0L0.5,0            c0.4,0,0.6,0.2,0.6,0.5l0,0.9c0,0.3-0.2,0.5-0.5,0.5H0.5C0.2,1.9,0,1.7,0,1.4l0-0.9C0,0.2,0.2,0,0.5,0z"/>
										<path id="Rectangle-Copy-2_00000047027168735314996440000001219161880959684258_" class="st4" d="M0.5,81.7L0.5,81.7            c0.4,0,0.6,0.2,0.6,0.5l0,0.9c0,0.3-0.2,0.5-0.5,0.5H0.5c-0.3,0-0.5-0.2-0.5-0.5l0-0.9C0,81.9,0.2,81.7,0.5,81.7z"/>
									</g>
								</g>
							</g>
							<g id="Group_00000170992663255796729840000003653491495991009203_" transform="translate(41.644970, 0.000000)">

									<g id="Mins-Copy-8_00000029753044653839812220000015659555589697276301_" transform="translate(0.544379, 42.053254) rotate(80.000000) translate(-0.544379, -42.053254) ">
									<g id="Group_00000011729742216568290600000003153222436498758529_" transform="translate(0.000000, 0.272189)">
										<path id="Rectangle_00000111898687949007816610000001506692723303693229_" class="st4" d="M0.5,0L0.5,0            c0.4,0,0.6,0.2,0.6,0.5l0,0.9c0,0.3-0.2,0.5-0.5,0.5H0.5C0.2,1.9,0,1.7,0,1.4l0-0.9C0,0.2,0.2,0,0.5,0z"/>
										<path id="Rectangle-Copy-2_00000016782832376894455360000009471684917960492205_" class="st4" d="M0.5,81.7L0.5,81.7            c0.4,0,0.6,0.2,0.6,0.5l0,0.9c0,0.3-0.2,0.5-0.5,0.5H0.5c-0.3,0-0.5-0.2-0.5-0.5l0-0.9C0,81.9,0.2,81.7,0.5,81.7z"/>
									</g>
								</g>
							</g>
							<g id="Group_00000175305172390996432920000014208551889687308691_" transform="translate(41.644970, 0.000000)">

									<g id="Mins-Copy-9_00000123403573867545782630000018418108568088924829_" transform="translate(0.544379, 42.053254) rotate(90.000000) translate(-0.544379, -42.053254) ">
									<g id="Group_00000050630570432831639730000012970386698127261371_" transform="translate(0.000000, 0.272189)">
										<path id="Rectangle_00000119833647467382377560000006375884931335005098_" class="st4" d="M0.5,0L0.5,0            c0.4,0,0.6,0.2,0.6,0.5v0.9c0,0.3-0.2,0.5-0.5,0.5H0.5C0.2,1.9,0,1.7,0,1.4V0.5C0,0.2,0.2,0,0.5,0z"/>
										<path id="Rectangle-Copy-2_00000033333450986182663770000006562811540348742046_" class="st4" d="M0.5,81.7L0.5,81.7            c0.4,0,0.6,0.2,0.6,0.5v0.9c0,0.3-0.2,0.5-0.5,0.5H0.5c-0.3,0-0.5-0.2-0.5-0.5v-0.9C0,81.9,0.2,81.7,0.5,81.7z"/>
									</g>
								</g>
							</g>
							<g id="Group_00000098223282555802810160000000474265202224812188_" transform="translate(41.644970, 0.000000)">

									<g id="Mins-Copy-10_00000101803049465990631360000002844600469132108726_" transform="translate(0.544379, 42.053254) rotate(100.000000) translate(-0.544379, -42.053254) ">
									<g id="Group_00000136408131483598775520000009939823745934412963_" transform="translate(0.000000, 0.272189)">
										<path id="Rectangle_00000133493067725484368060000012820757388016296882_" class="st4" d="M0.5,0L0.5,0            c0.4,0,0.6,0.2,0.6,0.5l0,0.9c0,0.3-0.2,0.5-0.5,0.5H0.5C0.2,1.9,0,1.7,0,1.4l0-0.9C0,0.2,0.2,0,0.5,0z"/>
										<path id="Rectangle-Copy-2_00000178204499909732246790000016683235909504243104_" class="st4" d="M0.5,81.7L0.5,81.7            c0.4,0,0.6,0.2,0.6,0.5l0,0.9c0,0.3-0.2,0.5-0.5,0.5H0.5c-0.3,0-0.5-0.2-0.5-0.5l0-0.9C0,81.9,0.2,81.7,0.5,81.7z"/>
									</g>
								</g>
							</g>
							<g id="Group_00000047770918822051587270000006796807335066601151_" transform="translate(41.644970, 0.000000)">

									<g id="Mins-Copy-11_00000054264583957369481130000014416904486743673772_" transform="translate(0.544379, 42.053254) rotate(110.000000) translate(-0.544379, -42.053254) ">
									<g id="Group_00000062873786900268721570000005426527665229735089_" transform="translate(0.000000, 0.272189)">
										<path id="Rectangle_00000137106706891630932420000000064872665699195029_" class="st4" d="M0.5,0L0.5,0            c0.4,0,0.6,0.2,0.6,0.5l0,0.9c0,0.3-0.2,0.5-0.5,0.5H0.5C0.2,1.9,0,1.7,0,1.4l0-0.9C0,0.2,0.2,0,0.5,0z"/>
										<path id="Rectangle-Copy-2_00000173156321781676626150000005370760833420630156_" class="st4" d="M0.5,81.7L0.5,81.7            c0.4,0,0.6,0.2,0.6,0.5l0,0.9c0,0.3-0.2,0.5-0.5,0.5H0.5c-0.3,0-0.5-0.2-0.5-0.5l0-0.9C0,81.9,0.2,81.7,0.5,81.7z"/>
									</g>
								</g>
							</g>
							<g id="Group_00000129901075591376867510000016041003745914712486_" transform="translate(41.644970, 0.000000)">

									<g id="Mins-Copy-12_00000091721057390148255640000015485641741351241371_" transform="translate(0.544379, 42.053254) rotate(120.000000) translate(-0.544379, -42.053254) ">
									<g id="Group_00000135654302915587187230000005404778668405231236_" transform="translate(0.000000, 0.272189)">
										<path id="Rectangle_00000106133197785354961090000006312925576655821707_" class="st4" d="M0.5,0L0.5,0            c0.4,0,0.6,0.2,0.6,0.5l0,0.9c0,0.3-0.2,0.5-0.5,0.5l-0.1,0C0.2,1.9,0,1.7,0,1.4l0-0.9C0,0.2,0.2,0,0.5,0z"/>
										<path id="Rectangle-Copy-2_00000052815498592418518460000009884475763587224245_" class="st4" d="M0.5,81.7L0.5,81.7            c0.4,0,0.6,0.2,0.6,0.5l0,0.9c0,0.3-0.2,0.5-0.5,0.5H0.5c-0.3,0-0.5-0.2-0.5-0.5l0-0.9C0,81.9,0.2,81.7,0.5,81.7z"/>
									</g>
								</g>
							</g>
							<g id="Group_00000029740452847654782570000000856932591812680116_" transform="translate(41.644970, 0.000000)">

									<g id="Mins-Copy-13_00000144315828202000195430000000675177653465518501_" transform="translate(0.544379, 42.053254) rotate(130.000000) translate(-0.544379, -42.053254) ">
									<g id="Group_00000101784366493774834630000007028266546641023140_" transform="translate(0.000000, 0.272189)">
										<path id="Rectangle_00000013886642705647782330000002745173851380940711_" class="st4" d="M0.5,0L0.5,0            c0.4,0,0.6,0.2,0.6,0.5l0,0.9c0,0.3-0.2,0.5-0.5,0.5l-0.1,0C0.2,1.9,0,1.7,0,1.4l0-0.9C0,0.2,0.2,0,0.5,0z"/>
										<path id="Rectangle-Copy-2_00000181785471041389609590000002789216519635560363_" class="st4" d="M0.5,81.7L0.5,81.7            c0.4,0,0.6,0.2,0.6,0.5l0,0.9c0,0.3-0.2,0.5-0.5,0.5H0.5c-0.3,0-0.5-0.2-0.5-0.5l0-0.9C0,81.9,0.2,81.7,0.5,81.7z"/>
									</g>
								</g>
							</g>
							<g id="Group_00000062889953889382634480000004960490111143990700_" transform="translate(41.644970, 0.000000)">

									<g id="Mins-Copy-14_00000083070225095236376140000008728656604361572784_" transform="translate(0.544379, 42.053254) rotate(140.000000) translate(-0.544379, -42.053254) ">
									<g id="Group_00000158747835398950789320000002594170482851359126_" transform="translate(0.000000, 0.272189)">
										<path id="Rectangle_00000093153360839181399170000015557938998822238357_" class="st4" d="M0.5,0L0.5,0            c0.4,0,0.6,0.2,0.6,0.5l0,0.9c0,0.3-0.2,0.5-0.5,0.5H0.5C0.2,1.9,0,1.7,0,1.4l0-0.9C0,0.2,0.2,0,0.5,0z"/>
										<path id="Rectangle-Copy-2_00000115491943137764651260000016829999123924835974_" class="st4" d="M0.5,81.7L0.5,81.7            c0.4,0,0.6,0.2,0.6,0.5l0,0.9c0,0.3-0.2,0.5-0.5,0.5H0.5c-0.3,0-0.5-0.2-0.5-0.5l0-0.9C0,81.9,0.2,81.7,0.5,81.7z"/>
									</g>
								</g>
							</g>
							<g id="Group_00000033365451678471508370000011307371032095250099_" transform="translate(41.644970, 0.000000)">

									<g id="Mins-Copy-15_00000131336165929352310110000015462618352294502073_" transform="translate(0.544379, 42.053254) rotate(150.000000) translate(-0.544379, -42.053254) ">
									<g id="Group_00000089576017772537213510000013140754327505600694_" transform="translate(0.000000, 0.272189)">
										<path id="Rectangle_00000090992762781241614420000006067334393808143037_" class="st4" d="M0.5,0L0.5,0            c0.4,0,0.6,0.2,0.6,0.5l0,0.9c0,0.3-0.2,0.5-0.5,0.5H0.5C0.2,1.9,0,1.7,0,1.4l0-0.9C0,0.2,0.2,0,0.5,0z"/>
										<path id="Rectangle-Copy-2_00000132777062002419519480000002985755610057866425_" class="st4" d="M0.5,81.7L0.5,81.7            c0.4,0,0.6,0.2,0.6,0.5l0,0.9c0,0.3-0.2,0.5-0.5,0.5H0.5c-0.3,0-0.5-0.2-0.5-0.5l0-0.9C0,81.9,0.2,81.7,0.5,81.7z"/>
									</g>
								</g>
							</g>
							<g id="Group_00000045592418580364937130000013557200649018673325_" transform="translate(41.644970, 0.000000)">

									<g id="Mins-Copy-16_00000150796352082510905660000009566821796974503357_" transform="translate(0.544379, 42.053254) rotate(160.000000) translate(-0.544379, -42.053254) ">
									<g id="Group_00000152971091551351783970000008659557035387032740_" transform="translate(0.000000, 0.272189)">
										<path id="Rectangle_00000029762126484442838930000003238091233966240925_" class="st4" d="M0.5,0L0.5,0            c0.4,0,0.6,0.2,0.6,0.5l0,0.9c0,0.3-0.2,0.5-0.5,0.5H0.5C0.2,1.9,0,1.7,0,1.4l0-0.9C0,0.2,0.2,0,0.5,0z"/>
										<path id="Rectangle-Copy-2_00000137128565035396752600000005752794827443761064_" class="st4" d="M0.5,81.7L0.5,81.7            c0.4,0,0.6,0.2,0.6,0.5l0,0.9c0,0.3-0.2,0.5-0.5,0.5H0.5c-0.3,0-0.5-0.2-0.5-0.5l0-0.9C0,81.9,0.2,81.7,0.5,81.7z"/>
									</g>
								</g>
							</g>
						</g>
						<g id="Mins-Copy-17_00000090272665387324132770000014251895656309138069_" transform="translate(45.455621, 3.810651)">
							<g transform="translate(0.544379, 42.053254) rotate(170.000000) translate(-0.544379, -42.053254) ">
								<g id="Group_00000136377282216688184260000000274637780622609571_" transform="translate(0.000000, 0.272189)">
									<path id="Rectangle_00000134252015503841096210000011769276273678971012_" class="st4" d="M0.5,0L0.5,0           c0.4,0,0.6,0.2,0.6,0.5l0,0.9c0,0.3-0.2,0.5-0.5,0.5H0.5C0.2,1.9,0,1.7,0,1.4l0-0.9C0,0.2,0.2,0,0.5,0z"/>
									<path id="Rectangle-Copy-2_00000070836530155079471110000017490824145068078008_" class="st4" d="M0.5,81.7L0.5,81.7           c0.4,0,0.6,0.2,0.6,0.5l0,0.9c0,0.3-0.2,0.5-0.5,0.5H0.5c-0.3,0-0.5-0.2-0.5-0.5l0-0.9C0,81.9,0.2,81.7,0.5,81.7z"/>
								</g>
							</g>
						</g>
					</g>
				</g>
			</g>
		</g>
	</g>
</g>
<g id="Layer_2">

		<linearGradient id="SVGID_1_" gradientUnits="userSpaceOnUse" x1="-33.6888" y1="290.2734" x2="-43.2878" y2="299.8724" gradientTransform="matrix(2 0 0 -2 276 671.5511)">
		<stop offset="0.108" style="stop-color:#0D7044"/>
		<stop offset="0.433" style="stop-color:#11945A"/>
	</linearGradient>
	<path class="st31" d="M203.6,93.4l-16.3-16.3c-0.8-0.8-0.8-2.2,0-3l4.4-4.4c0.8-0.8,2.2-0.8,3,0L211,86c0.8,0.8,0.8,2.2,0,3   l-4.4,4.4C205.8,94.2,204.4,94.2,203.6,93.4z"/>

		<linearGradient id="SVGID_00000000218622018563171280000004066526191366786472_" gradientUnits="userSpaceOnUse" x1="-365.4001" y1="603.0586" x2="-342.5288" y2="603.0586" gradientTransform="matrix(-1.4142 1.4142 1.4142 1.4142 -1135.861 -277.2327)">
		<stop offset="0" style="stop-color:#2AC782"/>
		<stop offset="1" style="stop-color:#21B876"/>
	</linearGradient>
	<path style="fill:url(#SVGID_00000000218622018563171280000004066526191366786472_);" d="M199.2,86l29.3-29.3c0.8-0.8,2.2-0.8,3,0   l4.4,4.4c0.8,0.8,0.8,2.2,0,3l-29.3,29.3c-0.8,0.8-2.2,0.8-3,0l-4.4-4.4C198.4,88.2,198.4,86.8,199.2,86z"/>
</g>
</svg>