<svg id="Layer_1" data-name="Layer 1" xmlns="http://www.w3.org/2000/svg" width="218.01mm" height="148.33mm" viewBox="0 0 617.99 420.47">
  <defs>
    <style>
      .cls-1 {
        fill: #ebebeb;
      }

      .cls-2 {
        fill: #39ce3f;
      }

      .cls-3, .cls-5 {
        fill: #fff;
      }

      .cls-3, .cls-4 {
        isolation: isolate;
      }

      .cls-3 {
        opacity: 0.5;
      }

      .cls-4 {
        opacity: 0.1;
      }
    </style>
  </defs>
  <g id="freepik--background-complete--inject-3">
    <path class="cls-1" d="M10.61,235.1a3.14,3.14,0,0,1,3.24,0c.27.17.54.33.83.48l.86.43a3.09,3.09,0,0,1,1.8,2.68l.13,4,13-.4-.12-4A3.08,3.08,0,0,1,32,235.5a16.33,16.33,0,0,0,1.64-1,3.11,3.11,0,0,1,3.22-.21l3.51,1.88,6.13-11.44L43,222.85a3.08,3.08,0,0,1-1.61-2.8c0-.64,0-1.29-.06-1.93a3.09,3.09,0,0,1,1.4-2.89l3.38-2.1-6.84-11-3.4,2.1a3.08,3.08,0,0,1-3.23,0c-.27-.17-.55-.33-.83-.48l-.85-.52a3.07,3.07,0,0,1-1.81-2.68l-.12-4L16,197l.13,4a3.08,3.08,0,0,1-1.63,2.8c-.56.32-1.11.65-1.65,1a3.07,3.07,0,0,1-3.22.21l-3.5-1.88L0,214.52l3.54,1.91a3.08,3.08,0,0,1,1.61,2.8c0,.65,0,1.3.06,1.94a3,3,0,0,1-1.43,2.9L.4,226.17l6.85,11Zm3.25-20.49A10.63,10.63,0,1,1,18.21,229,10.62,10.62,0,0,1,13.86,214.61Z"/>
    <path class="cls-1" d="M505.37,53.09a2.17,2.17,0,0,1,2-1.06h1.34a2.17,2.17,0,0,1,2,1.06l1.4,2.41L520,51l-1.4-2.42a2.16,2.16,0,0,1,.08-2.27,9.65,9.65,0,0,0,.68-1.17,2.19,2.19,0,0,1,1.92-1.19h2.79v-9.1h-2.79a2.16,2.16,0,0,1-1.92-1.19c-.21-.4-.43-.79-.68-1.18a2.12,2.12,0,0,1-.08-2.26l1.4-2.42-7.87-4.53-1.4,2.42a2.15,2.15,0,0,1-2,1.06h-1.34a2.16,2.16,0,0,1-2-1.06L504,23.23l-7.88,4.54,1.4,2.41a2.16,2.16,0,0,1-.08,2.27,11.61,11.61,0,0,0-.68,1.18,2.16,2.16,0,0,1-1.92,1.19H492v9.1h2.79a2.19,2.19,0,0,1,1.92,1.19,9.78,9.78,0,0,0,.68,1.18,2.16,2.16,0,0,1,.08,2.27L496.1,51,504,55.51ZM500.6,39.36a7.45,7.45,0,1,1,7.45,7.45A7.46,7.46,0,0,1,500.6,39.36Z"/>
    <path class="cls-1" d="M47.11,272.89a2.18,2.18,0,0,1,1.06,2v1.35a2.17,2.17,0,0,1-1,2l-2.42,1.39,4.54,7.88,2.42-1.39a2.18,2.18,0,0,1,2.27.08c.38.24.77.47,1.17.67a2.17,2.17,0,0,1,1.19,1.93v2.78h9.1V288.8a2.2,2.2,0,0,1,1.2-1.93c.4-.2.79-.43,1.17-.67a2.16,2.16,0,0,1,2.26-.08l2.42,1.39L77,279.63l-2.5-1.4a2.13,2.13,0,0,1-1.05-2v-1.34a2.18,2.18,0,0,1,1.06-2l2.42-1.4-4.55-7.87L70,265a2.14,2.14,0,0,1-2.27-.08c-.37-.24-.77-.47-1.17-.68a2.14,2.14,0,0,1-1.2-1.92v-2.78h-9.1v2.78a2.13,2.13,0,0,1-1.19,1.92c-.41.21-.8.44-1.18.68a2.14,2.14,0,0,1-2.27.08l-2.41-1.39-4.54,7.87Zm13.73-4.78a7.45,7.45,0,1,1-7.45,7.45A7.46,7.46,0,0,1,60.84,268.11Z"/>
    <circle class="cls-1" cx="409.38" cy="358.04" r="24.5"/>
    <circle class="cls-1" cx="256.16" cy="57.71" r="24.5"/>
    <circle class="cls-1" cx="159.38" cy="206.39" r="10.45"/>
    <circle class="cls-1" cx="571.56" cy="207.88" r="10.45"/>
    <rect class="cls-1" x="221.12" y="150.58" width="2" height="115.53" transform="matrix(0.02, -1, 1, 0.02, 9.38, 426.26)"/>
    <rect class="cls-1" x="364.46" y="198.45" width="2" height="171.67" transform="translate(-94 227.07) rotate(-30.78)"/>
    <rect class="cls-1" x="288.77" y="58" width="2" height="130.34" transform="translate(-24.82 136.25) rotate(-25.41)"/>
    <rect class="cls-1" x="349.01" y="206.88" width="222.54" height="2"/>
    <circle class="cls-1" cx="176.87" cy="15.72" r="6.97"/>
    <path class="cls-1" d="M158.67,31.17a7,7,0,1,1-7-7A7,7,0,0,1,158.67,31.17Z"/>
    <path class="cls-1" d="M183.83,46.63a7,7,0,1,1-7-7A7,7,0,0,1,183.83,46.63Z"/>
    <polygon class="cls-1" points="176.32 48.27 149.82 31.16 176.34 14.88 177.39 16.57 153.58 31.2 177.41 46.59 176.32 48.27"/>
  </g>
  <g id="freepik--Connectivity--inject-3">
    <rect class="cls-2" x="203.6" y="254.1" width="72.25" height="4" transform="translate(-97.68 160.11) rotate(-31.01)"/>
    <rect class="cls-2" x="334.97" y="108.96" width="71.01" height="4" transform="translate(79.44 365.63) rotate(-57.86)"/>
    <circle class="cls-2" cx="321.54" cy="204.99" r="76.02"/>
    <path class="cls-2" d="M140.54,397.38a81.65,81.65,0,1,1,81.6-81.7v.05A81.73,81.73,0,0,1,140.54,397.38Zm0-159.3a77.65,77.65,0,1,0,77.6,77.7v0a77.76,77.76,0,0,0-77.6-77.65Z"/>
    <circle class="cls-2" cx="140.49" cy="315.73" r="70.51" transform="translate(-182.11 191.81) rotate(-45)"/>
    <circle class="cls-3" cx="140.49" cy="315.73" r="70.51" transform="translate(-182.11 191.81) rotate(-45)"/>
    <circle class="cls-2" cx="403.83" cy="59.05" r="33.93"/>
    <circle class="cls-4" cx="403.83" cy="59.05" r="33.93"/>
    <rect class="cls-2" x="319.54" y="270.47" width="4" height="80.23"/>
    <circle class="cls-2" cx="321.54" cy="374.54" r="33.93"/>
    <circle class="cls-4" cx="321.54" cy="374.54" r="33.93"/>
  </g>
  <path class="cls-5" d="M170.61,312.53a8.61,8.61,0,1,1-7.67,12.52h-1.43c-8.43.1-11.41,2.66-16.14,11.49l-.26.52-.31.59c-2.82,5.28-4.42,7.67-7.3,10.21-4.05,3.55-9.28,5.37-16.2,5.37h-.94a8.61,8.61,0,1,1,0-7.83h1.43c8.59-.09,11.52-2.75,16.4-12h0l.33-.52a42.5,42.5,0,0,1,4.87-7.83h-23a8.62,8.62,0,1,1,0-7.82h42.58a8.67,8.67,0,0,1,7.32-4.7Zm0-31.74c4.75,0,8.61,5.85,8.61,10.61a8.61,8.61,0,0,1-16.28,3.91H120.36a8.61,8.61,0,1,1,0-7.83h42.58C164.41,284.6,167.37,280.79,170.61,280.79Z"/>
  <g>
    <path class="cls-5" d="M371.23,213l-6-3.44a42.78,42.78,0,0,0,0-9.05l6-3.44a5.5,5.5,0,0,0,2-7.51l-11.45-19.83a5.49,5.49,0,0,0-7.51-2l-6,3.44a42.15,42.15,0,0,0-7.82-4.53v-6.87a5.5,5.5,0,0,0-5.5-5.5h-22.9a5.5,5.5,0,0,0-5.5,5.5v6.87a42.15,42.15,0,0,0-7.82,4.53l-6-3.44a5.49,5.49,0,0,0-7.51,2l-11.45,19.83a5.5,5.5,0,0,0,2,7.51l5.95,3.44a42.78,42.78,0,0,0,0,9.05L275.85,213a5.5,5.5,0,0,0-2,7.51l11.45,19.83a5.49,5.49,0,0,0,7.51,2l6-3.45a41.64,41.64,0,0,0,7.82,4.54v6.87a5.5,5.5,0,0,0,5.5,5.5H335a5.51,5.51,0,0,0,5.5-5.5V243.4a41.64,41.64,0,0,0,7.82-4.54l6,3.45a5.49,5.49,0,0,0,7.51-2l11.45-19.83a5.5,5.5,0,0,0-2-7.51Zm-47.69,21.88A29.85,29.85,0,1,1,353.38,205,29.84,29.84,0,0,1,323.54,234.84Z"/>
    <path class="cls-5" d="M344.12,189.37a.54.54,0,0,0-.5.14l-5.39,5.4a9.2,9.2,0,0,1-2.64-2.08,9.06,9.06,0,0,1-2.09-2.64l5.39-5.4a.54.54,0,0,0,.13-.5.51.51,0,0,0-.35-.36,8.56,8.56,0,0,0-11,8.23,8.72,8.72,0,0,0,.7,3.37l-6.53,6.53-6.69-6.69,0,0-3.06-5.24a.66.66,0,0,0-.21-.23l-5.16-3.58a.73.73,0,0,0-.92.09l-2.29,2.3a.71.71,0,0,0-.09.91l3.58,5.16a.66.66,0,0,0,.23.21L312.5,198h0l6.69,6.7-5,5a8.62,8.62,0,0,0-3.38-.69,8.55,8.55,0,0,0-8.21,11,.49.49,0,0,0,.36.35.51.51,0,0,0,.5-.13l5.39-5.41a9.35,9.35,0,0,1,2.64,2.09,9.06,9.06,0,0,1,2.09,2.64l-5.39,5.4a.5.5,0,0,0-.13.49.5.5,0,0,0,.35.37,8.57,8.57,0,0,0,10.26-11.6l5-5,2.14,2.13-1.46,1.45a1.66,1.66,0,0,0-.49,1.19,1.62,1.62,0,0,0,.49,1.18l10.27,10.27a1.68,1.68,0,0,0,2.37,0l5.56-5.56a1.68,1.68,0,0,0,0-2.37l-10.27-10.27a1.67,1.67,0,0,0-2.36,0l-1.46,1.45-2.13-2.13,6.53-6.53a8.62,8.62,0,0,0,3.38.69h0a8.55,8.55,0,0,0,8.21-11A.52.52,0,0,0,344.12,189.37ZM331,210.87a.94.94,0,0,1,1.32,0l6.59,6.59a.94.94,0,0,1,0,1.33,1,1,0,0,1-1.33,0L331,212.2A.94.94,0,0,1,331,210.87Zm-3,3a.94.94,0,0,1,1.33,0l6.59,6.58a1,1,0,0,1,0,1.33.94.94,0,0,1-1.33,0L328,215.18A.94.94,0,0,1,328,213.86Z"/>
  </g>
  <path class="cls-5" d="M417,68.3c1.12-6.16-1.58-11.44-3-13.77a3.5,3.5,0,0,1-.56,0,9.13,9.13,0,0,1-1.56-.29c-.28-.09-.56-.19-.82-.3l.23.07a8.15,8.15,0,0,0,1.55.22,3.06,3.06,0,0,0,1.5-.26,7,7,0,0,0,1.74-1.2c-3.23-1.07-5.24-3.79-4.87-7.06a7.2,7.2,0,0,1,7.12-6.28h.2a16.39,16.39,0,0,0-1.67-1.51,16.17,16.17,0,0,0-12.05-3.51C396,35.53,392.43,43.55,392.25,44l.14-.12a4.37,4.37,0,0,1,1-.66,4.27,4.27,0,0,1,.81-.28,5.57,5.57,0,0,1,.66-.1,4.13,4.13,0,0,1,1.61.2h0a6.89,6.89,0,0,0-1,.49A8,8,0,0,0,394,44.63a7.91,7.91,0,0,0-2.17,4,8.66,8.66,0,0,1,1.46-1c.24-.13.5-.26.78-.38s.72-.27,1.05-.37.59-.15.86-.2l.74-.1h0a7,7,0,0,0-2,2c-.06.1-.13.19-.19.3v0a.75.75,0,0,0-.07.12,2.26,2.26,0,0,0-.11.22l-.05.1,0,.09,0,0,0,0v0l0,.08c0,.06-.05.12-.07.19a.36.36,0,0,1,0,.09l0,.09-.06.17c0,.05,0,.1,0,.15h0v0l0,.08,0,.12c0,.06,0,.11,0,.16s-.07.32-.1.48,0,.19,0,.28l0,.08h0v0s0,.06,0,.1a.28.28,0,0,0,0,.09v0a1.36,1.36,0,0,0,0,.2v0s0,0,0,0v.07h0v.11c0,.12,0,.23,0,.31l0,.27a4.19,4.19,0,0,1,.71-.55,4.82,4.82,0,0,1,.82-.41,4.14,4.14,0,0,1,.53-.19l.37-.1a5.6,5.6,0,0,1,.9-.12l.52.26A15.34,15.34,0,0,1,400.65,54,12.27,12.27,0,0,1,403,56.85c.06.11.12.23.19.34,3.63,6.59.73,15.75-4.76,20.75a16.8,16.8,0,0,1-3,2.19l-.11.06-.06,0-.14.07-.42.22-.1,0-.1,0-.18.09h0l-.26.11-.18.08-.22.09-.17.07-.18.06-.06,0h0l-.22.09h-.05l-.05,0-.21.08-.22.07-.08,0-.15,0-.11,0h0l-.05,0-.28.09h0l-.31.1c-.34.11-.68.2-1,.3h0l-1,.26h-.07l-.71.16.12,0h0a24.1,24.1,0,0,0,2.56.69l.31.08.25.06.32.07.21,0,.32.06.16,0,.36.06.32,0,.28,0,.19,0h.22l.27,0h0l.23,0h2l.64,0,.2,0,.57-.06.31,0h.05C407.33,82.37,415.65,75.58,417,68.3Z"/>
  <path class="cls-5" d="M385.39,52.46a8.75,8.75,0,0,0-1.69,1.62,3.48,3.48,0,0,1,.92-4.5,7.8,7.8,0,0,0-4.44,4.85,3.4,3.4,0,0,1-.56-1.47,3.63,3.63,0,0,1,.63-2.47,10.42,10.42,0,0,0-1.62,13.87,9.11,9.11,0,0,0,12.53.63,5.15,5.15,0,0,1-4.43-.77c-1.19-.93-2.31-2.78-1.69-4.51a4.14,4.14,0,0,1,2.88-2.32c2.76-.69,5.17,1.51,5.28,1.62,3.31,3.11,1.87,9.29,1.27,11.89a24.55,24.55,0,0,1-6.21,11.28l.11,0,.69-.16h.07l1-.25h0l1-.29.3-.09h0l.27-.09.05,0h0l.11,0,.15-.05.08,0,.21-.07.21-.07,0,0,0,0,.22-.08h0l.07,0,.16-.06.18-.07.21-.09.17-.07.25-.11h0l.18-.08.09,0,.1,0,.41-.21a.61.61,0,0,1,.14-.07l.06,0,.1-.06a16.17,16.17,0,0,0,2.9-2.12c5.32-4.85,8.14-13.75,4.62-20.15-.06-.11-.12-.22-.19-.33a11.84,11.84,0,0,0-2.26-2.76A14.66,14.66,0,0,0,397,52.37l-.51-.26a6.41,6.41,0,0,0-.87.12l-.36.09-.52.19a5.28,5.28,0,0,0-.79.4,3.63,3.63,0,0,0-.7.54h0l0-.27q0-.12,0-.3a.25.25,0,0,1,0-.08v0h0v-.14a1.11,1.11,0,0,0,0-.19v-.14s0-.06,0-.09v0h0v-.08c0-.08,0-.18,0-.27s.06-.31.1-.47a1.13,1.13,0,0,1,0-.15l0-.11a.29.29,0,0,0,0-.09A10.71,10.71,0,0,0,385.39,52.46Z"/>
  <path class="cls-5" d="M424.85,53.11a6,6,0,0,0-1.41,1.41c-2,2.9-.54,6.51-.36,9.57a11.66,11.66,0,0,1-.14,2.45c-.74,4.55-4,8.1-5.22,9.44-3.44,3.73-8.41,5.77-12.35,6.86a30.13,30.13,0,0,1-6.08.93h-.07c8.79-1.27,17.1-8,18.42-15.33,1.11-6.16-1.58-11.44-3-13.78a3.18,3.18,0,0,0,1.26-.43,1.05,1.05,0,0,0,.21-.12l.15-.1.09-.08a.31.31,0,0,0,.09-.07c.06,0,.15-.08.19-.13s.17-.12.28-.18a11.19,11.19,0,0,1,2.29-1A8.75,8.75,0,0,1,424.85,53.11Z"/>
</svg>
