<?xml version="1.0" encoding="utf-8"?>
<!-- Generator: Adobe Illustrator 26.3.1, SVG Export Plug-In . SVG Version: 6.00 Build 0)  -->
<svg version="1.1" id="Layer_1" xmlns="http://www.w3.org/2000/svg" xmlns:xlink="http://www.w3.org/1999/xlink" x="0px" y="0px"
	 viewBox="0 0 622.2 648.7" style="enable-background:new 0 0 622.2 648.7;" xml:space="preserve">
<style type="text/css">
	.st0{fill:url(#SVGID_1_);}
	.st1{fill:url(#SVGID_00000076592408861046698920000013812200068424763071_);}
	.st2{fill:url(#SVGID_00000060016308488578041940000016992188603224296127_);}
	.st3{fill:url(#SVGID_00000031887864627138026880000013563007583135758997_);}
	.st4{fill:url(#SVGID_00000075152082675352348120000012258325481671166899_);}
	.st5{fill:url(#SVGID_00000034794531398110465560000015304957709142030520_);}
	.st6{fill:url(#SVGID_00000041990457831401323730000015988126456735946132_);}
	.st7{fill:url(#SVGID_00000014600174901698948060000011118811271209097614_);}
	.st8{fill:url(#SVGID_00000091730284629354875610000000553232159985061012_);}
	.st9{fill:url(#SVGID_00000075882488338167697170000008375759884292050314_);}
	.st10{fill:url(#SVGID_00000042710777139719923870000014144991965547441049_);}
	.st11{fill:url(#SVGID_00000056399504058562582090000016356642529295095428_);}
	.st12{fill:url(#SVGID_00000161606582542731668880000006029726536391538054_);}
</style>
<linearGradient id="SVGID_1_" gradientUnits="userSpaceOnUse" x1="289.1946" y1="491.8549" x2="679.9847" y2="491.8549" gradientTransform="matrix(1 0 0 -1 -132.32 815.93)">
	<stop  offset="7.470404e-04" style="stop-color:#0C4E32"/>
	<stop  offset="0.143" style="stop-color:#0C5136"/>
	<stop  offset="0.2816" style="stop-color:#0B5842"/>
	<stop  offset="0.4189" style="stop-color:#0A6555"/>
	<stop  offset="0.5555" style="stop-color:#087771"/>
	<stop  offset="0.6914" style="stop-color:#068E94"/>
	<stop  offset="0.8269" style="stop-color:#04ABC0"/>
	<stop  offset="0.9597" style="stop-color:#01CCF2"/>
	<stop  offset="0.99" style="stop-color:#00D4FF"/>
</linearGradient>
<path class="st0" d="M527.8,445c14.5-80.5-20.7-149.5-39.2-180c-2.4,0.1-4.9,0-7.3-0.2c-6.9-0.6-13.7-1.9-20.4-3.8
	c-3.6-1.1-7.2-2.4-10.7-3.8c0.8,0.2,1.7,0.5,3,0.8c6.7,1.6,13.5,2.6,20.3,3c6.7,0.5,13.5-0.7,19.6-3.5c5.9-2.7,18.6-10.7,22.7-15.6
	c-42.2-14.1-68.5-49.6-63.7-92.3c5.2-45.7,45.3-81.7,93.1-82.1h2.5c-6.8-7.1-14.1-13.7-21.8-19.7c-29-22.8-84.7-55.5-157.5-46
	c-114.1,15-161.2,119.7-163.5,125c0.5-0.5,1.1-1,1.8-1.6c4.1-3.5,8.6-6.4,13.5-8.6c6-2.8,12.5-4.5,19.2-4.9
	c7.1-0.5,14.3,0.3,21.1,2.5l0,0c-4.5,1.8-8.8,4-13,6.4c-7.2,4.2-13.8,9.2-19.8,15c-14.3,14.2-24.2,32.3-28.4,52
	c5.9-4.9,12.3-9.3,19-13c3.2-1.7,6.6-3.4,10.3-5c4.4-1.9,9-3.5,13.6-4.8c3.7-1,7.5-1.8,11.3-2.5c3.6-0.6,6.8-1.1,9.7-1.4l0,0
	c-10.3,6.9-19,15.9-25.7,26.4c-0.8,1.3-1.6,2.5-2.4,3.9c-0.1,0.1-0.1,0.3-0.2,0.4c-0.3,0.5-0.6,1-0.8,1.5c-0.5,1-1,2-1.5,3
	c-0.2,0.4-0.4,0.8-0.6,1.2s-0.4,0.8-0.5,1.2l-0.3,0.6l-0.2,0.5c0,0-0.1,0.1-0.1,0.2c-0.1,0.4-0.3,0.7-0.4,1c-0.3,0.8-0.7,1.6-1,2.5
	c-0.2,0.4-0.3,0.8-0.5,1.2s-0.3,0.8-0.5,1.2c-0.2,0.7-0.5,1.5-0.7,2.2s-0.4,1.3-0.6,1.9v0.1c0,0.1-0.1,0.2-0.1,0.3l-0.3,1.1
	c-0.1,0.5-0.3,1.1-0.4,1.6c-0.2,0.7-0.4,1.4-0.5,2c-0.5,2.2-0.9,4.2-1.3,6.2c-0.2,1.3-0.4,2.5-0.6,3.7c-0.1,0.3-0.1,0.7-0.2,1v0.2
	c0,0.1,0,0.2,0,0.3c-0.1,0.5-0.1,0.9-0.2,1.3s-0.1,0.8-0.2,1.2c0,0.2,0,0.4-0.1,0.6c-0.1,0.9-0.2,1.8-0.3,2.6v0.4c0,0.2,0,0.4,0,0.6
	l-0.1,0.5c0,0.1,0,0.2,0,0.4s0,0.1,0,0.2l0,0c0,0.1,0,0.2,0,0.4c0,0.4-0.1,0.7-0.1,1.1c-0.1,1.5-0.2,2.9-0.4,4l-0.2,3.5
	c2.8-2.8,6-5.2,9.4-7.3c3.4-2.1,6.9-3.9,10.6-5.4c2.2-0.9,4.5-1.8,7-2.5c1.7-0.5,3.3-0.9,4.9-1.2c3.8-0.8,7.6-1.3,11.5-1.5
	c2.3,1.1,4.6,2.3,6.8,3.5c15.3,7.9,29.6,17.8,42.3,29.4c11.9,10.8,22.2,23.3,30.4,37.2c0.9,1.5,1.6,3,2.5,4.4
	c47.5,86.1,9.5,205.8-62.1,271.1c-11.9,10.9-25,20.5-39,28.5l-1.4,0.8l-0.9,0.5c-0.6,0.3-1.2,0.6-1.8,1c-1.8,1-3.6,1.9-5.5,2.8
	l-1.4,0.6l-1.2,0.6c-0.8,0.4-1.6,0.8-2.4,1.1l-0.3,0.1l-3.3,1.5l-2.4,1c-0.9,0.4-1.8,0.8-2.8,1.2c-0.8,0.3-1.5,0.6-2.3,0.9
	c-0.7,0.3-1.5,0.6-2.2,0.9c-0.3,0.1-0.6,0.2-0.9,0.3l-0.4,0.2c-1,0.4-2,0.8-3,1.1l-0.6,0.2l-0.7,0.3c-0.9,0.3-1.8,0.6-2.7,1
	s-2,0.7-2.9,1c-0.3,0.1-0.7,0.2-1,0.3l-2,0.7l-1.5,0.5l-0.3,0.1l-0.7,0.2c-1.2,0.4-2.5,0.8-3.7,1.2h-0.1l-0.3,0.1
	c-1.4,0.4-2.8,0.9-4.1,1.3c-4.4,1.4-8.9,2.6-13.2,3.8l0,0l0,0c-4.5,1.2-8.9,2.4-13.2,3.4l-0.2,0l-0.2,0.1l-0.5,0.2
	c-3.1,0.8-6.2,1.5-9.2,2.2c0.5,0.2,1,0.5,1.5,0.7l0,0c10.9,4.7,22.1,5.4,33.5,9c1.3,0.4,2.7,0.7,4,1.1c1.1,0.3,2.1,0.5,3.2,0.8
	c1.4,0.3,2.7,0.7,4.1,0.9c1,0.2,1.9,0.4,2.9,0.6c1.4,0.3,2.7,0.5,4.1,0.8c0.7,0.1,1.4,0.2,2.1,0.3c1.6,0.3,3.2,0.5,4.7,0.8
	c1.4,0.2,2.7,0.4,4.1,0.6s2.4,0.3,3.7,0.5c0.8,0.1,1.6,0.2,2.5,0.2l2,0.2l1,0.1c1.2,0.1,2.3,0.2,3.5,0.2c0.1,0,0.2,0,0.4,0l3,0.2
	l1.7,0.1c1.1,0,2.2,0.1,3.4,0.1h0.3c1.4,0.1,2.8,0.1,4.2,0.1s2.8,0.1,4.2,0.1s2.7,0,4-0.1c0.7,0,1.4,0,2.1,0c1.5,0,3-0.1,4.4-0.1
	l2.4-0.1c2.8-0.2,5.6-0.3,8.4-0.6c0.8-0.1,1.7-0.1,2.6-0.2c2.5-0.2,5-0.5,7.5-0.8l4-0.5c0,0,0.1,0,0.1,0h0.2c0.1,0,0.2,0,0.3,0
	C401.9,628.8,510.6,540.1,527.8,445z"/>
<linearGradient id="SVGID_00000053524199520207957730000001346069089202895512_" gradientUnits="userSpaceOnUse" x1="-1.818989e-12" y1="410.8502" x2="368.5205" y2="410.8502">
	<stop  offset="7.470404e-04" style="stop-color:#0C4E32"/>
	<stop  offset="0.143" style="stop-color:#0C5136"/>
	<stop  offset="0.2816" style="stop-color:#0B5842"/>
	<stop  offset="0.4189" style="stop-color:#0A6555"/>
	<stop  offset="0.5555" style="stop-color:#087771"/>
	<stop  offset="0.6914" style="stop-color:#068E94"/>
	<stop  offset="0.8269" style="stop-color:#04ABC0"/>
	<stop  offset="0.9597" style="stop-color:#01CCF2"/>
	<stop  offset="0.99" style="stop-color:#00D4FF"/>
</linearGradient>
<path style="fill:url(#SVGID_00000053524199520207957730000001346069089202895512_);" d="M116.8,230c-8.5,6.2-16.2,13.5-22.7,21.8
	c-5.2-9.2-7.2-19.8-5.7-30.3c2.8-18.1,15.2-28.2,18-30.3C77.8,203.1,56,227,46.7,256.6c-4-6-6.6-12.8-7.6-19.9
	c-2.2-17,6.1-29.7,8.5-33.1c-8.3,7.4-39.6,36.6-46.4,86.2c-7.3,53.2,18.7,92,24.6,100.4c6.2,6.5,34.8,35.1,81.4,37.9
	c48.1,2.9,80.6-23.8,87.1-29.3c-3.5,1-34.4,9.4-59.7-10.4c-15.9-12.5-31-37.3-22.7-60.6c8.1-22.8,33.6-29.9,38.8-31.2
	c37-9.3,69.4,20.3,71,21.8c44.5,41.9,25.2,125,17,160c-16.4,70.9-54.9,121.5-83.6,151.7c0.5,0.2,1,0.5,1.5,0.7
	c3-0.7,6.1-1.4,9.2-2.2l0.5-0.1l0.2-0.1l0.2,0l13.2-3.4l0,0l0,0c4.4-1.2,8.8-2.5,13.2-3.8c1.4-0.4,2.7-0.8,4.1-1.3l0.3-0.1l0.1,0
	c1.2-0.4,2.5-0.8,3.7-1.2l0.7-0.2l0.3-0.1l1.5-0.5l2-0.7l1-0.4c1-0.3,1.9-0.7,2.9-1l2.7-1l0.7-0.2l0.6-0.2c1-0.3,2-0.7,3-1.1
	l0.4-0.2l0.9-0.3l2.2-0.9c0.8-0.3,1.6-0.6,2.3-0.9c1-0.4,1.9-0.8,2.8-1.2l2.4-1l3.3-1.5l0.3-0.1c0.8-0.4,1.6-0.8,2.4-1.2l1.2-0.5
	l1.4-0.7c1.9-0.9,3.7-1.9,5.5-2.8c0.6-0.3,1.3-0.6,1.8-1l0.9-0.5l1.4-0.8c14-8.1,27.1-17.6,39-28.5c71.6-65.3,109.6-185,62.1-271.1
	c-0.8-1.5-1.6-3-2.5-4.4c-8.3-13.8-18.5-26.4-30.4-37.2c-12.8-11.6-27-21.5-42.3-29.4c-2.2-1.2-4.4-2.3-6.8-3.5
	c-3.9,0.2-7.9,0.7-11.7,1.6c-1.6,0.3-3.2,0.8-4.9,1.2c-2.5,0.7-4.8,1.6-7,2.5c-3.7,1.5-7.2,3.3-10.6,5.4c-3.4,2.1-6.5,4.5-9.4,7.3
	l0,0l0,0l0.2-3.5c0.1-1.1,0.2-2.5,0.4-4c0-0.4,0.1-0.7,0.1-1.1v-0.4V234c0-0.1,0-0.2,0-0.4s0-0.4,0-0.5s0-0.4,0.1-0.6s0-0.2,0-0.4
	c0.1-0.8,0.2-1.7,0.3-2.6c0-0.2,0.1-0.4,0.1-0.6c0-0.4,0.1-0.8,0.1-1.2s0.1-0.9,0.2-1.3c0-0.1,0-0.2,0-0.4l0,0c0,0,0-0.1,0-0.1
	l0.1-1c0.2-1.2,0.4-2.4,0.6-3.7c0.4-2,0.8-4.1,1.3-6.2c0.2-0.7,0.3-1.4,0.5-2.1l0.4-1.5l0.3-1.1C204.9,206.1,156.7,201.1,116.8,230z
	"/>
<linearGradient id="SVGID_00000098196889271782251230000006108678919978033303_" gradientUnits="userSpaceOnUse" x1="419.3647" y1="376.0984" x2="754.3147" y2="376.0984" gradientTransform="matrix(1 0 0 -1 -132.32 815.93)">
	<stop  offset="0" style="stop-color:#0B8456"/>
	<stop  offset="0.3062" style="stop-color:#0B8558"/>
	<stop  offset="0.4602" style="stop-color:#0A8960"/>
	<stop  offset="0.5803" style="stop-color:#098F6D"/>
	<stop  offset="0.6829" style="stop-color:#089880"/>
	<stop  offset="0.7742" style="stop-color:#07A398"/>
	<stop  offset="0.8576" style="stop-color:#05B2B6"/>
	<stop  offset="0.9333" style="stop-color:#02C2D9"/>
	<stop  offset="1" style="stop-color:#00D4FF"/>
</linearGradient>
<path style="fill:url(#SVGID_00000098196889271782251230000006108678919978033303_);" d="M622,244.7c-7.2,5.1-13.4,11.3-18.5,18.4
	c-26.6,37.8-7,85-4.8,125c0.6,10.7,0,21.4-1.8,32c-9.6,59.5-52.3,105.9-68.3,123.3c-44.9,48.9-109.9,75.4-161.3,89.7
	c-39.9,11-71.7,11.2-79.5,12.2c-0.1,0-0.2,0-0.4,0h-0.1c-0.2,0-0.3,0-0.4,0C401.9,628.7,510.6,540,527.7,444.9
	c14.5-80.5-20.6-149.4-39.2-180c3.5-0.2,9.5-1.9,16.5-5.7c0.9-0.5,1.8-1,2.7-1.6c0.7-0.4,1.3-0.9,1.9-1.3c0.4-0.3,0.8-0.6,1.2-1
	c0.4-0.3,0.8-0.6,1.2-1c0.8-0.6,1.9-1.1,2.5-1.7c1.3-0.7,2.2-1.6,3.6-2.3c9-4.7,18.4-9.7,29.9-12.9C564,233.3,588.2,231.3,622,244.7
	z"/>
<linearGradient id="SVGID_00000013185317806163504120000006976528998997756817_" gradientUnits="userSpaceOnUse" x1="249.4223" y1="11.0473" x2="355.8919" y2="11.0473" gradientTransform="matrix(1 0 0 -1 -132.32 815.93)">
	<stop  offset="0" style="stop-color:#F36F34"/>
	<stop  offset="6.000000e-02" style="stop-color:#F37737"/>
	<stop  offset="0.31" style="stop-color:#F59742"/>
	<stop  offset="0.56" style="stop-color:#F7AE4A"/>
	<stop  offset="0.79" style="stop-color:#F8BB4F"/>
	<stop  offset="1" style="stop-color:#F8C051"/>
</linearGradient>
<path style="fill:url(#SVGID_00000013185317806163504120000006976528998997756817_);" d="M223.6,737.4c0.1,3.7-1.4,7.2-4.1,9.7
	c-2.5,2.6-6,4-9.6,4H148v43.4h50.7c3.6,0,7,1.4,9.5,3.9c2.6,2.4,4,5.8,4,9.4c0.1,3.5-1.4,6.9-4,9.2c-2.5,2.5-5.9,3.8-9.5,3.8H148
	v49.1c0.1,4.1-1.5,8.1-4.4,11.1c-2.8,3-6.8,4.7-10.9,4.7c-4.2,0.1-8.2-1.6-11-4.7c-3-2.9-4.6-6.9-4.6-11.1V741.1
	c-0.3-9.1,6.8-16.6,15.9-16.9c0.3,0,0.7,0,1,0h75.9c3.6,0,7,1.4,9.6,3.9C222.1,730.5,223.6,733.9,223.6,737.4z"/>
<linearGradient id="SVGID_00000137815175316191061630000005869514551924190646_" gradientUnits="userSpaceOnUse" x1="364.1079" y1="-8.6106" x2="481.64" y2="-8.6106" gradientTransform="matrix(1 0 0 -1 -132.32 815.93)">
	<stop  offset="0" style="stop-color:#F36F34"/>
	<stop  offset="6.000000e-02" style="stop-color:#F37737"/>
	<stop  offset="0.31" style="stop-color:#F59742"/>
	<stop  offset="0.56" style="stop-color:#F7AE4A"/>
	<stop  offset="0.79" style="stop-color:#F8BB4F"/>
	<stop  offset="1" style="stop-color:#F8C051"/>
</linearGradient>
<path style="fill:url(#SVGID_00000137815175316191061630000005869514551924190646_);" d="M291.8,763.9c14.2,0,27.3,5.2,39.5,15.5
	c12,10.2,18,23.7,18,40.4c0,5.6-1.5,9.7-4.6,12.2c-3,2.5-7.7,3.8-14.1,3.8l-67.8-0.5c1.4,8.1,5,14.3,10.8,18.8s13.1,6.7,21.8,6.7
	c5.3,0,11.6-1.6,18.9-4.8c5.3-2.4,9.1-3.7,11.2-3.7c2.8-0.1,5.5,1,7.4,3c1.9,2,2.9,4.6,2.9,7.3c0,4.3-2.4,8.5-7.3,12.6
	c-9.3,6.5-20.7,9.8-34.2,9.8c-10.3,0.1-20.5-2.1-29.9-6.2c-9.6-4.3-17.4-11.2-23.5-20.8s-9.1-20.7-9.1-33.3
	c-0.1-9.1,1.8-18.1,5.6-26.4c3.3-7.6,8.4-14.3,14.7-19.5C264.3,768.9,277.5,763.9,291.8,763.9z M262.8,814.8h57.1
	c-1.1-7.9-4.1-14.1-9.2-18.4s-11.4-6.5-18.9-6.5c-7.1-0.2-14,2.1-19.5,6.5C266.9,800.8,263.8,806.9,262.8,814.8L262.8,814.8z"/>
<linearGradient id="SVGID_00000138569392390850886340000006421119357744626103_" gradientUnits="userSpaceOnUse" x1="496.9583" y1="-8.9498" x2="601.9735" y2="-8.9498" gradientTransform="matrix(1 0 0 -1 -132.32 815.93)">
	<stop  offset="0" style="stop-color:#F36F34"/>
	<stop  offset="6.000000e-02" style="stop-color:#F37737"/>
	<stop  offset="0.31" style="stop-color:#F59742"/>
	<stop  offset="0.56" style="stop-color:#F7AE4A"/>
	<stop  offset="0.79" style="stop-color:#F8BB4F"/>
	<stop  offset="1" style="stop-color:#F8C051"/>
</linearGradient>
<path style="fill:url(#SVGID_00000138569392390850886340000006421119357744626103_);" d="M433.8,824.6l32.6,39.3
	c4.5,5,4.2,12.7-0.7,17.2c-0.1,0.1-0.1,0.1-0.2,0.2c-2.6,2.5-6,3.9-9.6,3.9c-3.8,0-7.3-1.8-10.5-5.5l-28.3-35.2l-28.3,35.2
	c-3.2,3.7-6.7,5.5-10.5,5.5c-3.6,0-7-1.4-9.6-3.9c-5-4.5-5.5-12.2-1.1-17.3l32.9-39.3l-32.4-38.8c-4.4-5.1-3.9-12.8,1.1-17.3
	c2.6-2.5,6-3.9,9.6-3.9c4.2,0,8.1,2,10.5,5.5l27.8,34.5l27.8-34.5c2.9-3.7,6.4-5.5,10.5-5.5c3.6,0,7,1.4,9.5,3.9
	c2.6,2.4,4,5.8,4,9.4c0.1,3-0.9,5.9-3,8L433.8,824.6z"/>
<linearGradient id="SVGID_00000126284783298743754890000017210615509511344297_" gradientUnits="userSpaceOnUse" x1="635.75" y1="-8.6836" x2="715.4168" y2="-8.6836" gradientTransform="matrix(1 0 0 -1 -132.32 815.93)">
	<stop  offset="0" style="stop-color:#F36F34"/>
	<stop  offset="6.000000e-02" style="stop-color:#F37737"/>
	<stop  offset="0.31" style="stop-color:#F59742"/>
	<stop  offset="0.56" style="stop-color:#F7AE4A"/>
	<stop  offset="0.79" style="stop-color:#F8BB4F"/>
	<stop  offset="1" style="stop-color:#F8C051"/>
</linearGradient>
<path style="fill:url(#SVGID_00000126284783298743754890000017210615509511344297_);" d="M568.9,764.1c3.8-0.2,7.5,1.2,10.3,3.9
	c2.6,2.6,4,6.2,3.9,9.8c0,9.4-6.4,14.2-19.2,14.2c-8.5,0-15.6,2.6-21.2,7.8c-5.5,4.9-8.6,10-9.4,15.5v55
	c-0.2,8.1-6.7,14.6-14.8,14.8c-4,0-7.8-1.6-10.6-4.5c-2.9-2.7-4.5-6.5-4.5-10.4v-90.6c0.1-8.3,6.8-15,15.1-15.1
	c3.9,0,7.7,1.6,10.4,4.5c2.9,2.8,4.5,6.6,4.5,10.6v11.4c0.6-5.2,4.3-11,11.2-17.3C551.1,767.5,559.9,764.1,568.9,764.1z"/>
<linearGradient id="SVGID_00000045585197617943844950000003807177919825322671_" gradientUnits="userSpaceOnUse" x1="249.4223" y1="11.0473" x2="355.8919" y2="11.0473" gradientTransform="matrix(1 0 0 -1 -132.32 815.93)">
	<stop  offset="0" style="stop-color:#F36F34"/>
	<stop  offset="6.000000e-02" style="stop-color:#F37737"/>
	<stop  offset="0.31" style="stop-color:#F59742"/>
	<stop  offset="0.56" style="stop-color:#F7AE4A"/>
	<stop  offset="0.79" style="stop-color:#F8BB4F"/>
	<stop  offset="1" style="stop-color:#F8C051"/>
</linearGradient>
<path style="fill:url(#SVGID_00000045585197617943844950000003807177919825322671_);" d="M223.6,737.4c0.1,3.7-1.4,7.2-4.1,9.7
	c-2.5,2.6-6,4-9.6,4H148v43.4h50.7c3.6,0,7,1.4,9.5,3.9c2.6,2.4,4,5.8,4,9.4c0.1,3.5-1.4,6.9-4,9.2c-2.5,2.5-5.9,3.8-9.5,3.8H148
	v49.1c0.1,4.1-1.5,8.1-4.4,11.1c-2.8,3-6.8,4.7-10.9,4.7c-4.2,0.1-8.2-1.6-11-4.7c-3-2.9-4.6-6.9-4.6-11.1V741.1
	c-0.3-9.1,6.8-16.6,15.9-16.9c0.3,0,0.7,0,1,0h75.9c3.6,0,7,1.4,9.6,3.9C222.1,730.5,223.6,733.9,223.6,737.4z"/>
<linearGradient id="SVGID_00000168835611290132402980000007568335337787836311_" gradientUnits="userSpaceOnUse" x1="364.1079" y1="-8.6106" x2="481.64" y2="-8.6106" gradientTransform="matrix(1 0 0 -1 -132.32 815.93)">
	<stop  offset="0" style="stop-color:#F36F34"/>
	<stop  offset="6.000000e-02" style="stop-color:#F37737"/>
	<stop  offset="0.31" style="stop-color:#F59742"/>
	<stop  offset="0.56" style="stop-color:#F7AE4A"/>
	<stop  offset="0.79" style="stop-color:#F8BB4F"/>
	<stop  offset="1" style="stop-color:#F8C051"/>
</linearGradient>
<path style="fill:url(#SVGID_00000168835611290132402980000007568335337787836311_);" d="M291.8,763.9c14.2,0,27.3,5.2,39.5,15.5
	c12,10.2,18,23.7,18,40.4c0,5.6-1.5,9.7-4.6,12.2c-3,2.5-7.7,3.8-14.1,3.8l-67.8-0.5c1.4,8.1,5,14.3,10.8,18.8s13.1,6.7,21.8,6.7
	c5.3,0,11.6-1.6,18.9-4.8c5.3-2.4,9.1-3.7,11.2-3.7c2.8-0.1,5.5,1,7.4,3c1.9,2,2.9,4.6,2.9,7.3c0,4.3-2.4,8.5-7.3,12.6
	c-9.3,6.5-20.7,9.8-34.2,9.8c-10.3,0.1-20.5-2.1-29.9-6.2c-9.6-4.3-17.4-11.2-23.5-20.8s-9.1-20.7-9.1-33.3
	c-0.1-9.1,1.8-18.1,5.6-26.4c3.3-7.6,8.4-14.3,14.7-19.5C264.3,768.9,277.5,763.9,291.8,763.9z M262.8,814.8h57.1
	c-1.1-7.9-4.1-14.1-9.2-18.4s-11.4-6.5-18.9-6.5c-7.1-0.2-14,2.1-19.5,6.5C266.9,800.8,263.8,806.9,262.8,814.8L262.8,814.8z"/>
<linearGradient id="SVGID_00000098906435919175568590000005626663347834561461_" gradientUnits="userSpaceOnUse" x1="496.9583" y1="-8.9498" x2="601.9735" y2="-8.9498" gradientTransform="matrix(1 0 0 -1 -132.32 815.93)">
	<stop  offset="0" style="stop-color:#F36F34"/>
	<stop  offset="6.000000e-02" style="stop-color:#F37737"/>
	<stop  offset="0.31" style="stop-color:#F59742"/>
	<stop  offset="0.56" style="stop-color:#F7AE4A"/>
	<stop  offset="0.79" style="stop-color:#F8BB4F"/>
	<stop  offset="1" style="stop-color:#F8C051"/>
</linearGradient>
<path style="fill:url(#SVGID_00000098906435919175568590000005626663347834561461_);" d="M433.8,824.6l32.6,39.3
	c4.5,5,4.2,12.7-0.7,17.2c-0.1,0.1-0.1,0.1-0.2,0.2c-2.6,2.5-6,3.9-9.6,3.9c-3.8,0-7.3-1.8-10.5-5.5l-28.3-35.2l-28.3,35.2
	c-3.2,3.7-6.7,5.5-10.5,5.5c-3.6,0-7-1.4-9.6-3.9c-5-4.5-5.5-12.2-1.1-17.3l32.9-39.3l-32.4-38.8c-4.4-5.1-3.9-12.8,1.1-17.3
	c2.6-2.5,6-3.9,9.6-3.9c4.2,0,8.1,2,10.5,5.5l27.8,34.5l27.8-34.5c2.9-3.7,6.4-5.5,10.5-5.5c3.6,0,7,1.4,9.5,3.9
	c2.6,2.4,4,5.8,4,9.4c0.1,3-0.9,5.9-3,8L433.8,824.6z"/>
<linearGradient id="SVGID_00000132769255813132035550000006859231655617080506_" gradientUnits="userSpaceOnUse" x1="635.75" y1="-8.6836" x2="715.4168" y2="-8.6836" gradientTransform="matrix(1 0 0 -1 -132.32 815.93)">
	<stop  offset="0" style="stop-color:#F36F34"/>
	<stop  offset="6.000000e-02" style="stop-color:#F37737"/>
	<stop  offset="0.31" style="stop-color:#F59742"/>
	<stop  offset="0.56" style="stop-color:#F7AE4A"/>
	<stop  offset="0.79" style="stop-color:#F8BB4F"/>
	<stop  offset="1" style="stop-color:#F8C051"/>
</linearGradient>
<path style="fill:url(#SVGID_00000132769255813132035550000006859231655617080506_);" d="M568.9,764.1c3.8-0.2,7.5,1.2,10.3,3.9
	c2.6,2.6,4,6.2,3.9,9.8c0,9.4-6.4,14.2-19.2,14.2c-8.5,0-15.6,2.6-21.2,7.8c-5.5,4.9-8.6,10-9.4,15.5v55
	c-0.2,8.1-6.7,14.6-14.8,14.8c-4,0-7.8-1.6-10.6-4.5c-2.9-2.7-4.5-6.5-4.5-10.4v-90.6c0.1-8.3,6.8-15,15.1-15.1
	c3.9,0,7.7,1.6,10.4,4.5c2.9,2.8,4.5,6.6,4.5,10.6v11.4c0.6-5.2,4.3-11,11.2-17.3C551.1,767.5,559.9,764.1,568.9,764.1z"/>
<linearGradient id="SVGID_00000096779273853324051140000005806293684567737511_" gradientUnits="userSpaceOnUse" x1="811.63" y1="802.1442" x2="832.87" y2="802.1442" gradientTransform="matrix(1 0 0 -1 -132.32 815.93)">
	<stop  offset="0" style="stop-color:#F36F51"/>
	<stop  offset="6.000000e-02" style="stop-color:#F37751"/>
	<stop  offset="0.31" style="stop-color:#F59751"/>
	<stop  offset="0.56" style="stop-color:#F7AE50"/>
	<stop  offset="0.79" style="stop-color:#F8BB50"/>
	<stop  offset="1" style="stop-color:#F8C050"/>
</linearGradient>
<path style="fill:url(#SVGID_00000096779273853324051140000005806293684567737511_);" d="M700.5,2.7c0,1.4-1.1,2.6-2.6,2.6h-5.1
	v19.2c0,1.6-1.3,2.9-2.9,2.9c-1.6,0-2.9-1.3-2.9-2.9c0,0,0,0,0,0V5.3h-5.1c-1.4,0.1-2.7-1-2.7-2.4c-0.1-1.4,1-2.7,2.4-2.7
	c0.1,0,0.2,0,0.3,0H698C699.4,0.1,700.6,1.3,700.5,2.7C700.6,2.7,700.6,2.7,700.5,2.7z"/>
<linearGradient id="SVGID_00000109745429534514954420000014533447524714086838_" gradientUnits="userSpaceOnUse" x1="836.4081" y1="802.2301" x2="865.6219" y2="802.2301" gradientTransform="matrix(1 0 0 -1 -132.32 815.93)">
	<stop  offset="0" style="stop-color:#F36F51"/>
	<stop  offset="6.000000e-02" style="stop-color:#F37751"/>
	<stop  offset="0.31" style="stop-color:#F59751"/>
	<stop  offset="0.56" style="stop-color:#F7AE50"/>
	<stop  offset="0.79" style="stop-color:#F8BB50"/>
	<stop  offset="1" style="stop-color:#F8C050"/>
</linearGradient>
<path style="fill:url(#SVGID_00000109745429534514954420000014533447524714086838_);" d="M733.3,2.8v21.7c0,1.7-1.3,3-3,3
	s-3-1.3-3-3V12.9l-6.1,11.6c-0.5,1-1.4,1.6-2.5,1.7c-1.1,0-2-0.7-2.5-1.7L710,12.9v11.5c0,1.6-1.3,3-2.9,3c-1.7,0-3-1.3-3-3V2.8
	c-0.1-1.5,1.1-2.7,2.5-2.7c0,0,0.1,0,0.1,0c1.2,0.1,2.3,0.8,2.9,1.9l9,16l9-16c0.6-1.1,1.7-1.8,3-1.9C732.1,0,733.3,1.2,733.3,2.8
	C733.3,2.7,733.3,2.7,733.3,2.8z"/>
</svg>
