<svg id="Layer_1" data-name="Layer 1" xmlns="http://www.w3.org/2000/svg" xmlns:xlink="http://www.w3.org/1999/xlink" viewBox="0 0 733.3 885.58"><defs><style>.cls-1{fill:url(#linear-gradient);}.cls-2{fill:url(#linear-gradient-2);}.cls-3{fill:url(#linear-gradient-3);}.cls-4{fill:url(#linear-gradient-4);}.cls-5{fill:url(#linear-gradient-5);}.cls-6{fill:url(#linear-gradient-6);}.cls-7{fill:url(#linear-gradient-7);}.cls-8{fill:url(#linear-gradient-8);}.cls-9{fill:url(#linear-gradient-13);}.cls-10{fill:url(#linear-gradient-14);}</style><linearGradient id="linear-gradient" x1="359.24" y1="445.75" x2="750.01" y2="445.75" gradientUnits="userSpaceOnUse"><stop offset="0" stop-color="#f15b2b"/><stop offset="0.13" stop-color="#f1622e"/><stop offset="0.31" stop-color="#f27537"/><stop offset="0.53" stop-color="#f49545"/><stop offset="0.77" stop-color="#f6c059"/><stop offset="0.99" stop-color="#f8ef6f"/></linearGradient><linearGradient id="linear-gradient-2" x1="202.32" y1="532.55" x2="570.86" y2="532.55" gradientUnits="userSpaceOnUse"><stop offset="0" stop-color="#f15b2b"/><stop offset="0.13" stop-color="#f06631"/><stop offset="0.37" stop-color="#ef8340"/><stop offset="0.68" stop-color="#edb259"/><stop offset="1" stop-color="#eaea76"/></linearGradient><linearGradient id="linear-gradient-3" x1="489.38" y1="561.56" x2="824.33" y2="561.56" gradientUnits="userSpaceOnUse"><stop offset="0" stop-color="#ec813d"/><stop offset="0.71" stop-color="#ec833e"/><stop offset="0.97" stop-color="#eb8a41"/><stop offset="1" stop-color="#eb8b42"/></linearGradient><linearGradient id="linear-gradient-4" x1="617.93" y1="472.42" x2="154.13" y2="303.61" gradientUnits="userSpaceOnUse"><stop offset="0" stop-color="#595a5c"/><stop offset="0.35" stop-color="#5b5c5e"/><stop offset="0.5" stop-color="#636365"/><stop offset="0.63" stop-color="#6f7072"/><stop offset="0.73" stop-color="#828284"/><stop offset="0.82" stop-color="#99999c"/><stop offset="0.9" stop-color="#b6b6b9"/><stop offset="0.97" stop-color="#d8d7da"/><stop offset="1" stop-color="#e9e8eb"/></linearGradient><linearGradient id="linear-gradient-5" x1="249.52" y1="874.96" x2="355.89" y2="874.96" gradientUnits="userSpaceOnUse"><stop offset="0" stop-color="#f36f34"/><stop offset="0.06" stop-color="#f37737"/><stop offset="0.31" stop-color="#f59742"/><stop offset="0.56" stop-color="#f7ae4a"/><stop offset="0.79" stop-color="#f8bb4f"/><stop offset="1" stop-color="#f8c051"/></linearGradient><linearGradient id="linear-gradient-6" x1="364.11" y1="894.59" x2="481.67" y2="894.59" xlink:href="#linear-gradient-5"/><linearGradient id="linear-gradient-7" x1="496.96" y1="894.93" x2="601.97" y2="894.93" xlink:href="#linear-gradient-5"/><linearGradient id="linear-gradient-8" x1="635.75" y1="894.7" x2="715.41" y2="894.7" xlink:href="#linear-gradient-5"/><linearGradient id="linear-gradient-13" x1="811.63" y1="83.92" x2="832.87" y2="83.92" gradientUnits="userSpaceOnUse"><stop offset="0" stop-color="#f36f51"/><stop offset="0.06" stop-color="#f37751"/><stop offset="0.31" stop-color="#f59751"/><stop offset="0.56" stop-color="#f7ae50"/><stop offset="0.79" stop-color="#f8bb50"/><stop offset="1" stop-color="#f8c050"/></linearGradient><linearGradient id="linear-gradient-14" x1="836.39" y1="83.76" x2="865.62" y2="83.76" xlink:href="#linear-gradient-13"/></defs><title>FEXR™ 3</title><path class="cls-1" d="M730.09,566.69c14.53-80.54-20.68-149.47-39.24-180a43.69,43.69,0,0,1-7.33-.25,113,113,0,0,1-20.41-3.82,107,107,0,0,1-10.73-3.84c.8.24,1.72.49,3,.81a113.26,113.26,0,0,0,20.3,3,39.78,39.78,0,0,0,19.61-3.47c5.87-2.71,18.6-10.67,22.73-15.61-42.23-14.08-68.48-49.57-63.68-92.29,5.15-45.74,45.29-81.72,93.12-82.07H750a197,197,0,0,0-21.83-19.67c-29-22.8-84.74-55.51-157.46-46-114.09,15-161.24,119.7-163.51,125,.5-.47,1.11-1,1.79-1.62a56.62,56.62,0,0,1,13.48-8.62,53.59,53.59,0,0,1,19.19-4.89,56.77,56.77,0,0,1,21.08,2.5h0a104.37,104.37,0,0,0-13,6.43,100.51,100.51,0,0,0-19.79,15,103.69,103.69,0,0,0-28.4,52,117.6,117.6,0,0,1,19-13c3.17-1.73,6.58-3.43,10.3-5a117,117,0,0,1,13.61-4.79A115,115,0,0,1,455.75,284c3.56-.65,6.84-1.09,9.68-1.36h0A91.1,91.1,0,0,0,439.71,309c-.82,1.29-1.65,2.55-2.44,3.93-.08.15-.15.29-.24.43-.28.5-.56,1-.82,1.5-.53,1-1,2-1.5,2.95-.2.41-.38.81-.57,1.21s-.38.81-.55,1.21l-.27.57-.24.55a.46.46,0,0,0-.07.16c-.15.35-.28.7-.43,1-.33.82-.68,1.64-1,2.47-.18.42-.32.81-.48,1.22s-.3.82-.45,1.23c-.25.73-.5,1.47-.73,2.21s-.41,1.26-.6,1.89l0,.08c0,.1-.06.2-.09.32l-.32,1.12c-.14.52-.3,1.06-.43,1.57-.19.68-.36,1.37-.52,2-.52,2.16-.93,4.22-1.29,6.22-.22,1.27-.44,2.53-.6,3.72-.06.34-.1.66-.16,1v.16c0,.12,0,.22,0,.34-.07.45-.14.87-.17,1.32s-.12.83-.17,1.23c0,.21,0,.42-.07.62-.1.9-.2,1.77-.28,2.61l0,.37c0,.18,0,.37,0,.56l-.06.53c0,.12,0,.24,0,.36s0,.13,0,.19v0c0,.12,0,.25,0,.37,0,.37-.07.74-.1,1.08-.13,1.55-.25,2.92-.38,4.05l-.24,3.53a50.31,50.31,0,0,1,9.38-7.26,70.61,70.61,0,0,1,10.63-5.38c2.21-.9,4.51-1.76,7-2.5,1.66-.5,3.28-.9,4.85-1.24A70.74,70.74,0,0,1,467.81,347c2.34,1.13,4.57,2.3,6.79,3.47a199.39,199.39,0,0,1,42.34,29.43,162.7,162.7,0,0,1,30.41,37.17c.87,1.46,1.64,2.95,2.46,4.43,47.47,86.07,9.53,205.79-62.1,271.13a222.85,222.85,0,0,1-39,28.54l-1.4.78-.86.48c-.59.33-1.24.63-1.84,1-1.79,1-3.59,1.9-5.46,2.83l-1.36.63-1.19.56c-.81.39-1.62.77-2.44,1.14l-.29.12-3.34,1.48-2.38,1c-.93.39-1.84.78-2.79,1.16q-1.15.48-2.34.93c-.74.3-1.48.58-2.23.87-.3.11-.59.24-.89.34l-.44.16c-1,.38-2,.75-3,1.11l-.59.21-.67.26c-.9.32-1.81.63-2.71,1s-1.95.66-2.92,1a9.19,9.19,0,0,0-1,.35l-2,.66-1.48.5-.28.09-.69.25c-1.25.38-2.47.8-3.72,1.18l-.15,0-.26.08c-1.38.43-2.76.87-4.14,1.27-4.43,1.36-8.87,2.64-13.25,3.83h0l0,0c-4.48,1.23-8.92,2.36-13.2,3.39l-.23.05-.21.06-.54.15c-3.13.76-6.22,1.49-9.21,2.15.51.22,1,.45,1.51.66h0c10.88,4.73,22.08,5.43,33.51,9,1.32.38,2.68.73,4,1.08,1.07.28,2.15.55,3.23.8,1.39.35,2.74.66,4.13.94,1,.24,1.92.41,2.86.59,1.39.31,2.74.55,4.1.83.73.11,1.42.24,2.12.35,1.56.28,3.16.52,4.73.76,1.35.21,2.74.39,4.1.59s2.43.28,3.68.46c.84.07,1.64.17,2.47.24l1.95.21,1,.1c1.18.11,2.33.18,3.51.25a1.23,1.23,0,0,0,.35,0l3,.21,1.67.1c1.11,0,2.25.11,3.37.14h.27c1.4.07,2.79.11,4.18.11s2.81.07,4.24.07,2.67,0,4-.07c.73,0,1.43,0,2.12,0,1.46,0,3-.07,4.42-.14l2.4-.1c2.78-.18,5.59-.35,8.38-.59.83-.07,1.7-.14,2.57-.25,2.5-.24,5-.52,7.54-.83l4-.52a.2.2,0,0,1,.14,0l.25,0c.1,0,.2,0,.31,0C604.26,750.46,712.92,661.82,730.09,566.69Z" transform="translate(-132.32 -70.07)"/><path class="cls-2" d="M319.14,351.72a116.36,116.36,0,0,0-22.73,21.78,47.64,47.64,0,0,1-5.68-30.3c2.75-18.08,15.23-28.17,18-30.3a104.88,104.88,0,0,0-59.65,65.34,46.25,46.25,0,0,1-7.58-19.89c-2.17-17,6.12-29.69,8.52-33.14-8.33,7.35-39.56,36.6-46.39,86.17-7.34,53.24,18.66,92,24.62,100.38,6.16,6.47,34.76,35.07,81.43,37.87,48.12,2.88,80.6-23.76,87.12-29.35-3.47,1-34.35,9.4-59.66-10.42-15.94-12.48-31.05-37.31-22.72-60.6,8.14-22.78,33.63-29.93,38.82-31.25,37-9.32,69.44,20.29,71,21.78,44.53,41.9,25.16,125,17.05,160-16.43,70.88-54.85,121.45-83.6,151.69.5.24,1,.46,1.53.69,3-.67,6.07-1.4,9.22-2.16l.54-.14.22-.06.22-.05,13.19-3.4h0v0c4.38-1.18,8.83-2.47,13.25-3.82,1.39-.42,2.74-.84,4.13-1.29l.27-.06.15-.05c1.24-.38,2.47-.79,3.71-1.19l.7-.23.28-.1,1.48-.49,2-.66,1-.36c1-.33,1.94-.67,2.9-1l2.72-1,.67-.25.58-.22c1-.34,2-.72,3-1.1l.43-.16.9-.34,2.24-.87c.79-.31,1.56-.63,2.32-.94,1-.38,1.87-.76,2.8-1.15l2.38-1,3.34-1.47.28-.12c.83-.38,1.63-.76,2.43-1.15l1.21-.55,1.36-.65c1.89-.91,3.67-1.86,5.46-2.81.6-.32,1.26-.63,1.84-1l.86-.47,1.39-.78a221.6,221.6,0,0,0,39-28.54c71.63-65.32,109.56-185,62.11-271.13-.82-1.47-1.59-3-2.45-4.41a163.36,163.36,0,0,0-30.42-37.19,199.76,199.76,0,0,0-42.34-29.43c-2.22-1.17-4.44-2.33-6.77-3.46a72.6,72.6,0,0,0-11.73,1.58c-1.57.34-3.19.75-4.86,1.25-2.47.74-4.77,1.59-7,2.49a71.55,71.55,0,0,0-10.63,5.38,50.82,50.82,0,0,0-9.38,7.28v0h0l.24-3.54c.14-1.12.24-2.51.38-4,0-.36.07-.73.11-1.09l0-.37v-.21c0-.12,0-.25.05-.37s0-.35,0-.53,0-.38.06-.56,0-.25,0-.38c.1-.83.17-1.7.27-2.6,0-.2.06-.41.08-.62.05-.41.1-.81.15-1.24s.11-.87.18-1.3c0-.12,0-.23,0-.35v0s0-.08,0-.12l.15-1c.17-1.19.39-2.44.61-3.71.36-2,.77-4.07,1.28-6.22.17-.66.34-1.36.52-2.06l.44-1.55.32-1.13C407.21,327.75,359.07,322.82,319.14,351.72Z" transform="translate(-132.32 -70.07)"/><path class="cls-3" d="M824.33,366.41a76.94,76.94,0,0,0-18.45,18.44c-26.56,37.8-7,85-4.75,125a146.52,146.52,0,0,1-1.78,32c-9.61,59.46-52.28,105.89-68.28,123.3C686.15,714,621.19,740.58,569.78,754.83c-39.9,11-71.69,11.2-79.48,12.15a1.11,1.11,0,0,0-.36,0h-.12c-.16,0-.32,0-.44,0,114.87-16.59,223.53-105.25,240.7-200.37,14.53-80.51-20.62-149.42-39.18-180,3.52-.2,9.5-1.86,16.5-5.66a26.2,26.2,0,0,0,2.7-1.58c.71-.44,1.34-.87,1.94-1.31a14.63,14.63,0,0,0,1.22-1,12.64,12.64,0,0,0,1.15-.95c.75-.63,1.9-1.07,2.53-1.7,1.35-.71,2.22-1.58,3.61-2.34,9-4.71,18.4-9.73,29.92-12.86C766.34,355,790.49,353,824.33,366.41Z" transform="translate(-132.32 -70.07)"/><path class="cls-4" d="M359.24,752.2h0c-.52-.23-1-.45-1.53-.69,28.75-30.24,67.17-80.81,83.6-151.69,8.11-35,27.48-118.13-17.05-160-1.58-1.49-34-31.1-71-21.78-5.19,1.32-30.68,8.47-38.82,31.25-8.33,23.29,6.78,48.12,22.72,60.6,25.31,19.82,56.19,11.43,59.66,10.42-6.52,5.59-39,32.23-87.12,29.35-46.67-2.8-75.27-31.4-81.43-37.87-6-8.42-32-47.14-24.62-100.38,6.83-49.57,38.06-78.82,46.39-86.17-2.4,3.45-10.69,16.19-8.52,33.14a46.25,46.25,0,0,0,7.58,19.89,104.88,104.88,0,0,1,59.65-65.34c-2.76,2.13-15.24,12.22-18,30.3a47.64,47.64,0,0,0,5.68,30.3,116.36,116.36,0,0,1,22.73-21.78c39.93-28.9,88.07-24,110.1-19.78l.09-.31a.11.11,0,0,1,0-.06c.17-.66.38-1.29.59-1.92l.73-2.22.46-1.21c.15-.41.29-.82.46-1.23.3-.82.65-1.64,1-2.46.15-.35.27-.7.42-1,0-.07.07-.11.07-.18l.25-.54c.08-.19.17-.38.26-.57.17-.4.37-.81.56-1.21l.56-1.22c.49-1,1-1.95,1.49-2.92.28-.52.56-1,.84-1.52l.24-.43c.79-1.38,1.62-2.64,2.44-3.93a91.62,91.62,0,0,1,25.7-26.37c-2.84.27-6.11.71-9.66,1.35s-7.25,1.47-11.26,2.61a115.3,115.3,0,0,0-13.61,4.8c-3.71,1.57-7.12,3.27-10.3,5a117.74,117.74,0,0,0-19,13v0l0,0a103.85,103.85,0,0,1,28.41-52,100.45,100.45,0,0,1,19.8-15,105,105,0,0,1,13-6.43,57,57,0,0,0-29.64-1.26,55.94,55.94,0,0,0-10.62,3.64A56.93,56.93,0,0,0,409,246.88c-.68.61-1.3,1.17-1.8,1.64v0h0c2.18-5.1,49.33-110,163.5-125,72.72-9.56,128.45,23.16,157.48,46A351.9,351.9,0,0,0,485.53,72.89C290.44,72.89,132.32,231,132.32,426.1c0,153.92,93.25,280.27,228.41,326.75-.51-.21-1-.44-1.49-.65Z" transform="translate(-132.32 -70.07)"/><path class="cls-5" d="M355.89,807.5a13,13,0,0,1-4.1,9.7,13.31,13.31,0,0,1-9.59,4H280.34v43.37H331a13.14,13.14,0,0,1,9.48,3.88,12.59,12.59,0,0,1,4,9.36,12.21,12.21,0,0,1-4,9.24,13.32,13.32,0,0,1-9.48,3.77H280.34V939.9A15.56,15.56,0,0,1,275.89,951,14.42,14.42,0,0,1,265,955.65a14.74,14.74,0,0,1-11-4.68,15.3,15.3,0,0,1-4.57-11.07V811.16a16.41,16.41,0,0,1,16.89-16.9H342.2a13.56,13.56,0,0,1,9.59,3.88A12.41,12.41,0,0,1,355.89,807.5Z" transform="translate(-132.32 -70.07)"/><path class="cls-6" d="M424.15,834q21.23,0,39.49,15.52,18,15.3,18,40.41,0,8.45-4.57,12.21T463,905.89l-67.79-.46q2.05,12.11,10.84,18.83T427.8,931q8,0,18.94-4.8,8-3.65,11.19-3.65a9.85,9.85,0,0,1,7.42,3,10.14,10.14,0,0,1,2.85,7.3q0,6.4-7.3,12.56-13.93,9.81-34.24,9.81A73,73,0,0,1,396.75,949q-14.37-6.39-23.51-20.77t-9.13-33.33a62.6,62.6,0,0,1,5.59-26.37,52.43,52.43,0,0,1,14.73-19.51Q402.69,834,424.15,834Zm-29,50.91h57.06Q450.63,873,443,866.51T424.15,860a30.17,30.17,0,0,0-19.52,6.51Q396.53,873,395.16,884.89Z" transform="translate(-132.32 -70.07)"/><path class="cls-7" d="M566.13,894.7,598.77,934a12.17,12.17,0,0,1-.91,17.35,13.52,13.52,0,0,1-9.59,3.88c-3.81,0-7.3-1.82-10.5-5.48l-28.31-35.15-28.3,35.15q-4.8,5.49-10.5,5.48a13.52,13.52,0,0,1-9.59-3.88A12.49,12.49,0,0,1,499.93,934L532.8,894.7l-32.41-38.8a12.49,12.49,0,0,1,1.14-17.35,13.5,13.5,0,0,1,9.58-3.88,12.6,12.6,0,0,1,10.51,5.48l27.84,34.46,27.85-34.46q4.34-5.49,10.5-5.48a13.15,13.15,0,0,1,9.48,3.88,12.58,12.58,0,0,1,4,9.36,10.79,10.79,0,0,1-3,8Z" transform="translate(-132.32 -70.07)"/><path class="cls-8" d="M701.26,834.21a13.91,13.91,0,0,1,10.27,3.88,13.3,13.3,0,0,1,3.88,9.82q0,14.15-19.17,14.15-12.79,0-21.23,7.76-8.22,7.3-9.36,15.52v55a15.21,15.21,0,0,1-14.84,14.83,14.49,14.49,0,0,1-10.61-4.45,14.23,14.23,0,0,1-4.45-10.38V849.73a15.2,15.2,0,0,1,15.06-15.06,14.23,14.23,0,0,1,10.39,4.45,14.47,14.47,0,0,1,4.45,10.61v11.42q.92-7.77,11.19-17.35A35.09,35.09,0,0,1,701.26,834.21Z" transform="translate(-132.32 -70.07)"/><path class="cls-5" d="M355.89,807.5a13,13,0,0,1-4.1,9.7,13.31,13.31,0,0,1-9.59,4H280.34v43.37H331a13.14,13.14,0,0,1,9.48,3.88,12.59,12.59,0,0,1,4,9.36,12.21,12.21,0,0,1-4,9.24,13.32,13.32,0,0,1-9.48,3.77H280.34V939.9A15.56,15.56,0,0,1,275.89,951,14.42,14.42,0,0,1,265,955.65a14.74,14.74,0,0,1-11-4.68,15.3,15.3,0,0,1-4.57-11.07V811.16a16.41,16.41,0,0,1,16.89-16.9H342.2a13.56,13.56,0,0,1,9.59,3.88A12.41,12.41,0,0,1,355.89,807.5Z" transform="translate(-132.32 -70.07)"/><path class="cls-6" d="M424.15,834q21.23,0,39.49,15.52,18,15.3,18,40.41,0,8.45-4.57,12.21T463,905.89l-67.79-.46q2.05,12.11,10.84,18.83T427.8,931q8,0,18.94-4.8,8-3.65,11.19-3.65a9.85,9.85,0,0,1,7.42,3,10.14,10.14,0,0,1,2.85,7.3q0,6.4-7.3,12.56-13.93,9.81-34.24,9.81A73,73,0,0,1,396.75,949q-14.37-6.39-23.51-20.77t-9.13-33.33a62.6,62.6,0,0,1,5.59-26.37,52.43,52.43,0,0,1,14.73-19.51Q402.69,834,424.15,834Zm-29,50.91h57.06Q450.63,873,443,866.51T424.15,860a30.17,30.17,0,0,0-19.52,6.51Q396.53,873,395.16,884.89Z" transform="translate(-132.32 -70.07)"/><path class="cls-7" d="M566.13,894.7,598.77,934a12.17,12.17,0,0,1-.91,17.35,13.52,13.52,0,0,1-9.59,3.88c-3.81,0-7.3-1.82-10.5-5.48l-28.31-35.15-28.3,35.15q-4.8,5.49-10.5,5.48a13.52,13.52,0,0,1-9.59-3.88A12.49,12.49,0,0,1,499.93,934L532.8,894.7l-32.41-38.8a12.49,12.49,0,0,1,1.14-17.35,13.5,13.5,0,0,1,9.58-3.88,12.6,12.6,0,0,1,10.51,5.48l27.84,34.46,27.85-34.46q4.34-5.49,10.5-5.48a13.15,13.15,0,0,1,9.48,3.88,12.58,12.58,0,0,1,4,9.36,10.79,10.79,0,0,1-3,8Z" transform="translate(-132.32 -70.07)"/><path class="cls-8" d="M701.26,834.21a13.91,13.91,0,0,1,10.27,3.88,13.3,13.3,0,0,1,3.88,9.82q0,14.15-19.17,14.15-12.79,0-21.23,7.76-8.22,7.3-9.36,15.52v55a15.21,15.21,0,0,1-14.84,14.83,14.49,14.49,0,0,1-10.61-4.45,14.23,14.23,0,0,1-4.45-10.38V849.73a15.2,15.2,0,0,1,15.06-15.06,14.23,14.23,0,0,1,10.39,4.45,14.47,14.47,0,0,1,4.45,10.61v11.42q.92-7.77,11.19-17.35A35.09,35.09,0,0,1,701.26,834.21Z" transform="translate(-132.32 -70.07)"/><path class="cls-9" d="M832.87,72.78a2.57,2.57,0,0,1-2.56,2.57h-5.13V94.6a2.93,2.93,0,1,1-5.86,0V75.35h-5.08a2.59,2.59,0,1,1,0-5.17h16.07A2.57,2.57,0,0,1,832.87,72.78Z" transform="translate(-132.32 -70.07)"/><path class="cls-10" d="M865.62,72.82V94.47a3,3,0,0,1-6,0V83L853.51,94.6A2.88,2.88,0,0,1,851,96.26a2.76,2.76,0,0,1-2.48-1.66L842.33,83V94.47a3,3,0,0,1-2.92,3,3,3,0,0,1-3-3V72.82a2.65,2.65,0,0,1,2.68-2.75A3.68,3.68,0,0,1,842,72l9,16,9-16a3.74,3.74,0,0,1,3-1.93A2.65,2.65,0,0,1,865.62,72.82Z" transform="translate(-132.32 -70.07)"/></svg>
