<svg xmlns="http://www.w3.org/2000/svg" xmlns:xlink="http://www.w3.org/1999/xlink" width="700" height="400" viewBox="0 0 700 400">
  <defs>
    <style>
      .cls-1 {
        fill: #fff;
      }

      .cls-2 {
        fill: none;
      }

      .cls-3 {
        fill: #bf9169;
      }

      .cls-4 {
        fill: #00D96D;
      }

      .cls-5 {
        fill: #14593a;
      }

      .cls-6 {
        clip-path: url(#clip-path);
      }

      .cls-7 {
        clip-path: url(#clip-path-2);
      }

      .cls-8, .cls-9 {
        fill: #2e325a;
      }

      .cls-8 {
        stroke: #2e325a;
        stroke-miterlimit: 10;
      }

      .cls-10 {
        fill: #e6e7ff;
      }

      .cls-11 {
        fill: #42bd83;
      }

      .cls-12 {
        fill: #340000;
      }

      .cls-13 {
        fill: #10193d;
      }

      .cls-14 {
        fill: #ed9572;
      }

      .cls-15 {
        fill: #a47db3;
      }

      .cls-16 {
        fill: #c27653;
      }

      .cls-17 {
        fill: #612966;
      }

      .cls-18 {
        fill: #fdb390;
      }

      .cls-19 {
        fill: #cc6a52;
      }

      .cls-20 {
        fill: #995014;
      }

      .cls-21 {
        clip-path: url(#clip-path-3);
      }

      .cls-22 {
        clip-path: url(#clip-path-4);
      }

      .cls-23 {
        fill: #8ed1b1;
      }

      .cls-24 {
        fill: #70361c;
      }

      .cls-25 {
        fill: #d4784c;
      }

      .cls-26 {
        fill: #825e8f;
      }

      .cls-27 {
        clip-path: url(#clip-path-5);
      }

      .cls-28 {
        fill: #c77e5c;
      }

      .cls-29 {
        fill: #d4894a;
      }
    </style>
    <clipPath id="clip-path">
      <rect class="cls-1" x="501.48" y="62.47" width="87.25" height="175.62" rx="7.83"/>
    </clipPath>
    <clipPath id="clip-path-2">
      <rect class="cls-2" x="500.81" y="62.47" width="88.58" height="178.31" rx="7.95"/>
    </clipPath>
    <clipPath id="clip-path-3">
      <rect class="cls-1" x="312.93" y="113.79" width="88.58" height="174.48" rx="7.86"/>
    </clipPath>
    <clipPath id="clip-path-4">
      <rect class="cls-2" x="312.93" y="113.79" width="88.58" height="178.31" rx="7.95"/>
    </clipPath>
    <clipPath id="clip-path-5">
      <rect class="cls-1" x="118.5" y="68.98" width="88.58" height="178.31" rx="7.95"/>
    </clipPath>
  </defs>
  <g id="_2" data-name="2">
    <path class="cls-3" d="M481.26,214.42h0a14.09,14.09,0,0,0,16.93-2.09l40.86-40-18.42-17.1L479.85,207A5,5,0,0,0,481.26,214.42Z"/>
    <path class="cls-3" d="M488.58,231.27h0a12.78,12.78,0,0,0,15.49.11L549.83,197a.86.86,0,0,0,.15-1.23L535.1,177.84a.86.86,0,0,0-1.26-.07L488.07,222.4A5.89,5.89,0,0,0,488.58,231.27Z"/>
    <path class="cls-3" d="M513.82,254.34l1.62.32c5.33,1.06,12.95-8.51,15.48-13.08L540.69,224l7.52-13.57,12-21.63-22.84-10.84-7,18.53-10.6,28.09-6.89,18.23S508.87,253,513.82,254.34Z"/>
    <path class="cls-3" d="M620.66,269.15l-48.75,3,2.24-111.67.2-10.17,13.91,7.81,11.66,6.55,9.41,5.28a19.05,19.05,0,0,1,3.24,2.28,19.59,19.59,0,0,1,6.75,14.37Z"/>
    <path class="cls-4" d="M599.92,164.64a9.4,9.4,0,0,0-3.37,4.51c-2.78,8-3.9,20.49-3.9,20.49l-18.5-29.19.2-10.17,13.91,7.81Z"/>
    <path class="cls-3" d="M639,385.26l-7.19,1.45-1,.2L565.78,400h-4.95l-2.56-31.17-.07-.89-.11-1.34-.58-7v-.1l-.73-8.82-.69-8.4-1-12.61-2.17-26.45-.19-2.32-.58-7.05-1.49-18.26v-.15l-.06-.67,0-.68-.08-.94,9.07-1.44,12.46-2L619,262.29l.52-.08,1.1,6.94,3.91,24.72.47,3,8.13,51.38h0l1,6.14.32,2.07.15.91,0,.14Z"/>
    <g>
      <rect class="cls-5" x="496.21" y="56.52" width="97.78" height="187.52" rx="8.56"/>
      <g>
        <rect class="cls-1" x="501.48" y="62.47" width="87.25" height="175.62" rx="7.83"/>
        <g class="cls-6">
          <g class="cls-7">
            <rect class="cls-1" x="500.81" y="62.47" width="88.81" height="178.31"/>
            <rect class="cls-8" x="500.7" y="62.39" width="88.81" height="43.4"/>
            <rect class="cls-9" x="500.7" y="219.52" width="88.81" height="21.56"/>
            <path class="cls-10" d="M570.73,179.48H521.6a2.62,2.62,0,0,1-2.62-2.63h0a2.62,2.62,0,0,1,2.62-2.63h49.13a2.63,2.63,0,0,1,2.63,2.63h0A2.63,2.63,0,0,1,570.73,179.48Z"/>
            <path class="cls-10" d="M570.73,169.62H521.6A2.62,2.62,0,0,1,519,167h0a2.62,2.62,0,0,1,2.62-2.63h49.13a2.63,2.63,0,0,1,2.63,2.63h0A2.63,2.63,0,0,1,570.73,169.62Z"/>
            <circle class="cls-11" cx="545.1" cy="199.63" r="12.47" transform="translate(224.96 683.88) rotate(-76.64)"/>
            <path class="cls-1" d="M544.88,206.71a1.51,1.51,0,0,1-1.11-.49l-6.28-6.86a1.5,1.5,0,1,1,2.21-2l4.86,5.3,5.07-9.29a1.5,1.5,0,1,1,2.63,1.43l-6.07,11.14a1.49,1.49,0,0,1-1.13.78Z"/>
            <g>
              <rect class="cls-12" x="526.13" y="116.54" width="3.18" height="3.18"/>
              <rect class="cls-12" x="561.39" y="116.54" width="3.18" height="3.18"/>
              <rect class="cls-12" x="561.39" y="149.49" width="3.18" height="3.18"/>
              <path class="cls-4" d="M562.15,136.55H563v-1.87h4V132.6h-4.83v-7.48h-2.42v6.8h-5.9V127.7h-3.15v12.07h-2.75v.94h2.75v4.9h-3.56V122.33h2.42v1.75h2.28v-1.75h2v4.08H555v-4.08h1.71v2h12.46V111.89H556.75v6.82h-4.93V113h-2.28v5.75h-6.11V112.4h-2.75v2.42H534v-2.93H521.49v12.47H527v7.56h-3.49v2.76H527v7.51h-3.49v2.24H527v6.65h-2.55v4.12h8.43v3.36h3V155.2h20.9v2.11h12.46V144.84h-7.06ZM558.89,114h8.18v8.17h-8.18Zm.84,19.6v1h-5.9v-1Zm-16.36,1v-4.16H541V127.7h4.29v11.4h-3.08v-4.42Zm-1.21,12.74h3.08v3.66h-3.08Zm0-1.81v-3.42h3.08v3.42Zm3.08-20.49H541v-2.79h4.29Zm-4.56-8.58v2.17H534v-2.17Zm-17-2.5h8.17v8.17h-8.17ZM534,124.36v-2h5.51v8.19h-7.64v-6.16Zm-5.22,23.06h6.44V143.8h-6.44v-4h3.09v-5.09h7.64v16.4H528.74Zm18.38,3.66v-3.66h3.56v2.07h3.15V136.55h5.9v8.29h-3v6.24Zm20,4.08h-8.18V147h8.18Z"/>
              <rect class="cls-12" x="543.7" y="156.54" width="4.23" height="2.01"/>
              <rect class="cls-12" x="534.37" y="137.63" width="3.02" height="3.02"/>
              <rect class="cls-12" x="535.18" y="125.82" width="1.74" height="2.95"/>
              <rect class="cls-12" x="521.1" y="126.41" width="1.47" height="4.11"/>
              <rect class="cls-12" x="566.98" y="138.59" width="2.68" height="3.73"/>
              <rect class="cls-12" x="564.57" y="127.13" width="3.39" height="3.39"/>
              <rect class="cls-12" x="521.1" y="148.63" width="1.47" height="6.57"/>
            </g>
          </g>
        </g>
      </g>
      <path class="cls-5" d="M594.09,114.9h0a1.15,1.15,0,0,1-1.15-1.15V101a1.14,1.14,0,0,1,1.15-1.15h0a1.14,1.14,0,0,1,1.15,1.15v12.73A1.15,1.15,0,0,1,594.09,114.9Z"/>
      <path class="cls-5" d="M594.09,130.93h0a1.15,1.15,0,0,1-1.15-1.15V117.05a1.14,1.14,0,0,1,1.15-1.15h0a1.14,1.14,0,0,1,1.15,1.15v12.73A1.15,1.15,0,0,1,594.09,130.93Z"/>
      <path class="cls-5" d="M496.21,101.69h0a1.15,1.15,0,0,1-1.15-1.15V89a1.16,1.16,0,0,1,1.15-1.15h0A1.15,1.15,0,0,1,497.36,89v11.5A1.14,1.14,0,0,1,496.21,101.69Z"/>
      <g>
        <path class="cls-13" d="M536.5,60.46h-5.79a1.05,1.05,0,0,1-1.05-1.06h0a1,1,0,0,1,1.05-1h5.79a1,1,0,0,1,1,1h0A1.05,1.05,0,0,1,536.5,60.46Z"/>
        <circle class="cls-13" cx="541.76" cy="59.4" r="1.05"/>
        <path class="cls-13" d="M554.15,59.4a1.05,1.05,0,1,1-1-1A1.05,1.05,0,0,1,554.15,59.4Z"/>
        <circle class="cls-13" cx="547.69" cy="59.4" r="1.75"/>
      </g>
    </g>
    <path class="cls-3" d="M619.8,209.32c0-.92-14.4-18.13-14.4-18.13-1.1,12-5.25,21.88-10.75,27.16a20.46,20.46,0,0,1-26.45,1.92l-51.22-45a10.92,10.92,0,0,0-11.89-1.16A7.52,7.52,0,0,0,502,184.22l25.12,42.45a84.73,84.73,0,0,1,7.95,17.89c6,19.28,12.74,31.39,22.81,36.35l4.87,2.39s54.9-3.39,55.62-3.39S619.82,210.25,619.8,209.32Z"/>
    <path class="cls-14" d="M520.78,184.89l-10.66,8.34-5.58-8.35a6,6,0,0,1,1.3-8.11h0a6,6,0,0,1,8.19.69Z"/>
    <g>
      <path class="cls-15" d="M658.62,400H536.73a134.61,134.61,0,0,1,9.66-26l0-.25.76-9.27,4.66-.52,1-.11h.11a25.39,25.39,0,0,1,4.58-4.33l.09-.06a10.85,10.85,0,0,1,7.24-2.25c2.75.26,5.28,1.83,7.56,4.49l11.66-1.29h0l7.68-.86,21.48-2.38c1.78-5.66,4.36-9.16,7.74-10a5,5,0,0,1,.86-.14,5.66,5.66,0,0,1,1,0c2.88.12,6.07,2,9.45,5.39q.91.93,1.86,2l.35.4,1.61-.19,1.67,3.14.24.33q1.82,2.51,3.66,5.5a190.57,190.57,0,0,1,13.54,27.68Q656.93,395.49,658.62,400Z"/>
      <path class="cls-4" d="M592.06,360.86s-11,3-14.92,12c0,0-7.94-9.11-23.83-5.56l7.15-13.15,28.67-6Z"/>
      <path class="cls-15" d="M637.78,357.75a48,48,0,0,0-7.29-.55c-9.22-.12-23.07,1.21-38.43,3.66-1,.16-2,.33-3,.51-18.42,3.16-34.7,8-42.21,12.29l-.41.07L533.48,316a2.23,2.23,0,0,1-.1-.43l-.54-2.42,0-.18h.05a.32.32,0,0,1,0-.09c-.7-4.08,20.6-11.11,47.54-15.68s49.19-5,50-.92a.06.06,0,0,1,0,0L634,326.16Z"/>
      <path class="cls-4" d="M583.75,382.75a.51.51,0,0,1-.47-.33c-4.94-13.73-18.87-15-19-15a.5.5,0,0,1-.45-.53.48.48,0,0,1,.53-.45c.14,0,14.69,1.29,19.86,15.63a.49.49,0,0,1-.3.63A.45.45,0,0,1,583.75,382.75Z"/>
      <path class="cls-4" d="M634.11,393.19a.49.49,0,0,1-.46-.31c-.1-.26-10.1-25.69-28.38-30.68-14.42-3.94-21.24,1.94-24.15,4.45-1,.89-1.57,1.35-2.13,1.13a.48.48,0,0,1-.28-.63.5.5,0,0,1,.56-.31,8.18,8.18,0,0,0,1.21-.93c3-2.62,10.13-8.73,25-4.66,18.76,5.12,28.93,31,29,31.28a.49.49,0,0,1-.28.63Z"/>
      <path class="cls-4" d="M592.06,360.54l-3,.83c-18.42,3.16-15.18,5.84-24.7,5.95,0,0-8.38-1-17.92,6.66l-12.91-58c1.86,7.43,8,26.54,23,34.51C579.62,362.78,591.62,360.67,592.06,360.54Z"/>
      <path class="cls-4" d="M641.43,363.66a.49.49,0,0,1-.45-.3c0-.06-2.66-6.06-8.08-6.06h-.18a10.26,10.26,0,0,0-8.33,4.4.5.5,0,0,1-.47.33.49.49,0,0,1-.49-.49c0-.53,3.22-5.07,9.26-5.22h.22c6.06,0,8.85,6.38,9,6.66a.5.5,0,0,1-.26.64A.65.65,0,0,1,641.43,363.66Z"/>
      <path class="cls-4" d="M630.49,357.2c2-3.77,4.44-12.35,3.5-31l3.79,31.59A48,48,0,0,0,630.49,357.2Z"/>
      <path class="cls-4" d="M553.31,367.81a.49.49,0,0,1-.47-.35c-7.39-24.84-12.67-59.76-12.72-60.11a.49.49,0,1,1,1-.14c.06.34,5.33,35.2,12.7,60a.48.48,0,0,1-.33.61A.32.32,0,0,1,553.31,367.81Z"/>
      <path class="cls-4" d="M625.16,360.48a.49.49,0,0,1-.48-.43c-1.53-11.41-5.83-22.09-8.4-28.48-1.27-3.15-1.88-4.7-1.88-5.4a.49.49,0,1,1,1,0,30.24,30.24,0,0,0,1.82,5c2.59,6.42,6.92,17.18,8.46,28.71a.48.48,0,0,1-.42.55Z"/>
      <path class="cls-4" d="M559.07,334.86c1.1,3.52.42,6.86-1.51,7.47s-4.4-1.75-5.51-5.27-.42-6.86,1.52-7.46S558,331.35,559.07,334.86Z"/>
    </g>
    <path class="cls-16" d="M590.25,241.2a.48.48,0,0,1-.4-.2c-7.91-11.12-27-24.81-27.18-24.94a.51.51,0,0,1-.12-.69.5.5,0,0,1,.69-.11c.19.14,19.4,13.92,27.41,25.17a.49.49,0,0,1-.12.68A.47.47,0,0,1,590.25,241.2Z"/>
    <path class="cls-4" d="M559,279.5c-2.73,1.87-6.08,5.87-6.86,14.34l-1.57-19.09A27.39,27.39,0,0,0,559,279.5Z"/>
    <path class="cls-16" d="M592.92,231.36a.49.49,0,0,1-.41-.22c-2.36-3.59-7.45-7.1-7.5-7.14a.49.49,0,1,1,.55-.81c.22.15,5.3,3.66,7.77,7.41a.5.5,0,0,1-.14.68A.53.53,0,0,1,592.92,231.36Z"/>
    <path class="cls-16" d="M527.76,213.25a.5.5,0,0,1-.48-.37.51.51,0,0,1,.36-.6,57.86,57.86,0,0,0,11.25-8.35.49.49,0,0,1,.67.72c-5.07,4.7-10.82,8.37-11.68,8.58Z"/>
    <path class="cls-16" d="M533.49,218a.48.48,0,0,1-.44-.28.49.49,0,0,1,.23-.65c.07,0,6.56-3.1,8.74-6.13a.49.49,0,1,1,.8.58c-2.33,3.23-8.85,6.31-9.12,6.44A.52.52,0,0,1,533.49,218Z"/>
    <path class="cls-16" d="M563.6,281.18h-.09a30.38,30.38,0,0,1-4.69-1.2,28,28,0,0,1-8.58-4.84,33,33,0,0,1-10.11-14.8.49.49,0,0,1,.33-.61.48.48,0,0,1,.61.33,32.68,32.68,0,0,0,9.79,14.33,27.13,27.13,0,0,0,8.29,4.66,29.17,29.17,0,0,0,4.53,1.17.48.48,0,0,1,.4.56A.49.49,0,0,1,563.6,281.18Z"/>
  </g>
  <g id="_3" data-name="3">
    <path class="cls-17" d="M418.25,165c-4.55,2.76-7.55,5-11.24-.41-1.59-2.31,1.42-5.5,6-8.27s9.41-3.06,10.87-.66S422.8,162.28,418.25,165Z"/>
    <path class="cls-18" d="M421.5,163.62c2.5-2.89,1.39-7.26-2.1-8-5.81-1.29-12.65.69-18,5.67l-16.78,17.87c-5.63,6.52,1.53,6.34,6.88,11h0c2.28,2,6.07,1.32,8.48-1.47Z"/>
    <path class="cls-18" d="M384.72,249.91l12.58,16.15,22.19-17.28A14.35,14.35,0,0,0,422,228.65h0a6.14,6.14,0,0,0-8.6-1.07Z"/>
    <path class="cls-18" d="M383.25,230.28l16.11,12.63,17.35-22.14a14.35,14.35,0,0,0-2.44-20.14h0a6.13,6.13,0,0,0-8.6,1.05Z"/>
    <path class="cls-18" d="M409.5,299.34l-.45.34-33.48,23.66h0l-15.31,10.81a23.7,23.7,0,0,0-7.79,13.6c-.14.75-.24,1.51-.31,2.28l-.66,7.55v.06L347.78,400H269l4.63-21.35.49-2.27L282,340.09,285.3,325l3.19-14.69,0-.07c-.73-1.29-1.4-2.6-2-3.93a43.88,43.88,0,0,1-3.42-12c0-.39-.1-.77-.14-1.15a43.89,43.89,0,0,1,12.62-36l9.75-8.49,3-2.62,4.61-4,35.23-30.69,40,43.91,1.64,1.8,3.41,3.73,1.71,1.89h0l2.78,3.05,3.8,4.18,4.6,5.05,5,5.53A12.86,12.86,0,0,1,409.5,299.34Z"/>
    <path class="cls-4" d="M297.13,318.23A20.63,20.63,0,0,0,285.31,325l3.2-14.76c-.73-1.29-1.4-2.6-2-3.93l.16-.05A31.16,31.16,0,0,0,297.13,318.23Z"/>
    <path class="cls-19" d="M306.7,323.07l-.13,0a33.86,33.86,0,0,1-9.71-4.41,31.52,31.52,0,0,1-10.62-12.18A36.33,36.33,0,0,1,282.69,295l0-.13a.49.49,0,0,1,.41-.56.5.5,0,0,1,.56.41l0,.16A35.41,35.41,0,0,0,287.11,306a30.59,30.59,0,0,0,10.29,11.8,32.66,32.66,0,0,0,9.44,4.29.47.47,0,0,1,.33.6A.48.48,0,0,1,306.7,323.07Z"/>
    <path class="cls-19" d="M350.2,286.9a.5.5,0,0,0-.61-.33c-1.74.51-3.37,1.08-4.91,1.7a44.72,44.72,0,0,0-11.37,6.52c-10,7.95-12.37,17.63-12.28,19.76,0,.5.26.65.46.69h.1a.49.49,0,0,0,.48-.39.52.52,0,0,0-.06-.35c-.18-1.54,2.11-11.69,12.9-19.72a45.62,45.62,0,0,1,12.59-6.52c.77-.27,1.56-.52,2.37-.76A.48.48,0,0,0,350.2,286.9Z"/>
    <g>
      <rect class="cls-20" x="308.32" y="107.27" width="97.78" height="187.52" rx="8.56"/>
      <g>
        <rect class="cls-1" x="312.93" y="113.79" width="88.58" height="174.48" rx="7.86"/>
        <g class="cls-21">
          <g class="cls-22">
            <rect class="cls-1" x="312.93" y="113.79" width="88.81" height="178.31"/>
            <rect class="cls-9" x="312.81" y="113.72" width="88.81" height="43.4"/>
            <rect class="cls-9" x="312.81" y="270.85" width="88.81" height="21.56"/>
            <path class="cls-10" d="M382.84,230.8H333.71a2.62,2.62,0,0,1-2.62-2.63h0a2.62,2.62,0,0,1,2.62-2.62h49.13a2.62,2.62,0,0,1,2.63,2.62h0A2.63,2.63,0,0,1,382.84,230.8Z"/>
            <path class="cls-10" d="M382.84,220.94H333.71a2.62,2.62,0,0,1-2.62-2.63h0a2.62,2.62,0,0,1,2.62-2.62h49.13a2.62,2.62,0,0,1,2.63,2.62h0A2.63,2.63,0,0,1,382.84,220.94Z"/>
            <circle class="cls-11" cx="357.22" cy="250.95" r="12.47"/>
            <path class="cls-1" d="M357,258a1.49,1.49,0,0,1-1.11-.49l-6.28-6.85a1.5,1.5,0,1,1,2.21-2l4.86,5.31,5.07-9.3a1.5,1.5,0,1,1,2.63,1.44l-6.07,11.14a1.5,1.5,0,0,1-1.13.77Z"/>
            <g>
              <rect class="cls-12" x="338.25" y="167.86" width="3.18" height="3.18"/>
              <rect class="cls-12" x="373.5" y="167.86" width="3.18" height="3.18"/>
              <rect class="cls-12" x="373.5" y="200.81" width="3.18" height="3.18"/>
              <path class="cls-4" d="M374.26,187.88h.83V186h4v-2.08h-4.83v-7.48h-2.42v6.81h-5.9V179h-3.15V191.1H360V192h2.75v4.89h-3.56V173.66h2.42v1.74h2.28v-1.74h2v4.07h1.21v-4.07h1.71v2h12.47V163.22H368.86V170h-4.93v-5.74h-2.28V170h-6.11v-6.3h-2.75v2.41h-6.72v-2.92H333.6v12.46h5.51v7.57h-3.49V186h3.49v7.51h-3.49v2.24h3.49v6.65h-2.55v4.12H345v3.36h3v-3.36h20.9v2.11h12.47V196.17h-7.07ZM371,165.36h8.17v8.17H371Zm.83,19.6v1h-5.9v-1Zm-16.36,1v-4.16h-2.42V179h4.29v11.41h-3.08V186Zm-1.21,12.74h3.08v3.66h-3.08Zm0-1.81v-3.42h3.08v3.42Zm3.08-20.49h-4.29v-2.78h4.29Zm-4.56-8.58V170h-6.72v-2.17Zm-17-2.5h8.17v8.17h-8.17Zm10.32,10.32v-2h5.52v8.18h-7.65v-6.16Zm-5.22,23.06h6.44v-3.62h-6.44v-4h3.09V186h7.65v16.4H340.85Zm18.38,3.66v-3.66h3.56v2.07h3.15V187.88h5.9v8.29h-3v6.23Zm19.95,4.09H371v-8.18h8.17Z"/>
              <rect class="cls-12" x="355.81" y="207.87" width="4.23" height="2.01"/>
              <rect class="cls-12" x="346.48" y="188.95" width="3.02" height="3.02"/>
              <rect class="cls-12" x="347.29" y="177.14" width="1.74" height="2.95"/>
              <rect class="cls-12" x="333.21" y="177.73" width="1.47" height="4.11"/>
              <rect class="cls-12" x="379.09" y="189.92" width="2.68" height="3.73"/>
              <rect class="cls-12" x="376.68" y="178.45" width="3.39" height="3.39"/>
              <rect class="cls-12" x="333.21" y="199.95" width="1.47" height="6.57"/>
            </g>
          </g>
        </g>
      </g>
      <path class="cls-20" d="M406.2,151.56h0a1.15,1.15,0,0,1-1.15-1.15V137.68a1.16,1.16,0,0,1,1.15-1.15h0a1.15,1.15,0,0,1,1.15,1.15v12.73A1.14,1.14,0,0,1,406.2,151.56Z"/>
      <path class="cls-20" d="M406.2,167.59h0a1.15,1.15,0,0,1-1.15-1.15V153.72a1.15,1.15,0,0,1,1.15-1.15h0a1.14,1.14,0,0,1,1.15,1.15v12.72A1.14,1.14,0,0,1,406.2,167.59Z"/>
      <path class="cls-20" d="M406.2,193.11h0a1.15,1.15,0,0,1-1.15-1.15v-11.5a1.15,1.15,0,0,1,1.15-1.15h0a1.14,1.14,0,0,1,1.15,1.15V192A1.14,1.14,0,0,1,406.2,193.11Z"/>
      <path class="cls-13" d="M373.12,110H341.31a.67.67,0,0,1-.67-.68h0a.67.67,0,0,1,.67-.67h31.81a.67.67,0,0,1,.67.67h0A.67.67,0,0,1,373.12,110Z"/>
      <path class="cls-13" d="M358.5,111.63a1.29,1.29,0,0,1-2.57,0,1.29,1.29,0,1,1,2.57,0Z"/>
    </g>
    <path class="cls-18" d="M308.32,203.5v71.39a18.34,18.34,0,0,1-10.64,16.64c-6,2.76-13.91,4.88-14.74,1.59-4.68-18.46,8.12-70.3,10.64-107.92a3.59,3.59,0,0,1,6.09-2.29A28.33,28.33,0,0,1,308.32,203.5Z"/>
    <path class="cls-4" d="M308.32,237.91v28.28c-1.84-4.39-3.69-9.91-3.49-13.94C305.05,247.72,307,243.32,308.32,237.91Z"/>
    <path class="cls-18" d="M389,251.32h0a1.91,1.91,0,0,1,3.28-.67l23.43,27.79a12.42,12.42,0,0,1-2.32,18.15l-3.9,2.76-4.2-8.88s-9.55-11.84-14.81-22.08A22.61,22.61,0,0,1,389,251.32Z"/>
    <path class="cls-18" d="M385.34,233.6a4.78,4.78,0,0,0-2.63,7.66,18.88,18.88,0,0,0,16.71,6.26l11.71-1.3c7.71-1.84,12.63-8.89,11-15.75h0c-.7-2.94-3.93-4.68-7.22-3.9Z"/>
    <path class="cls-18" d="M396.07,181.41a4.79,4.79,0,0,0-7.94,1.62,18.91,18.91,0,0,0,3.09,17.57l14.89,17c5.49,5.71,5.88.78,11-4.11h0c2.17-2.09,2.32-7.48,0-9.92Z"/>
    <path class="cls-19" d="M408.22,290.71c-.21,0-.43,0-.64,0a7.19,7.19,0,0,1-4.38-2.11.49.49,0,0,1,.78-.6,6.33,6.33,0,0,0,3.69,1.74,6.23,6.23,0,0,0,4.77-1.74.49.49,0,0,1,.64.74A7.34,7.34,0,0,1,408.22,290.71Z"/>
    <path class="cls-19" d="M406.2,247.25a.49.49,0,0,1-.49-.43.49.49,0,0,1,.44-.54l.31,0c5.59-.37,10.06-1.8,12.59-4a.48.48,0,0,1,.69,0,.49.49,0,0,1,0,.69c-2.74,2.38-7.29,3.85-13.18,4.25l-.26,0Z"/>
    <path class="cls-19" d="M411.4,219.22a12.81,12.81,0,0,1-6.19-1.95.49.49,0,0,1-.13-.68.48.48,0,0,1,.68-.13c.06,0,5.79,3.8,9.53.29a.49.49,0,1,1,.67.71A6.42,6.42,0,0,1,411.4,219.22Z"/>
    <path class="cls-4" d="M375.55,323.34l-15.31,10.81a23.75,23.75,0,0,0-8.1,15.88l-.66,7.61c0-.68-1.19-14.21-.56-20S359.28,331.56,375.55,323.34Z"/>
    <path class="cls-17" d="M396.81,182.83c2.56,4.25,4.58,7.06-.43,10.47-2.16,1.47-5.12-1.35-7.67-5.6s-2.81-8.78-.58-10.13S394.26,178.58,396.81,182.83Z"/>
    <path class="cls-17" d="M387.49,233c4.6-1.16,7.74-2.23,9.38,2.94.71,2.23-2.71,4.09-7.3,5.25s-8.78.28-9.36-2S382.9,234.15,387.49,233Z"/>
    <path class="cls-17" d="M395.86,254.45c2.81,4.09,4.25,5.46.16,8-1.54,1-3.64-1.07-5.78-4.63s-2.63-7.2-1.08-8.14S393.51,251,395.86,254.45Z"/>
    <path class="cls-17" d="M294.93,194.52c0,5.29-1.5,6.51-2.44,6.51s-.32-4.53-.33-9.81c0-6.16.33-9.32,1.27-9.32S294.93,189.24,294.93,194.52Z"/>
    <path class="cls-23" d="M417.22,375.14c-1.32,8.28-3.08,16.57-5.15,24.86H251.44c.72-3.66,1.42-7.2,2.1-10.58h0l0-.08v0c5.21-25.87,9.11-43.06,9.11-43.06.67-3.59,7.87-5.64,19.33-6.16,14.79-.67,36.67,1.23,60.72,5.72,2.76.52,5.47,1.05,8.14,1.61l1.57.33a300.44,300.44,0,0,1,41,11.46C408.81,364.89,418,370.72,417.22,375.14Z"/>
    <path class="cls-4" d="M288.75,362c-2.39,1.92-8.18,7.58-15.1,16.67-1.35,1.77-2.75,3.68-4.17,5.72A172.89,172.89,0,0,0,259.75,400h-1.13c2.87-5.27,5.78-9.94,8.49-13.94.52-.78,1-1.53,1.55-2.26,1.88-2.7,3.72-5.17,5.48-7.42,6.41-8.2,11.7-13.35,14-15.18a.49.49,0,0,1,.7.07A.51.51,0,0,1,288.75,362Z"/>
    <path class="cls-4" d="M269.08,384v0a172.62,172.62,0,0,0-9.9,15.91h-7.73q1.09-5.5,2.11-10.59l0-.08c0,.31.18,4.14,3.54,3.76,2.5-.28,7.3-4.45,10-7A24.44,24.44,0,0,0,269.08,384Z"/>
  </g>
  <g id="_5" data-name="5">
    <path class="cls-24" d="M228.18,222.51h0a14.07,14.07,0,0,1-16.5-4.34l-35.15-45,20.54-14.48,33.51,56.66A5,5,0,0,1,228.18,222.51Z"/>
    <path class="cls-24" d="M227.57,247.05l-1.41.82A11.92,11.92,0,0,1,211.82,246L170,204.77l18.49-17L229,239.6A5,5,0,0,1,227.57,247.05Z"/>
    <path class="cls-24" d="M237.64,254.7l-.56,1.56c-1.8,5.12-13.92,6.8-19.14,6.65l-20.13-.57-15.51-.45-24.73-.7L159.89,236l19.51,3.43,29.57,5.2,19.2,3.37S239,249.75,237.64,254.7Z"/>
    <path class="cls-25" d="M215.32,221.93h-.07c-.55-.07-4.85-2.87-9.08-9.41a.49.49,0,0,1,.15-.68.48.48,0,0,1,.67.14c4,6.19,8,8.81,8.46,9a.46.46,0,0,1,.39.54A.53.53,0,0,1,215.32,221.93Z"/>
    <path class="cls-25" d="M219.87,249.27a14,14,0,0,1-6.8-1.55,32.74,32.74,0,0,1-7.81-5.67.49.49,0,1,1,.72-.66,32.6,32.6,0,0,0,7.57,5.47c5,2.82,12.39.57,12.46.54a.49.49,0,0,1,.29.94A23.53,23.53,0,0,1,219.87,249.27Z"/>
    <path class="cls-4" d="M209.73,248.78c-1.67,5.57-7.26,10.36-11.92,13.56l-15.51-.45-1.36-1.6-8.15-18.58,6.61-2.26,29.57,5.2A4.36,4.36,0,0,1,209.73,248.78Z"/>
    <path class="cls-24" d="M177.06,290.25a35.25,35.25,0,0,0-6.26,16.44l-4.29,35.66L80.23,321.81l16.92-46.74,3.27-9a26.15,26.15,0,0,0-.37-18.7,21.77,21.77,0,0,0-1-2.09l0-.06-10.8-26.59c-5.12-10.42-2.67-21.5,1.64-30.13L122.7,130l55.35,113.05,2.81,5.75a42.29,42.29,0,0,1,2.1,5.39A41.05,41.05,0,0,1,177.06,290.25Z"/>
    <path class="cls-4" d="M183,254.22a13.35,13.35,0,0,0-6.43.22,10.87,10.87,0,0,0-3.66,1.81,53.31,53.31,0,0,0-.45-11.95l4.11-1.37,1.52.15,2.81,5.75A42.29,42.29,0,0,1,183,254.22Z"/>
    <path class="cls-4" d="M109,273.85c-2.41,3.93-7.74,2.87-11.87,1.22l3.27-9a26.15,26.15,0,0,0-.37-18.7,20,20,0,0,0,3.84,5.26C107.12,255.65,113.28,267,109,273.85Z"/>
    <path class="cls-25" d="M184.77,267.59h-.08a.5.5,0,0,1-.41-.56c1.53-10.14-6.64-23.71-6.72-23.84a.5.5,0,0,1,.16-.68.48.48,0,0,1,.67.17c.35.56,8.44,14,6.86,24.5A.48.48,0,0,1,184.77,267.59Z"/>
    <g>
      <rect class="cls-26" x="113.9" y="64.38" width="97.78" height="187.52" rx="8.56"/>
      <g>
        <rect class="cls-1" x="118.5" y="68.98" width="88.58" height="178.31" rx="7.95"/>
        <g class="cls-27">
          <rect class="cls-1" x="118.5" y="68.98" width="88.81" height="178.31"/>
          <rect class="cls-9" x="118.39" y="68.9" width="88.81" height="43.4"/>
          <rect class="cls-9" x="118.39" y="226.03" width="88.81" height="21.56"/>
          <path class="cls-10" d="M188.42,186H139.29a2.63,2.63,0,0,1-2.63-2.63h0a2.63,2.63,0,0,1,2.63-2.63h49.13a2.62,2.62,0,0,1,2.62,2.63h0A2.62,2.62,0,0,1,188.42,186Z"/>
          <path class="cls-10" d="M188.42,176.13H139.29a2.63,2.63,0,0,1-2.63-2.63h0a2.63,2.63,0,0,1,2.63-2.63h49.13A2.62,2.62,0,0,1,191,173.5h0A2.62,2.62,0,0,1,188.42,176.13Z"/>
          <circle class="cls-11" cx="162.79" cy="206.14" r="12.47" transform="translate(-98.08 175.49) rotate(-45)"/>
          <path class="cls-1" d="M162.56,213.22a1.48,1.48,0,0,1-1.1-.49l-6.28-6.86a1.5,1.5,0,1,1,2.21-2l4.86,5.3,5.06-9.29a1.5,1.5,0,0,1,2.64,1.43l-6.07,11.14a1.51,1.51,0,0,1-1.14.78Z"/>
          <g>
            <rect class="cls-12" x="143.82" y="123.04" width="3.18" height="3.18"/>
            <rect class="cls-12" x="179.08" y="123.04" width="3.18" height="3.18"/>
            <rect class="cls-12" x="179.08" y="156" width="3.18" height="3.18"/>
            <path class="cls-4" d="M179.83,143.06h.84v-1.88h4V139.1h-4.83v-7.47h-2.41v6.8h-5.9v-4.22h-3.16v12.07h-2.75v.94h2.75v4.9h-3.55V128.84h2.41v1.75h2.28v-1.75h2v4.08h1.2v-4.08h1.72v2H186.9V118.4H174.44v6.82H169.5v-5.75h-2.28v5.75h-6.1v-6.31h-2.75v2.42h-6.73V118.4H139.18v12.47h5.51v7.56H141.2v2.75h3.49v7.52H141.2v2.24h3.49v6.65h-2.55v4.12h8.43v3.35h3v-3.35h20.9v2.11H186.9V151.35h-7.07Zm-3.25-22.51h8.17v8.17h-8.17Zm.84,19.59v1h-5.9v-1Zm-16.37,1V137h-2.41v-2.82h4.29v11.4h-3.09v-4.43Zm-1.21,12.75h3.09v3.66h-3.09Zm0-1.81V148.7h3.09v3.42Zm3.09-20.49h-4.29v-2.79h4.29ZM158.37,123v2.18h-6.73V123Zm-17.05-2.49h8.18v8.17h-8.18Zm10.32,10.32v-2h5.52V137h-7.65v-6.16Zm-5.21,23.06h6.44v-3.62h-6.44v-4h3.08v-5.1h7.65v16.41H146.43Zm18.38,3.66v-3.66h3.55V156h3.16V143.06h5.9v8.29h-3v6.24Zm19.94,4.08h-8.17V153.5h8.17Z"/>
            <rect class="cls-12" x="161.39" y="163.05" width="4.23" height="2.01"/>
            <rect class="cls-12" x="152.05" y="144.14" width="3.02" height="3.02"/>
            <rect class="cls-12" x="152.87" y="132.33" width="1.74" height="2.95"/>
            <rect class="cls-12" x="138.78" y="132.92" width="1.47" height="4.11"/>
            <rect class="cls-12" x="184.66" y="145.1" width="2.68" height="3.73"/>
            <rect class="cls-12" x="182.26" y="133.64" width="3.39" height="3.39"/>
            <rect class="cls-12" x="138.78" y="155.14" width="1.47" height="6.57"/>
          </g>
        </g>
      </g>
      <path class="cls-26" d="M114,116.22h0a1.16,1.16,0,0,1-1.15-1.15V102.34a1.15,1.15,0,0,1,1.15-1.15h0a1.14,1.14,0,0,1,1.15,1.15v12.73A1.15,1.15,0,0,1,114,116.22Z"/>
      <path class="cls-26" d="M114,132.25h0a1.16,1.16,0,0,1-1.15-1.15V118.37a1.15,1.15,0,0,1,1.15-1.15h0a1.14,1.14,0,0,1,1.15,1.15V131.1A1.15,1.15,0,0,1,114,132.25Z"/>
      <path class="cls-26" d="M211.83,117.29h0a1.14,1.14,0,0,1-1.15-1.15v-11.5a1.14,1.14,0,0,1,1.15-1.15h0a1.15,1.15,0,0,1,1.15,1.15v11.5A1.15,1.15,0,0,1,211.83,117.29Z"/>
      <g>
        <circle class="cls-13" cx="159.66" cy="66.68" r="1.15"/>
        <circle class="cls-13" cx="165.54" cy="66.68" r="1.15"/>
      </g>
    </g>
    <path class="cls-24" d="M170,268.77l-13.32,35.14-38.73-38L89,148s-3.38-8.7,4.19-13.16h0a11.07,11.07,0,0,1,14.68,3.32l57,83.51C172.26,233.44,176,250.49,170,268.77Z"/>
    <path class="cls-25" d="M119.76,234.69h-.13c-6.8-1.85-12.41-10.09-14.29-21-1.7-9.79-10.6-40.38-10.69-40.68a.5.5,0,0,1,.34-.61.5.5,0,0,1,.61.33c.09.31,9,31,10.7,40.8,1.82,10.52,7.15,18.45,13.58,20.2a.49.49,0,0,1-.12,1Z"/>
    <path class="cls-25" d="M171.13,265.27a.45.45,0,0,1-.16,0,.48.48,0,0,1-.3-.62,33.7,33.7,0,0,0,1.71-8.41,52.26,52.26,0,0,0-.45-11.84,48.8,48.8,0,0,0-1.27-6.24.48.48,0,0,1,.33-.6.49.49,0,0,1,.61.33,50.4,50.4,0,0,1,1.3,6.37,53.65,53.65,0,0,1,.46,12.06,34.71,34.71,0,0,1-1.77,8.65A.49.49,0,0,1,171.13,265.27Z"/>
    <path class="cls-25" d="M90,209.89c-2.78,0-4.47-.09-4.49-.09a.49.49,0,0,1-.47-.51.51.51,0,0,1,.52-.46s3.12.15,7.84,0a.49.49,0,1,1,0,1C92.2,209.88,91.05,209.89,90,209.89Z"/>
    <path class="cls-25" d="M108.88,179.69a.49.49,0,0,1-.21-.93c.32-.15,8-3.8,10.93-4.77a.49.49,0,0,1,.31.93c-2.93,1-10.74,4.69-10.82,4.72A.38.38,0,0,1,108.88,179.69Z"/>
    <path class="cls-25" d="M110.66,184.94a.52.52,0,0,1-.47-.33.49.49,0,0,1,.3-.62c.11,0,10.76-3.88,12.62-5.19a.49.49,0,0,1,.56.8c-2,1.39-12.4,5.15-12.85,5.31A.45.45,0,0,1,110.66,184.94Z"/>
    <path class="cls-28" d="M110.05,149.23l-15,6.14-3-8.88a7.31,7.31,0,0,1,4.15-9.14l.53-.21a7.3,7.3,0,0,1,9.36,3.62Z"/>
    <path class="cls-29" d="M163.05,369.51q0,2.79-.15,5.73c0,.09,0,.18,0,.28-.09,1.38-.23,2.78-.42,4.21l-.47,3.56L159.78,400h-140l10.12-13.9L32.17,383h0l16.2-22.26,11.67-16,2.52-3.47c.44-.6.88-1.19,1.35-1.77.18-.25.37-.49.57-.73q.92-1.2,1.89-2.31s0,0,0,0a61.68,61.68,0,0,1,15.29-13c.53-.31,1.06-.61,1.59-.88,8.63-4.63,17.36-5.79,24.43-2.62l16.78,7.49.91.4,13.08,5.84a26.92,26.92,0,0,1,11.1,4.67c6.15,4.44,10.39,11.56,12.31,20.54A54.2,54.2,0,0,1,163.05,369.51Z"/>
    <path class="cls-29" d="M170.23,333.23c-1.19,5-2,9.19-2.7,13.09-1.32,7.44-2.2,13.85-4.48,23.19-.05.29-.14.61-.21.92q-3.43-2.81-7-5.25c-19.22-13.46-40.43-20.29-61-24.05-.32,0-.64-.11-1-.17-9.52-1.7-18.91-2.75-27.88-3.52a6.91,6.91,0,0,1,.41-1s0,0,0,0c2.07-4.35,11-22,16.85-33.23.55-1,1.06-2,1.54-2.95,0-.14.12-.27.19-.42,3.61-6.86,7.18-13.71,10.75-20.49C117.87,284,140.3,294,161.55,309.52A22.86,22.86,0,0,1,170.23,333.23Z"/>
    <path class="cls-4" d="M150,330.22a.59.59,0,0,1-.23-.05.5.5,0,0,1-.21-.68c6.81-13,6.77-19.48,5.54-22.61a4.45,4.45,0,0,0-2.23-2.65.51.51,0,0,1-.31-.64.5.5,0,0,1,.64-.3,5.31,5.31,0,0,1,2.83,3.22c1.31,3.32,1.4,10.09-5.59,23.44A.49.49,0,0,1,150,330.22Z"/>
    <path class="cls-4" d="M109.53,348.45h-.1a.5.5,0,0,1-.39-.59c1.12-5.5,4.41-14.31,5-15a.5.5,0,0,1,.76.65A82.48,82.48,0,0,0,110,348.05.49.49,0,0,1,109.53,348.45Z"/>
    <path class="cls-4" d="M112.73,350.36a.47.47,0,0,1-.3-.1.5.5,0,0,1-.1-.7,113.22,113.22,0,0,0,15.6-31.88.52.52,0,0,1,.63-.34.5.5,0,0,1,.33.62,114.54,114.54,0,0,1-15.76,32.2A.51.51,0,0,1,112.73,350.36Z"/>
    <path class="cls-4" d="M167.53,346.32c-1.36,7.68-3.45,18-4.59,29-1.54-3.33-4.73-8.51-7.09-10.15,3.51-2.46,8-7.34,11-17A17.36,17.36,0,0,1,167.53,346.32Z"/>
    <path class="cls-4" d="M162.15,383.33h-.1a.51.51,0,0,1-.39-.59c1.05-5.31.27-9.76-2.39-13.6-4.64-6.7-15.31-11.46-31.72-14.16-9.41-1.55-13.94-4.14-19.18-7.13A82.39,82.39,0,0,0,93.87,341c-1.81-.66-3.7-1.27-5.79-1.87-12.17-3.54-19.1-1.59-22.78.66a11.34,11.34,0,0,0-4.5,4.75.5.5,0,0,1-.65.28.49.49,0,0,1-.28-.65,12.11,12.11,0,0,1,4.91-5.23c3.85-2.36,11.06-4.41,23.58-.77,2.1.61,4,1.23,5.85,1.89A83.81,83.81,0,0,1,108.86,347c5.16,2.95,9.62,5.49,18.86,7,16.91,2.78,27.5,7.55,32.37,14.58,2.79,4,3.64,8.85,2.55,14.36A.5.5,0,0,1,162.15,383.33Z"/>
    <path class="cls-4" d="M30.23,386.2a.52.52,0,0,1-.35-.14.5.5,0,0,1,0-.71c.9-.94,1.72-1.76,2.5-2.51A80.39,80.39,0,0,1,53.2,367.75c11.81-5.7,20.4-5.11,24.07-4.86a11.66,11.66,0,0,0,1.28.06.51.51,0,0,1,.52.48.5.5,0,0,1-.48.52c-.31,0-.76,0-1.38-.06-3.59-.25-12-.83-23.58,4.76a79.2,79.2,0,0,0-20.56,14.91c-.78.74-1.59,1.56-2.48,2.48A.48.48,0,0,1,30.23,386.2Z"/>
    <path class="cls-4" d="M130.53,400h-1.1c-1.1-2.41-2.17-4.59-3.17-6.51-1.83-3.53-3.42-6.21-4.45-7.95-.65-1.09-1-1.75-1.19-2.1a.51.51,0,0,1,.27-.65.5.5,0,0,1,.66.27c.12.28.54,1,1.12,2A144.49,144.49,0,0,1,130.53,400Z"/>
    <path class="cls-4" d="M94,340.52c-1.76-.64-3.68-1.26-5.82-1.88-12.08-3.52-19.17-1.74-23.18.72l-.55-.58q.92-1.2,1.89-2.31s0,0,0,0c2.07-4.35,11-22,16.85-33.23-1.87,6.84-3.08,14.45-1.56,20.21a13.8,13.8,0,0,0,.79,2.35A40.17,40.17,0,0,0,94,340.52Z"/>
    <path class="cls-4" d="M53.42,368.2a79,79,0,0,0-20.7,15c-.2-.06-.37-.12-.55-.16l16.21-22.27c-.83,2.45-1.19,4.67-.24,5.75C49.32,367.91,51.45,368.24,53.42,368.2Z"/>
  </g>
</svg>
