<?xml version="1.0" encoding="utf-8"?>
<!-- Generator: Adobe Illustrator 26.3.1, SVG Export Plug-In . SVG Version: 6.00 Build 0)  -->
<svg version="1.1" id="Layer_1" xmlns="http://www.w3.org/2000/svg" xmlns:xlink="http://www.w3.org/1999/xlink" x="0px" y="0px"
	 viewBox="0 0 1024 1024" style="enable-background:new 0 0 1024 1024;" xml:space="preserve">
<style type="text/css">
	.st0{fill:#00D96D;}
	.st1{fill:#00D96D;}
	.st2{fill:#00D96D;}
	.st3{fill:#00D96D;}
	.st4{fill:#C0FDFF;}
	.st5{fill:#7FDAFF;}
	.st6{fill:#69BCFF;}
	.st7{fill:#7FC4FF;}
	.st8{opacity:0.2;fill:url(#SVGID_1_);enable-background:new    ;}
	.st9{fill:#FF5088;}
	.st10{fill:#FF7F88;}
	.st11{opacity:0.3;fill:url(#SVGID_00000155853517877392968950000016980123731847174044_);enable-background:new    ;}
	.st12{fill:#523988;}
	.st13{fill:#FFA661;}
	.st14{fill:#9D5088;}
	.st15{fill:#685088;}
	.st16{opacity:0.2;fill:url(#SVGID_00000050646225966445888110000001022493879787323787_);enable-background:new    ;}
	.st17{opacity:0.5;fill:url(#SVGID_00000005244964666313711190000003003995453252781488_);enable-background:new    ;}
	.st18{opacity:0.5;fill:url(#SVGID_00000152254645343662455110000010819329973685263776_);enable-background:new    ;}
	.st19{opacity:0.2;fill:url(#SVGID_00000057122134319566713060000003940386109186737844_);enable-background:new    ;}
	.st20{clip-path:url(#SVGID_00000132058678474382972190000003755129054664145037_);}
	.st21{fill:#CCCCCC;}
	.st22{fill:#C7C7C7;}
	.st23{fill:#C2C2C2;}
	.st24{fill:#BDBDBD;}
	.st25{fill:#B8B8B8;}
	.st26{fill:#B3B3B3;}
	.st27{fill:#ADADAD;}
	.st28{fill:#A8A8A8;}
	.st29{fill:#A3A3A3;}
	.st30{fill:#9E9E9E;}
	.st31{fill:#5AA2DB;}
	.st32{fill:#DBDBDB;}
	.st33{fill:#5191C5;}
</style>
<g>
	<g id="OBJECTS">
		<g>
			<path class="st0" d="M147.7,615.1c12.1,7.7,22,18.5,28.3,31.4c5.5-0.3,10.9,1.1,15.5,4c13.1,7.6,24.1,23.4,28.4,39.2
				c0.9,0.4,1.8,0.9,2.7,1.4c20.7,12,37.5,41,37.4,64.7c0,0.2,0,0.4,0,0.6L72.5,648.2v-0.6c0-23.8,16.9-33.4,37.6-21.6l1.2,0.7
				C115.3,610.4,130.1,605,147.7,615.1z"/>
			<g>
				<g>
					<polygon class="st1" points="451.9,777.2 451.9,51.3 737.7,216.2 737.7,942.1 					"/>
					<polygon class="st2" points="469.1,696.3 469.1,102.4 720.5,247.6 720.5,841.5 					"/>
					<path class="st3" d="M619,189L469.1,338.9v56.6l185.8-185.8L619,189z M691.2,230.7L469.1,452.7v145.5l251.4-251.4v-99.2
						L691.2,230.7z"/>
					<polygon class="st4" points="451.9,51.3 478.3,36 764.1,201 737.7,216.2 					"/>
					<polygon class="st5" points="764.1,201 764.1,926.9 737.7,942.1 737.7,216.2 					"/>
					<g>
						<polygon class="st3" points="753.5,349.4 760.6,353.6 753.5,357.7 746.4,353.6 						"/>
						<polygon class="st1" points="746.4,353.6 746.4,369.2 753.5,373.3 753.5,357.7 						"/>
						<polygon class="st6" points="760.6,353.6 760.6,369.2 753.5,373.3 753.5,357.7 						"/>
					</g>
					<g>
						<polygon class="st3" points="753.5,311.4 760.6,315.5 753.5,319.6 746.4,315.5 						"/>
						<polygon class="st1" points="746.4,315.5 746.4,351 753.5,355.1 753.5,319.6 						"/>
						<polygon class="st6" points="760.6,315.5 760.6,351 753.5,355.1 753.5,319.6 						"/>
					</g>
					<g>
						<polygon class="st3" points="753.5,273.3 760.6,277.4 753.5,281.5 746.4,277.4 						"/>
						<polygon class="st1" points="746.4,277.4 746.4,312.9 753.5,317 753.5,281.5 						"/>
						<polygon class="st6" points="760.6,277.4 760.6,312.9 753.5,317 753.5,281.5 						"/>
					</g>
					<g>
						<path class="st7" d="M597.5,805.8c-0.9,15.8-11.8,26.3-24.3,23.5c-12.5-2.8-21.9-18-20.9-33.7c1-15.8,11.8-26.3,24.3-23.4
							C589.1,774.9,598.5,790,597.5,805.8z"/>
						<path class="st3" d="M593.4,804.9c-0.8,12.9-9.7,21.6-19.9,19.1c-10.2-2.5-18-14.6-17-27.5c0.9-12.9,9.6-21.6,19.9-19.1
							C586.5,779.8,594.1,792,593.4,804.9z"/>
					</g>
					<g>
						<path class="st5" d="M631.2,184.4l-63-36.4c-2.8-2.4-4.2-6-3.6-9.6l0,0c0.5-4,2.7-6,5.1-4.7l63,36.4c2.8,2.4,4.2,6,3.6,9.6
							l0,0C635.8,183.7,633.5,185.8,631.2,184.4z"/>
						<path class="st5" d="M632.8,170.1l-63-36.4c-1.4-0.8-3.1-0.3-3.9,1c0,0.1-0.1,0.1-0.1,0.2c0.5,0,0.9,0.2,1.3,0.4l63,36.4
							c2.8,2.4,4.2,6,3.6,9.6l0,0c-0.1,1.3-0.4,2.5-1.1,3.6c1.8,0,3.6-1.8,3.8-5l0,0C637.1,176.2,635.7,172.5,632.8,170.1z"/>
					</g>
					<path class="st1" d="M638.7,218l-92.3-53.3c-4.2-3.1-7.1-7.8-8-12.9l-4-15.6L655,205.7l-6.7,9.6
						C646.3,218.6,642.1,219.8,638.7,218z"/>
				</g>
				
					<linearGradient id="SVGID_1_" gradientUnits="userSpaceOnUse" x1="779.3042" y1="351.0532" x2="547.2498" y2="856.1993" gradientTransform="matrix(1 0 0 -1 0 1026)">
					<stop  offset="0" style="stop-color:#FFFFFF"/>
					<stop  offset="1" style="stop-color:#000000"/>
				</linearGradient>
				<polygon class="st8" points="451.9,261.9 720.5,678.2 720.5,247.2 				"/>
				<g>
					<path class="st9" d="M520.3,131.6l-50,29.4c0,0-50.1,20.9-50.1,86.7l-50-29.4c0-65.8,50-86.7,50-86.7l50.1-28.8L520.3,131.6z"
						/>
					<path class="st3" d="M570.4,160.5l-50.1,29.4c0,0-50,20.8-50,86.7l-50.1-29.4c0-65.9,50.1-86.7,50.1-86.7l50-28.8L570.4,160.5z
						"/>
					<path class="st9" d="M620.4,189.4l-50,29.4c0,0-50.1,20.8-50.1,86.7l-50-29.4c0-65.9,50-86.7,50-86.7l50.1-28.8L620.4,189.4z"
						/>
					<path class="st3" d="M670.5,218.3l-50.1,29.4c0,0-50,20.9-50,86.6l-50.1-29.4c0-65.8,50.1-86.7,50.1-86.7l50-28.8L670.5,218.3z
						"/>
					<path class="st9" d="M720.5,247.2l-50,29.6c0,0-50.1,20.8-50.1,86.7l-50-29.6c0-65.9,50-86.7,50-86.7l50.1-28.8L720.5,247.2z"
						/>
					<path class="st10" d="M720.5,247.2l-50,29.6c0,0-50.1,20.8-50.1,86.7l3.6-2.5c-0.8-58.9,50-82.3,50-82.3l46.8-27.4L720.5,247.2
						z"/>
				</g>
				
					<linearGradient id="SVGID_00000046299606737717916580000016671816092904848828_" gradientUnits="userSpaceOnUse" x1="488.8837" y1="738.191" x2="523.735" y2="799.9451" gradientTransform="matrix(1 0 0 -1 0 1026)">
					<stop  offset="0" style="stop-color:#FFFFFF"/>
					<stop  offset="1" style="stop-color:#000000"/>
				</linearGradient>
				
					<path style="opacity:0.3;fill:url(#SVGID_00000046299606737717916580000016671816092904848828_);enable-background:new    ;" d="
					M646.1,294.6L393.5,152.1c-11.9,13.5-23.3,34.7-23.3,66.1l50,29.4c0,0,0-0.3,0-0.5l50.1,29.6v-0.5l50,29.3c0,0,0-0.3,0-0.5
					l50.1,29.3v-0.5l50,29.4C620.4,329.7,633.4,307.9,646.1,294.6L646.1,294.6z"/>
			</g>
			<g>
				<path class="st3" d="M328.5,235.5c3.8-2.2,6.9-0.4,6.9,4c-0.3,4.8-2.8,9.3-6.9,11.9c-3.8,2.2-6.9,0.4-6.9-4
					C321.9,242.6,324.4,238.2,328.5,235.5z"/>
				<g>
					<path class="st3" d="M262.6,273.6c3.8-2.2,6.9-0.4,6.9,4c-0.2,4.9-2.8,9.3-6.9,11.9c-3.8,2.2-6.9,0.4-6.9-4
						C256,280.7,258.5,276.2,262.6,273.6z"/>
					<path class="st3" d="M369,101.7c1.6-0.9,2.9,0,2.9,1.7c-0.1,2-1.2,3.9-2.9,5l-8.5,4.9c-1.9,1.2-3.2,3.2-3.6,5.4l-12.6,81.2
						c-0.1,0.4-0.2,0.9-0.4,1.3l-1.9,13c-0.9,5.4-4,10.2-8.5,13.2l-77.5,44.8c-1.6,0.9-2.9,0-2.9-1.7c0.1-2,1.2-3.9,2.8-5l77.7-44.8
						c1.6-1,2.6-2.6,2.9-4.5l1.4-10l-24.7,14.4l-23.1,13.3l-26.4,15.2c-1.4,0.8-2.5,0.4-2.8-0.9l-12.3-51.7c-0.2-1.1,0-2.2,0.5-3.1
						c0.5-1,1.3-1.9,2.2-2.6l97.8-56.5l2.1-13.7c1-5.7,4.3-10.8,9.2-14L369,101.7z M313.1,194.4l1.9-15.9L286.2,195l2.7,13.3
						L313.1,194.4 M342.5,177.4l2.5-16.3l-24.2,14l-1.9,15.9L342.5,177.4 M284.9,189.2l30.7-17.8l1.4-11.9l-34.1,19.7L284.9,189.2
						 M258.7,210.9l3.1,13.1l21.1-12.2l-2.7-13.3L258.7,210.9 M339.1,198.8l2.2-14.1L318,198.1l-1.6,13.8L339.1,198.8 M265.8,241.1
						l20.6-11.9l-2.3-11.5l-20.9,12.1L265.8,241.1 M346.1,153.9l1.9-12.3L322.7,156l-1.4,12l24.6-14.2 M310.4,215.2l1.6-13.8
						l-22.2,12.8l2.3,11.6L310.4,215.2 M254.8,195.2l2.3,9.9l21.8-12.6l-2-10L254.8,195.2"/>
				</g>
			</g>
			<g>
				<g>
					<path class="st3" d="M896.9,486.8l2.1-1.2v4.5l-2.2,1.2v4.3l-5.2,3v-4.3l-7.7,4.5v-4.4l8-18.2l4.9-2.8L896.9,486.8z
						 M891.8,485.2c0-0.8,0-1.3,0-1.3l0,0c-0.3,0.9-0.6,1.9-1,2.8l-2.2,4.9l3.2-1.9v-2.6c0-0.5,0-1.2,0-2"/>
					<path class="st3" d="M857.7,455.6l25.7-7.7l-18,32.4l-2.4-7.7c-8.4,11.6-13.2,25.4-13.8,39.7c0,21.8,15.6,30.7,34.6,19.7
						c19-11,34.4-37.7,34.3-59.5l8.8-5.1c0,27.4-19.3,60.9-43.2,74.7s-43.3,2.7-43.4-24.7c0-17.1,7.5-37.3,20-53.6L857.7,455.6z"/>
				</g>
				<path class="st3" d="M875.6,485.4c1-0.7,2.1-1.1,3.3-1.2c0.9-0.1,1.7,0.2,2.3,0.8c0.6,0.8,0.9,1.7,0.8,2.7
					c0,0.9-0.1,1.7-0.3,2.6c-0.2,0.9-0.5,1.8-0.9,2.7c-0.5,1.1-1,2.2-1.6,3.2c-0.6,1.2-2.1,3.6-4.2,6.9l0,0l7.2-4.2v5l-14.1,8.1v-4
					l4.7-8.2c1.4-2.4,2.2-4,2.7-4.9c0.4-0.7,0.6-1.3,0.9-2.1c0.2-0.5,0.2-1,0.3-1.5c0-0.6-0.2-0.9-0.5-1.1c-0.5-0.1-1,0-1.4,0.3
					c-0.7,0.4-1.4,1-1.9,1.7c-0.8,1-1.5,1.9-2.1,3l-2.9-2.2c1-1.6,1.8-2.8,2.5-3.6c0.7-0.8,1.4-1.6,2.2-2.3
					C873.6,486.5,874.6,485.9,875.6,485.4z"/>
			</g>
			<path class="st3" d="M882.9,153.8l-31,33.1l31.1-2.8l-4.6,5.7c-2.6,3.4-5.9,6.3-9.5,8.5c-2.2,1.4-4.8,2.2-7.4,2.5l-24.8,2.3
				l-0.7,0.7l-4.7,5.1l-14.8,15.7c-1,3.5-2.9,6.6-5.3,9.3c-1.1,1.2-2.5,2.3-3.9,3.2c-3.9,2.3-7.7,1.7-9.3-1.7
				c-2.2-4.6,0.2-12.8,5.3-18.2c1.1-1.2,2.4-2.3,3.9-3.2c3.9-2.3,7.7-1.8,9.3,1.7c0.3,0.7,0.5,1.3,0.6,2.1l12.3-12.8l-0.4-0.9
				c-0.9-2.3-0.9-4.9,0-7.2l0.4-1.4l-12.2,1.1c-0.1,0.9-0.4,1.9-0.6,2.8c-1.5,5.1-4.8,9.5-9.2,12.4c-1.2,0.7-2.5,1.2-3.9,1.3
				c-5.1,0.5-7.5-4.9-5.4-12c1.5-5.1,4.8-9.5,9.3-12.4c1.2-0.7,2.5-1.2,3.9-1.3c2.3-0.3,4.5,1,5.4,3.1l14.8-1.4l4.8-0.4h0.6
				l24.7-26.3c2.2-2.4,4.7-4.4,7.4-6c2.8-1.8,6.2-2.7,9.5-2.6L882.9,153.8z M809.3,230c2.7-2.5,3.8-6.3,2.9-9.8
				c-0.9-1.9-2.9-2.1-5-0.9c-0.8,0.5-1.5,1-2.1,1.7c-2.6,2.5-3.7,6.3-2.8,9.8c0.9,1.9,2.9,2.1,5,0.9
				C807.9,231.3,808.6,230.7,809.3,230 M812.1,199.5c1.2-3.8,0-6.7-2.9-6.5c-0.7,0.1-1.4,0.3-2.1,0.7c-2.4,1.6-4.2,3.9-5,6.7
				c-1.2,3.8,0,6.8,2.9,6.5c0.7-0.1,1.4-0.3,2.1-0.7C809.5,204.6,811.3,202.3,812.1,199.5"/>
			<path class="st3" d="M196.4,132c-15.7,10.2-25.6,27.3-26.5,46c0,16.9,12,23.7,26.7,15.2c15.7-10.2,25.5-27.2,26.5-45.9
				C223,130.3,211.1,123.5,196.4,132z M209.2,150l-11.5,24.3c-0.4,0.8-1,1.6-1.8,2.1c-0.4,0.3-0.9,0.4-1.3,0.3l-8.4-2.2
				c-1-0.3-1.2-1.7-0.5-3.3c0.4-0.9,1-1.6,1.8-2.1c0.4-0.3,0.9-0.3,1.3-0.3l6.6,1.7l10.1-21.6c0.4-0.9,1-1.6,1.8-2.1
				c0.4-0.2,0.9-0.3,1.4-0.3C209.7,147,209.9,148.5,209.2,150L209.2,150z"/>
			<path class="st3" d="M925.3,312.8c-15.7,10.2-25.6,27.3-26.5,46c0,16.9,12,23.7,26.7,15.2c15.7-10.2,25.6-27.3,26.5-46
				C952,311.1,940,304.3,925.3,312.8z M938.1,330.7l-11.6,24.3c-0.4,0.8-1,1.6-1.8,2.1c-0.4,0.3-0.9,0.4-1.3,0.3l-8.4-2.2
				c-1-0.3-1.2-1.8-0.5-3.3c0.4-0.9,1-1.6,1.8-2.1c0.4-0.3,0.9-0.4,1.3-0.3l6.6,1.8l10.2-21.6c0.4-0.9,1-1.6,1.8-2.1
				c0.4-0.3,0.9-0.3,1.4-0.3C938.6,327.7,938.9,329.2,938.1,330.7z"/>
			<g>
				<g>
					<path class="st12" d="M374,413.3L374,413.3c-1.3,0-2.4-1.1-2.4-2.4c0,0,0,0,0-0.1l0.9-55.9c0.4-25.7-12.1-52.4-28-59.6
						c-4.7-2.4-10.4-2.2-15,0.6c-7.7,4.9-12.4,16.7-12.6,31.8l-0.9,55.9c0,1.3-1.1,2.4-2.4,2.4l0,0c-1.4,0-2.4-1.1-2.4-2.5
						c0,0,0,0,0,0l0.9-55.9c0.3-16.7,5.9-30.1,14.9-36c5.9-3.7,13.4-4,19.6-0.9c17.4,7.9,31.3,36.7,30.9,64.2l-0.9,55.9
						c0,1.4-1,2.5-2.4,2.5C374.1,413.3,374.1,413.3,374,413.3z"/>
					<g>
						<polygon class="st9" points="267.5,306.9 427,398.9 427,669.1 267.5,577 						"/>
						<polygon class="st13" points="223.1,317.7 382.5,409.7 382.5,679.9 223.1,587.9 						"/>
						<polygon class="st14" points="382.5,409.7 400.2,395.3 400.2,660.3 382.5,679.9 						"/>
						<polygon class="st15" points="400.2,395.3 400.2,660.3 427,669.1 427,398.9 						"/>
						<polygon class="st14" points="223.1,317.7 257.5,322.2 257.5,337.5 						"/>
						<polygon class="st15" points="257.5,322.2 267.5,306.9 267.5,343.4 257.5,337.5 						"/>
					</g>
					
						<linearGradient id="SVGID_00000079464345940448066600000013355447915903271557_" gradientUnits="userSpaceOnUse" x1="223.051" y1="560.2155" x2="382.4534" y2="560.2155" gradientTransform="matrix(1 0 0 -1 0 1026)">
						<stop  offset="0" style="stop-color:#FFFFFF"/>
						<stop  offset="1" style="stop-color:#000000"/>
					</linearGradient>
					
						<polygon style="opacity:0.2;fill:url(#SVGID_00000079464345940448066600000013355447915903271557_);enable-background:new    ;" points="
						223.1,317.7 382.5,613.9 382.5,409.7 					"/>
					
						<linearGradient id="SVGID_00000038407433569855146510000011507473913412591526_" gradientUnits="userSpaceOnUse" x1="267.4668" y1="735.0266" x2="429.0633" y2="595.6934" gradientTransform="matrix(1 0 0 -1 0 1026)">
						<stop  offset="0" style="stop-color:#FFFFFF"/>
						<stop  offset="1" style="stop-color:#000000"/>
					</linearGradient>
					
						<polygon style="opacity:0.5;fill:url(#SVGID_00000038407433569855146510000011507473913412591526_);enable-background:new    ;" points="
						267.5,306.9 347.4,389.5 382.5,409.7 400.2,395.3 427,398.9 					"/>
					<path class="st15" d="M337.4,401L337.4,401c-1.4,0-2.4-1.1-2.4-2.5c0,0,0,0,0,0l0.9-31.5c0.4-25.7-12.2-52.4-28-59.6
						c-4.7-2.5-10.4-2.3-14.9,0.5c-7.7,4.9-12.4,16.8-12.6,31.8l-0.9,31.5c0,1.3-1.1,2.4-2.4,2.4l0,0c-1.4,0-2.4-1.1-2.4-2.5
						c0,0,0,0,0,0l0.9-31.5c0.3-16.7,5.8-30.1,14.9-36c5.9-3.7,13.3-4.1,19.6-0.9c17.5,7.9,31.3,36.7,30.9,64.2l-0.9,31.5
						c0,1.4-1,2.5-2.4,2.6C337.5,401,337.4,401,337.4,401z"/>
				</g>
				<g>
					<path class="st12" d="M266,457.8L266,457.8c-1.3,0-2.4-1.1-2.4-2.5l1.1-55.9c0.4-25.7-12.1-52.4-28-59.6
						c-4.7-2.5-10.4-2.3-15,0.5c-7.7,4.9-12.4,16.7-12.6,31.8l-0.9,55.9c0,1.3-1.1,2.4-2.4,2.4l0,0c-1.3,0-2.4-1.1-2.4-2.4
						c0,0,0,0,0-0.1l0.9-55.9c0.3-16.7,5.9-30.1,14.9-36c5.9-3.7,13.3-4.1,19.6-0.9c17.5,7.9,31.3,36.7,30.9,64.2l-0.9,55.9
						c0,1.4-1,2.5-2.4,2.6C266.2,457.8,266.1,457.8,266,457.8z"/>
					<g>
						<polygon class="st9" points="159.5,351.4 319,443.5 319,629.8 159.5,537.7 						"/>
						<polygon class="st13" points="115,362.3 274.4,454.3 274.4,640.6 115,548.6 						"/>
						<polygon class="st14" points="274.4,454.3 292.2,439.9 292.2,621 274.4,640.6 						"/>
						<polygon class="st15" points="292.2,439.9 292.2,621 319,629.8 319,443.5 						"/>
						<polygon class="st14" points="115,362.3 149.5,366.7 149.5,382.1 						"/>
						<polygon class="st15" points="149.5,366.7 159.5,351.4 159.5,387.9 149.5,382.1 						"/>
						
							<linearGradient id="SVGID_00000072256231739854927280000002278584142022764715_" gradientUnits="userSpaceOnUse" x1="158.8225" y1="689.7205" x2="320.383" y2="550.3871" gradientTransform="matrix(1 0 0 -1 0 1026)">
							<stop  offset="0" style="stop-color:#FFFFFF"/>
							<stop  offset="1" style="stop-color:#000000"/>
						</linearGradient>
						
							<polygon style="opacity:0.5;fill:url(#SVGID_00000072256231739854927280000002278584142022764715_);enable-background:new    ;" points="
							159.5,351.4 230.1,428.6 274.4,454.3 292.2,439.9 319,443.5 						"/>
					</g>
					<path class="st15" d="M229.4,445.6L229.4,445.6c-1.3,0-2.4-1.1-2.4-2.5l0.9-31.5c0.4-25.7-12.1-52.5-28-59.7
						c-4.7-2.4-10.4-2.2-15,0.6c-7.7,4.9-12.4,16.7-12.6,31.8l-0.9,31.4c0,1.3-1.1,2.4-2.4,2.4l0,0c-1.3,0-2.4-1.1-2.4-2.4
						c0,0,0,0,0-0.1l0.9-31.5c0.3-16.7,5.9-30.1,14.9-36c5.9-3.7,13.3-4.1,19.6-0.9c17.5,7.9,31.3,36.7,30.9,64.2l-0.9,31.5
						c0,1.4-1,2.5-2.4,2.6C229.5,445.6,229.4,445.6,229.4,445.6z"/>
					
						<linearGradient id="SVGID_00000023275949054242308100000017907199632442455451_" gradientUnits="userSpaceOnUse" x1="115.0443" y1="557.5899" x2="274.4467" y2="557.5899" gradientTransform="matrix(1 0 0 -1 0 1026)">
						<stop  offset="0" style="stop-color:#FFFFFF"/>
						<stop  offset="1" style="stop-color:#000000"/>
					</linearGradient>
					
						<polygon style="opacity:0.2;fill:url(#SVGID_00000023275949054242308100000017907199632442455451_);enable-background:new    ;" points="
						115,362.3 274.4,574.6 274.4,454.3 					"/>
				</g>
			</g>
			<g>
				<polygon class="st9" points="350.9,587.6 320.1,569.7 172.9,654.7 203.7,672.6 				"/>
				<polygon class="st14" points="203.6,642.3 172.8,624.4 96.2,719.6 127,737.5 				"/>
				<polygon class="st15" points="203.6,642.3 127,737.5 203.9,744 203.8,713.7 351,628.7 350.9,587.6 203.7,672.6 				"/>
			</g>
			<g>
				<polygon class="st5" points="442.4,715.4 411.6,697.5 411.5,667.2 442.3,685.1 				"/>
				<polygon class="st4" points="442.1,613.7 411.3,595.7 488.2,602.3 518.9,620.2 				"/>
				<polygon class="st5" points="442.2,643.9 411.4,626.1 411.3,595.7 442.1,613.7 				"/>
				<polygon class="st4" points="295,728.9 264.2,711.1 411.4,626.1 442.2,643.9 				"/>
				<polygon class="st5" points="295.1,770.1 264.3,752.2 264.2,711.1 295,728.9 				"/>
				<polygon class="st3" points="442.1,613.7 518.9,620.2 442.4,715.4 442.3,685.1 295.1,770.1 295,728.9 442.2,643.9 				"/>
			</g>
			<path class="st3" d="M655.8,15.6c12.5,7.9,22.6,19.1,29.1,32.4c5.6-0.3,11.2,1.1,16,4.2c13.4,7.7,24.8,24.1,29.2,40.2
				c0.9,0.5,1.8,0.9,2.7,1.4c21.3,12.3,38.5,42.1,38.4,66.6c0,0,0,0.4,0,0.6L578.4,49.7v-0.6c0-24.5,17.4-34.3,38.7-22
				c0.4,0.2,0.8,0.5,1.2,0.8C622.5,10.6,637.7,5.1,655.8,15.6z"/>
			<path class="st3" d="M398.2,13.5c6.8,4.2,12.2,10.3,15.8,17.4c3-0.2,6.1,0.6,8.6,2.3c7.7,5,13.4,12.7,15.8,21.6l1.5,0.8
				c12.3,8,20,21.4,20.8,36c0,0,0,0.2,0,0.3L356.3,31.7v-0.3c0-13.2,9.4-18.6,20.9-11.9l0.6,0.4C380.3,10.8,388.5,7.8,398.2,13.5z"
				/>
			<path class="st3" d="M750.2,485.4c9.1,5.8,16.5,13.9,21.3,23.6c4.1-0.2,8.2,0.8,11.7,3.1c10.5,6.8,18.1,17.3,21.3,29.4
				c0.7,0.3,1.3,0.6,2,1c16.6,10.8,27,28.9,28.1,48.6c0,0,0,0.3,0,0.4l-140.9-81.3v-0.5c0-18,12.7-25.2,28.3-16.1l0.8,0.5
				C725.9,481.8,737,477.7,750.2,485.4z"/>
			<g>
				<path class="st10" d="M824.9,263.5l1.3-0.5l0.8-0.2h0.8h1h0.6h1.5c0.5,0,0.9,0.1,1.4,0.2h0.3l1.1,0.3h0.3l1.3,0.6l-5-2.9l0,0
					l-0.9-0.5h-0.2h-0.3h-0.5h-0.6h-0.4h-1.1h-0.5c-0.2,0-0.5,0-0.7,0h-1h-0.4c-0.2,0-0.4,0-0.5,0l-0.8,0.2h-0.4h-0.4l-1.4,0.5h-0.4
					h-0.3c-0.8,0.3-1.6,0.7-2.4,1.2l-155.5,89.4c-0.8,0.4-1.6,1-2.3,1.5l-0.7,0.6c-0.4,0.3-0.7,0.6-1.1,0.9l-0.4,0.5l-0.4,0.4
					l-0.5,0.5c-0.4,0.4-0.7,0.8-1,1.2c-0.1,0.1-0.2,0.3-0.3,0.4l-0.2,0.2l-0.3,0.4l-0.7,1l-0.6,1v0.2c0,0.3-0.3,0.6-0.5,0.9l-0.5,1
					l-0.4,1l0,0c0,0.4-0.3,0.7-0.4,1.1l-0.4,1.2c0,0.2,0,0.4,0,0.6v0.3v0.4c0,0.5-0.3,0.9-0.4,1.4c0,0.3,0,0.6,0,0.8
					c0,0.1,0,0.3,0,0.4c0,0.1,0,0.3,0,0.4c-0.1,0.8-0.1,1.6,0,2.3l0.3,100c-0.3,3,1.1,6,3.6,7.8l5,2.9c-2.5-1.8-3.9-4.7-3.6-7.8
					l-0.3-100c0-0.9,0.1-1.9,0.2-2.8v-0.4c0.1-0.9,0.3-1.8,0.6-2.7v-0.2c0.3-1,0.6-1.9,1-2.9l0,0c0.4-1,0.9-1.9,1.4-2.8l0,0
					c0.5-0.9,1.1-1.7,1.7-2.6l0.2-0.3c0.5-0.7,1.1-1.4,1.8-2.1l0.4-0.4l1.5-1.4l0.7-0.6c0.7-0.6,1.5-1.1,2.3-1.6l155.4-89.9
					c0.8-0.5,1.6-0.8,2.4-1.2L824.9,263.5z"/>
				<path class="st9" d="M866.4,288.8l-29.8-24.4c-3.6-3-9-2.8-14.7,0.5l-155.4,89.9c-7.1,4.6-11.6,12.4-12,20.9l0.3,100
					c0,7.7,5.4,10.8,12.1,6.9l155.4-89.8c6.4-4,11.5-9.8,14.8-16.7l29.7-59.7C872.2,305,872.1,293.5,866.4,288.8z M847,317.8
					c-3.6,2.2-6.7,0.4-6.7-3.8c0.2-4.7,2.7-9,6.7-11.6c3.6-2.1,6.7-0.4,6.7,3.8C853.4,311,850.9,315.2,847,317.8L847,317.8z"/>
				<path class="st3" d="M848.7,309.8c-1-0.1-1.9,0.6-2,1.6s0.6,1.9,1.6,2c1,0,24.3,3.6,21.2,45.3c-1.5,19.7-10.2,26-20.2,33.3
					c-12,8.7-25.7,18.6-30.6,52.2c-3.1,21.2-26,33.9-44.7,32c-16.3-1.7-25.4-13.5-24.4-31.7c0.2-3.6,0.6-7.2,1.4-10.8l-4.1,2.3
					c-0.4,2.7-0.7,5.5-0.9,8.2c-1.3,23.9,13.5,34,27.7,35.4c1.3,0.1,2.7,0.2,4,0.2c19.4,0,41.4-13.6,44.6-35.2
					c4.7-32.2,17.7-41.6,29.2-49.8c10.4-7.5,20.1-14.6,21.6-36C876.5,313.7,849,309.9,848.7,309.8z"/>
			</g>
			<path class="st0" d="M695.8,874.1c12.2,7.7,22,18.5,28.3,31.4c5.5-0.3,10.9,1.1,15.5,4c13.1,7.6,24.1,23.4,28.4,39.2
				c0.9,0.4,1.8,0.9,2.7,1.4c20.7,12,37.4,41,37.4,64.7c0,0.2,0,0.4,0,0.6L620.8,907.1c0-0.2,0-0.4,0-0.6
				c0-23.8,16.9-33.4,37.7-21.6l1.1,0.7C663.5,869.3,678.3,863.9,695.8,874.1z"/>
			<path class="st0" d="M301.5,810.6c12.1,7.7,22,18.5,28.3,31.4c5.5-0.3,10.9,1.1,15.5,4c13.1,7.6,24.1,23.4,28.4,39.2
				c0.9,0.4,1.8,0.9,2.6,1.4c20.7,12,37.5,41,37.4,64.7c0,0.2,0,0.4,0,0.6L226.3,843.6c0-0.2,0-0.4,0-0.6
				c0-23.8,16.9-33.4,37.6-21.6l1.2,0.7C269.1,805.9,283.9,800.4,301.5,810.6z"/>
			<g>
				<path class="st6" d="M745.2,745.7c12-6.9,21.6-1.4,21.8,12.4c-0.8,15.2-8.8,29.2-21.6,37.5c-6.6,3.8-12.5,3.8-16.5,0.8
					c-3.7,7.5-9.4,13.8-16.5,18.3c-12,6.9-21.8,1.4-21.8-12.4c0.8-15.2,8.8-29.2,21.6-37.5c6.6-3.8,12.5-3.8,16.5-0.8
					C732.4,756.5,738.1,750.2,745.2,745.7z"/>
				<g>
					<g>
						<defs>
							<path id="SVGID_00000143589938802953555920000010815519983736078508_" d="M574.8,827.5l4.7,2.7c-3.3-1.6-7.2-1.2-10.1,1
								l-4.7-2.7C567.6,826.3,571.5,825.9,574.8,827.5z"/>
						</defs>
						<clipPath id="SVGID_00000019639290211726736870000001600155774413850534_">
							<use xlink:href="#SVGID_00000143589938802953555920000010815519983736078508_"  style="overflow:visible;"/>
						</clipPath>
						<g style="clip-path:url(#SVGID_00000019639290211726736870000001600155774413850534_);">
							<path class="st21" d="M569.3,831.2l-4.7-2.7c0.6-0.4,1.3-0.7,2-1l4.7,2.7C570.6,830.5,570,830.8,569.3,831.2"/>
							<path class="st22" d="M571.3,830.2l-4.7-2.7c0.5-0.2,1.1-0.4,1.7-0.6l4.7,2.7L571.3,830.2"/>
							<path class="st23" d="M573,829.6l-4.7-2.7l1.2-0.3l4.7,2.7L573,829.6"/>
							<path class="st24" d="M574.3,829.3l-4.7-2.7h1.1l4.7,2.7H574.3"/>
							<path class="st25" d="M575.3,829.2l-4.7-2.7h0.9l4.7,2.7L575.3,829.2"/>
							<path class="st26" d="M576.3,829.2l-4.7-2.7h0.9l4.7,2.7L576.3,829.2"/>
							<path class="st27" d="M577.1,829.3l-4.7-2.7c0.3,0.1,0.6,0.1,0.8,0.2l4.7,2.7L577.1,829.3"/>
							<path class="st28" d="M577.9,829.5l-4.7-2.7l0.8,0.3l4.7,2.7L577.9,829.5"/>
							<path class="st29" d="M578.7,829.8l-4.7-2.7l0.7,0.4l4.7,2.7L578.7,829.8"/>
							<path class="st30" d="M579.4,830.1l-4.7-2.7l0,0L579.4,830.1L579.4,830.1"/>
						</g>
					</g>
				</g>
				<polygon class="st31" points="468.6,846.6 463.9,843.8 785.9,657.9 790.6,660.7 				"/>
				<path class="st3" d="M468.5,808.7l322-185.9v37.9l-322,185.9L468.5,808.7z M622.9,744.9l1.9-1.1l-3.2-3.6l3.1-6.9l-1.8,1
					l-1.3,2.9l-0.9,2.3l0,0c-0.3-0.4-0.6-0.8-0.9-1.2l-1.3-1.5l-1.9,1l3.1,3.3l-3.2,7.2l1.8-1l1.3-3.2c0.4-0.8,0.7-1.5,1-2.4l0,0
					c0.3,0.4,0.6,0.9,1,1.3l1.3,1.6 M503,814.1l1.9-1.1l-3.2-3.6l3.1-6.8l-1.8,1l-1.3,3c-0.3,0.7-0.6,1.4-0.9,2.3l0,0l-0.9-1.2
					l-1.3-1.5l-1.9,1.1l3.1,3.3l-3.2,7.2l1.8-1l1.3-3.1c0.3-0.8,0.6-1.6,1-2.4l0,0c0.3,0.4,0.6,0.9,1,1.3L503,814.1 M551.7,785.9
					l1.9-1.1l-3.2-3.6l3.1-6.8l-1.8,1l-1.3,2.9c-0.3,0.8-0.6,1.5-0.9,2.3l0,0c-0.3-0.4-0.6-0.8-0.9-1.2l-1.3-1.5l-1.8,1.1l3.1,3.3
					l-3.2,7.2l1.8-1.1l1.3-3.1c0.3-0.8,0.6-1.5,0.9-2.4l0,0c0.3,0.4,0.6,0.9,1,1.3L551.7,785.9 M574.2,772.8l1.9-1.1l-3.2-3.6
					l3.1-6.8l-1.8,1l-1.3,2.9c-0.3,0.8-0.6,1.4-0.9,2.3l0,0c-0.3-0.4-0.6-0.8-0.9-1.2l-1.3-1.5l-1.8,1.1l3.1,3.3l-3.2,7.2l1.8-1.1
					l1.3-3.1c0.3-0.8,0.6-1.5,0.9-2.4l0,0c0.3,0.4,0.6,0.8,1,1.2l1.3,1.6 M583,767.6l1.9-1.1l-3.2-3.6l3.1-6.8l-1.8,1l-1.3,3
					l-0.9,2.3l0,0c-0.3-0.4-0.6-0.8-0.9-1.2l-1.3-1.5l-1.9,1.1l3.1,3.3l-3.2,7.2l1.8-1l1.3-3.1l1-2.4l0,0c0.3,0.4,0.6,0.9,1,1.3
					L583,767.6 M494.3,818.7l1.9-1.1l-3.2-3.6l3.1-6.8l-1.8,1l-1.3,3c-0.3,0.8-0.6,1.4-0.9,2.3l0,0c-0.3-0.4-0.6-0.8-0.9-1.2
					l-1.3-1.5l-1.8,1.1l3.1,3.3l-3.2,7.2l1.8-1l1.3-3.1c0.3-0.8,0.6-1.5,0.9-2.4l0,0c0.3,0.5,0.6,0.9,1,1.3L494.3,818.7
					 M631.6,739.9l1.9-1.1l-3.2-3.6l3.1-6.9l-1.8,1l-1.3,2.9c-0.3,0.8-0.6,1.5-0.9,2.3l0,0c-0.3-0.4-0.6-0.8-0.9-1.2l-1.3-1.5
					l-1.8,1.1l3.1,3.3l-3.2,7.2l1.8-1l1.3-3.2c0.3-0.8,0.6-1.5,0.9-2.4l0,0c0.3,0.4,0.6,0.9,1,1.3l1.3,1.6 M614.1,749.9l1.9-1.1
					l-3.2-3.6l3.1-6.9l-1.8,1l-1.3,3l-0.9,2.2l0,0c-0.3-0.4-0.6-0.8-0.9-1.2l-1.3-1.5l-1.8,1l3.1,3.3l-3.2,7.2l1.8-1l1.3-3.1
					c0.4-0.8,0.7-1.6,1-2.4l0,0c0.3,0.4,0.6,0.9,1,1.3L614.1,749.9 M534.2,795.9l1.9-1.1l-3.2-3.6l3.1-6.8l-1.8,1l-1.3,2.9l-0.9,2.3
					l0,0c-0.3-0.4-0.6-0.8-0.9-1.2l-1.3-1.5l-1.9,1l3.1,3.3l-3.2,7.2l1.8-1l1.3-3.1c0.4-0.8,0.7-1.6,1-2.4l0,0
					c0.3,0.4,0.6,0.9,1,1.3L534.2,795.9 M542.9,790.9l1.9-1.1l-3.2-3.6l3.1-6.8l-1.8,1l-1.3,2.9l-0.9,2.3l0,0
					c-0.3-0.4-0.6-0.8-0.9-1.2l-1.3-1.5l-1.8,1l3.1,3.3l-3.2,7.2l1.8-1l1.3-3.2c0.4-0.8,0.6-1.5,1-2.4l0,0c0.3,0.4,0.6,0.9,1,1.3
					L542.9,790.9 M591.6,762.7l1.9-1.1l-3.2-3.6l3.1-6.8l-1.8,1l-1.3,3c-0.3,0.7-0.6,1.4-0.9,2.2l0,0c-0.3-0.4-0.6-0.8-0.9-1.2
					l-1.3-1.5l-1.8,1.1l3.1,3.3l-3.2,7.2l1.8-1l1.3-3.1l1-2.4l0,0c0.3,0.4,0.6,0.9,1,1.3l1.3,1.6 M511.7,809.1l1.9-1.1l-3.2-3.6
					l3.1-6.8l-1.8,1l-1.3,3c-0.3,0.7-0.6,1.4-0.9,2.3l0,0c-0.3-0.4-0.6-0.8-0.9-1.2l-1.3-1.5l-1.8,1.1l3.1,3.3l-3.2,7.2l1.8-1
					l1.3-3.1c0.3-0.8,0.6-1.6,0.9-2.4l0,0c0.3,0.4,0.6,0.9,1,1.3L511.7,809.1 M563,774.3v-1.2l-4.7,2.7v1.4l4.7-2.7 M523.1,797.6
					v-1.4l-4.6,2.7v1.4L523.1,797.6 M603,751.4V750l-4.6,2.7v1.4L603,751.4"/>
				<polygon class="st32" points="502.1,870 497.4,867.3 564.7,828.5 569.3,831.2 				"/>
				<path class="st6" d="M469,991.6l-0.4-145l322-185.9l0.4,145c-0.4,7.7-4.4,14.7-10.8,19l-300,173.2
					C474,1001.3,469,998.5,469,991.6z M712.2,764.8c-12.8,8.3-20.8,22.3-21.6,37.5c0,13.8,9.8,19.3,21.8,12.4
					c7.1-4.5,12.8-10.8,16.5-18.3c4,3.1,9.9,3.1,16.5-0.8c12.8-8.3,20.8-22.3,21.6-37.5c0-13.8-9.8-19.3-21.8-12.4
					c-7.1,4.5-12.8,10.8-16.5,18.3C724.7,760.9,718.8,761,712.2,764.8 M502.1,870c-8.4,5.5-13.8,14.6-14.4,24.7
					c0,9,6.5,12.7,14.4,8.2l67.3-38.8c8.4-5.5,13.8-14.6,14.4-24.7c0-9-6.5-12.7-14.4-8.2L502.1,870 M502.1,919.2
					c-8.4,5.5-13.8,14.6-14.4,24.7c0,9,6.5,12.7,14.4,8.2l67.3-38.8c8.5-5.4,13.8-14.6,14.4-24.6c0-9-6.4-12.7-14.4-8.2L502.1,919.2
					"/>
				<path class="st5" d="M469,991.6l-0.4-145l-4.7-2.7l0.4,145.1c-0.3,2.8,0.9,5.6,3.2,7.2l4.7,2.7
					C469.9,997.2,468.6,994.4,469,991.6z"/>
				<polygon class="st4" points="468.6,846.6 463.9,843.8 463.8,805.9 468.5,808.7 				"/>
				<path class="st5" d="M782.6,592.5L782.6,592.5l-0.5-0.3l0,0h-0.2h-0.3h-0.3H781h-0.6h-1.5h-0.3H778h-0.3h-0.3l-0.8,0.3h-0.3l0,0
					l-1.4,0.7l-300,173.2c-0.7,0.4-1.4,0.9-2.1,1.4l-0.6,0.5l-1,0.9l-0.4,0.4l-0.4,0.4l-0.4,0.4l-0.9,1.1l-0.3,0.4l0,0
					c-0.1,0.1-0.2,0.3-0.3,0.4l-0.6,0.9l-0.6,0.9v0.2l-0.4,0.8c-0.2,0.3-0.3,0.6-0.5,0.9c-0.1,0.3-0.3,0.6-0.4,0.9l0,0l0,0
					c0,0.3-0.3,0.6-0.4,1c-0.1,0.3-0.3,0.7-0.4,1s0,0.3,0,0.5v0.2v0.4c0,0.4-0.2,0.8-0.3,1.3c0,0.3,0,0.5,0,0.8c0,0,0,0.3,0,0.4
					c0,0.1,0,0.2,0,0.4c-0.1,0.7-0.1,1.4,0,2.2v20.5l4.7,2.7v-20.5c0-0.8,0.1-1.7,0.2-2.5c0-0.1,0-0.3,0-0.4
					c0.1-0.8,0.3-1.6,0.5-2.4v-0.2c0.3-0.9,0.6-1.8,1-2.6l0,0c0.4-0.9,0.8-1.7,1.3-2.6l0,0c0.5-0.8,1-1.6,1.5-2.3v-0.2
					c0.5-0.7,1-1.3,1.6-1.9l0.4-0.4c0.4-0.5,0.9-0.9,1.4-1.3l0.6-0.6c0.7-0.5,1.4-1,2.1-1.4l300-173.2c0.4-0.3,0.9-0.5,1.4-0.7
					l0.4-0.2l0.8-0.3h0.5h0.5h0.6h1.2h0.8h0.2l0.6,0.2h0.2c0.3,0.1,0.5,0.2,0.7,0.4L782.6,592.5z"/>
				<path class="st6" d="M779.4,596c6-3.6,10.8-0.7,11,6.3v20.5l-322,185.9v-20.5c0.4-7.7,4.5-14.8,11-19L779.4,596z"/>
				<path class="st3" d="M569.3,831.2c7.9-4.5,14.4-0.9,14.4,8.2c-0.6,10-5.9,19.2-14.4,24.7l-67.3,38.8c-7.8,4.5-14.4,0.9-14.4-8.2
					c0.6-10,5.9-19.2,14.4-24.7L569.3,831.2z"/>
				<path class="st3" d="M569.5,880.4l-67.4,38.8c-8.4,5.5-13.8,14.6-14.4,24.7c0,9,6.5,12.7,14.4,8.2l67.3-38.8
					c8.5-5.4,13.8-14.6,14.4-24.6C583.8,879.6,577.4,875.9,569.5,880.4z"/>
				<path class="st33" d="M576,761.5l-3.1,6.8l3.2,3.6l-1.9,1.1l-1.3-1.6c-0.4-0.4-0.7-0.8-1-1.3l0,0c-0.3,0.8-0.6,1.5-0.9,2.4
					l-1.3,3.1l-1.8,1.1l3.2-7.2l-3.1-3.3l1.8-1.1l1.3,1.5c0.4,0.4,0.7,0.8,0.9,1.2l0,0c0.3-0.8,0.6-1.5,0.9-2.3l1.2-3.2L576,761.5z"
					/>
				<path class="st33" d="M536,784.5l-3.1,6.8l3.2,3.6l-1.9,1.1l-1.4-1.6c-0.4-0.4-0.6-0.8-1-1.3l0,0c-0.3,0.8-0.6,1.6-1,2.4
					l-1.3,3.1l-1.8,1l3.2-7.2l-3.1-3.3l1.9-1l1.3,1.5c0.3,0.4,0.7,0.8,0.9,1.2l0,0l0.9-2.3l1.3-2.9L536,784.5z"/>
				<path class="st33" d="M544.7,779.6l-3.1,6.8l3.2,3.6l-1.9,1.1l-1.3-1.6c-0.4-0.4-0.6-0.8-1-1.3l0,0c-0.3,0.8-0.6,1.6-0.9,2.4
					l-1.3,3.2l-1.8,1l3.2-7.2l-3.1-3.3l1.8-1.1l1.3,1.5c0.3,0.4,0.6,0.8,0.9,1.2l0,0l0.9-2.3l1.3-2.9L544.7,779.6z"/>
				<path class="st33" d="M553.4,774.5l-3.1,6.8l3.2,3.6l-1.9,1.1l-1.3-1.6c-0.4-0.4-0.7-0.8-1-1.3l0,0c-0.3,0.8-0.6,1.6-0.9,2.4
					l-1.3,3.2l-1.8,1l3.2-7.2l-3.1-3.3l1.8-1.1l1.3,1.5c0.3,0.4,0.7,0.8,0.9,1.2l0,0c0.3-0.8,0.6-1.5,0.9-2.3l1.3-2.9L553.4,774.5z"
					/>
				<path class="st33" d="M504.7,802.6l-3.1,6.8l3.2,3.6l-1.9,1.1l-1.4-1.6c-0.4-0.4-0.7-0.8-1-1.3l0,0c-0.3,0.8-0.6,1.5-1,2.4
					l-1.3,3.1l-1.8,1l3.2-7.2l-3.1-3.3l1.9-1.1l1.3,1.5l0.9,1.2l0,0c0.3-0.8,0.6-1.5,0.9-2.2l1.3-3L504.7,802.6z"/>
				<path class="st33" d="M633.4,728.3l-3.1,6.8l3.2,3.6l-1.9,1.1l-1.3-1.6c-0.4-0.4-0.7-0.8-1-1.3l0,0c-0.3,0.8-0.6,1.6-0.9,2.4
					l-1.3,3.1l-1.8,1.1l3.2-7.2l-3.1-3.3l1.8-1.1l1.3,1.5c0.3,0.4,0.6,0.8,0.9,1.2l0,0c0.3-0.8,0.6-1.5,0.9-2.3l1.3-2.9L633.4,728.3
					z"/>
				<path class="st33" d="M624.7,733.4l-3.1,6.8l3.2,3.6l-1.9,1.1l-1.3-1.6c-0.4-0.4-0.6-0.8-1-1.3l0,0c-0.3,0.8-0.6,1.6-1,2.4
					l-1.3,3.1l-1.8,1.1l3.2-7.2l-3.1-3.3l1.9-1.1l1.3,1.5c0.3,0.4,0.7,0.8,0.9,1.2l0,0l0.9-2.3l1.3-2.9L624.7,733.4z"/>
				<path class="st33" d="M615.9,738.4l-3.1,6.9l3.2,3.6l-1.9,1.1l-1.4-1.6c-0.4-0.4-0.6-0.8-1-1.3l0,0c-0.3,0.8-0.6,1.5-1,2.4
					l-1.3,3.1l-1.8,1l3.2-7.2l-3.1-3.3l1.8-1l1.3,1.5c0.3,0.4,0.7,0.8,0.9,1.2l0,0l0.9-2.3l1.3-2.9L615.9,738.4z"/>
				<polygon class="st33" points="602.9,749.8 603,751.2 598.3,753.9 598.3,752.5 				"/>
				<path class="st33" d="M593.4,751.6l-3.1,6.9l3.2,3.6l-1.9,1.1l-1.3-1.6c-0.4-0.4-0.7-0.8-1-1.3l0,0l-0.9,2.1l-1.3,3.1l-1.8,1
					l3.2-7.2l-3.1-3.3l1.8-1l1.3,1.5c0.3,0.4,0.6,0.8,0.9,1.2l0,0c0.3-0.8,0.6-1.5,0.9-2.2l1.3-3L593.4,751.6z"/>
				<path class="st33" d="M584.8,756.4l-3.1,6.8l3.2,3.6l-1.9,1.1l-1.4-1.6c-0.4-0.4-0.7-0.8-1-1.3l0,0l-1,2.4l-1.3,3.1l-1.8,1
					l3.2-7.2l-3.1-3.3l1.9-1.1l1.3,1.5l0.9,1.2l0,0l0.9-2.3l1.3-3L584.8,756.4z"/>
				<polygon class="st33" points="563,772.9 563,774.2 558.3,776.9 558.3,775.5 				"/>
				<polygon class="st33" points="523,795.9 523,797.3 518.4,800 518.4,798.6 				"/>
				<path class="st33" d="M513.5,797.5l-3.1,6.9l3.2,3.6l-1.9,1.1l-1.3-1.6c-0.4-0.4-0.7-0.8-1-1.3l0,0c-0.3,0.8-0.6,1.5-0.9,2.4
					l-1.3,3.1l-1.8,1l3.2-7.2l-3.1-3.3l1.8-1.1l1.3,1.5c0.3,0.4,0.7,0.8,0.9,1.2l0,0c0.3-0.8,0.6-1.5,0.9-2.2l1.3-3L513.5,797.5z"/>
				<path class="st33" d="M496,807.6l-3.1,6.8l3.2,3.6l-1.9,1.1l-1.3-1.6c-0.4-0.4-0.7-0.8-1-1.3l0,0c-0.3,0.8-0.6,1.5-0.9,2.4
					l-1.3,3.1l-1.8,1l3.2-7.2l-3.1-3.3l1.8-1.1l1.3,1.5c0.3,0.4,0.6,0.8,0.9,1.2l0,0c0.3-0.8,0.6-1.5,0.9-2.3l1.3-3L496,807.6z"/>
			</g>
		</g>
	</g>
</g>
</svg>
