<svg xmlns="http://www.w3.org/2000/svg" xmlns:xlink="http://www.w3.org/1999/xlink" width="905.33" height="866.82" viewBox="0 0 905.33 866.82">
  <defs>
    <style>
      .cls-1, .cls-10 {
        fill: none;
      }

      .cls-2 {
        fill: #373f8c;
      }

      .cls-3 {
        fill: #333a7f;
      }

      .cls-4 {
        fill: #3f4991;
      }

      .cls-5 {
        fill: #d67086;
      }

      .cls-6 {
        fill: #5d66d3;
      }

      .cls-7 {
        fill: #474ebb;
      }

      .cls-8 {
        fill: #717ddb;
      }

      .cls-9 {
        fill: #aae0ff;
      }

      .cls-10 {
        stroke: #135bcc;
        stroke-miterlimit: 10;
        stroke-width: 2.14px;
      }

      .cls-11 {
        fill: #408bff;
      }

      .cls-12 {
        fill: #80d1ff;
      }

      .cls-13 {
        fill: #296acc;
      }

      .cls-14 {
        fill: #66c8ff;
      }

      .cls-15 {
        clip-path: url(#clip-path);
      }

      .cls-16 {
        fill: #666eae;
      }

      .cls-17 {
        fill: #404680;
      }

      .cls-18 {
        fill: #f7a58e;
      }

      .cls-19 {
        fill: #fff;
      }

      .cls-20 {
        fill: #092e66;
      }

      .cls-21 {
        fill: #56bdbf;
      }

      .cls-22 {
        fill: #e87c5d;
      }

      .cls-23 {
        fill: #6ba6ff;
      }

      .cls-24 {
        fill: #0e0e0e;
      }

      .cls-25 {
        fill: #723917;
      }

      .cls-26 {
        fill: #502910;
      }

      .cls-27 {
        fill: #f59176;
      }

      .cls-28 {
        fill: #3b4166;
      }

      .cls-29 {
        fill: #ffa599;
      }

      .cls-30 {
        fill: #008c86;
      }

      .cls-31 {
        fill: #bd4a31;
      }

      .cls-32 {
        fill: #ff8f80;
      }

      .cls-33 {
        fill: #80b3ff;
      }

      .cls-34 {
        fill: #404040;
      }

      .cls-35 {
        fill: #f5f9ff;
      }

      .cls-36 {
        fill: #e3eeff;
      }

      .cls-37 {
        fill: #007382;
      }

      .cls-38 {
        fill: #051733;
      }

      .cls-39 {
        fill: #73ccff;
      }

      .cls-40 {
        fill: #f7a594;
      }

      .cls-41 {
        fill: #cc7767;
      }

      .cls-42 {
        fill: #003331;
      }

      .cls-43 {
        fill: #d97661;
      }

      .cls-44 {
        fill: #803221;
      }
    </style>
    <clipPath id="clip-path">
      <circle class="cls-1" cx="146.52" cy="86.59" r="30.33"/>
    </clipPath>
  </defs>
  <g id="Layer_1" data-name="Layer 1">
    <g>
      <polygon class="cls-2" points="169.22 620.16 134.44 604.45 134.44 562.62 169.22 578.33 169.22 620.16"/>
      <polygon class="cls-3" points="169.22 620.16 204 604.45 204 562.62 169.22 578.33 169.22 620.16"/>
      <polygon class="cls-4" points="134.44 562.62 169.22 578.33 204 562.62 169.22 548.36 134.44 562.62"/>
    </g>
    <path class="cls-5" d="M291,604.47l2.87-3.46,1.35,1.12-2.87,3.46Zm5.11-6.16,3.36-4,1.35,1.12-3.36,4Zm5.6-6.74,3.35-4,1.35,1.12-3.36,4Zm5.59-6.74,3.36-4,1.35,1.12-3.36,4Zm5.6-6.74,3.35-4,1.35,1.12-3.36,4Zm5.59-6.73,3.36-4.05,1.35,1.12-3.36,4Zm5.6-6.74,3.35-4,1.35,1.12-3.36,4Zm5.59-6.74,3.36-4,1.35,1.12L331,559Zm5.6-6.74,3.35-4,1.35,1.11-3.36,4Zm5.59-6.74,3.36-4,1.35,1.12-3.36,4Zm5.6-6.74,3.35-4,1.35,1.12-3.35,4Z"/>
    <path class="cls-5" d="M590.18,308.71h1.75v.16h-1.75Zm0,3.66H592l0,5.26h-1.75Zm.06,8.76H592l0,5.25-1.75,0Zm.06,8.76h1.75l0,5.25h-1.75Zm.06,8.76h1.75l0,5.25h-1.75Zm.06,8.76h1.75l0,5.25h-1.76Zm.06,8.76,1.75,0,0,5.26h-1.76Zm.06,8.75h1.75l0,5.26h-1.75Zm.06,8.76h1.75l0,5.26h-1.75Zm0,8.76h1.76l0,5.26h-1.75Zm.06,8.76h1.76l0,5.25-1.75,0Zm.06,8.76h1.75l0,5.25h-1.75Zm.06,8.76h1.75l0,5.25h-1.75Zm.06,8.76h1.75l0,5.25h-1.76Zm.06,8.76,1.75,0,0,5.26H591ZM591,435h1.75l0,5.26h-1.75Zm.06,8.76h1.75l0,5.26h-1.75Zm0,8.76h1.76l0,5.26h-1.75Zm.06,8.76H593l0,5.25-1.75,0Zm.06,8.76H593l0,5.25H591.3Zm.06,8.76h1.75l0,5.25h-1.75Z"/>
    <g>
      <polygon class="cls-6" points="515.67 804.32 486.45 791.12 486.45 755.97 515.67 769.17 515.67 804.32"/>
      <polygon class="cls-7" points="515.67 804.32 544.89 791.12 544.89 755.97 515.67 769.17 515.67 804.32"/>
      <polygon class="cls-8" points="486.45 755.97 515.67 769.17 544.89 755.97 515.67 743.99 486.45 755.97"/>
    </g>
    <path class="cls-5" d="M270.13,630.18l-4.1-1.86.73-1.59,4.09,1.85Zm-7.29-3.3-4.78-2.17.72-1.6,4.79,2.17Zm-8-3.62-4.78-2.16.72-1.6,4.79,2.17Zm-8-3.61-4.79-2.17.72-1.59,4.79,2.17Zm-8-3.61-4.79-2.17.72-1.6,4.79,2.17Zm-8-3.62-4.79-2.16.72-1.6,4.79,2.17Zm-8-3.61-4.79-2.17.72-1.59,4.79,2.16Zm-8-3.61L210.18,603l.73-1.6,4.78,2.17Zm-8-3.62-4.79-2.16.73-1.6,4.78,2.17ZM199,598l-4.78-2.17.72-1.59,4.79,2.16Zm-8-3.61-4.78-2.17.72-1.6,4.79,2.17Z"/>
    <path class="cls-5" d="M98.77,630.32l-1-1.41,2.16-1.6,1,1.4Zm5-3.69-1-1.41,4.23-3.13,1,1.41Zm7-5.22-1-1.4,4.22-3.13,1.05,1.4Zm7-5.21-1-1.41,4.22-3.13,1,1.41Zm7-5.22-1-1.4,4.22-3.13,1,1.4Zm7-5.21-1.05-1.41,4.23-3.13,1,1.41Zm7-5.22-1-1.4,4.22-3.13,1,1.4Zm7-5.21-1-1.41,4.22-3.13,1,1.41Z"/>
    <g>
      <polygon class="cls-6" points="86.49 681.84 57.27 668.64 57.27 633.5 86.49 646.7 86.49 681.84"/>
      <polygon class="cls-7" points="86.49 681.84 115.71 668.64 115.71 633.5 86.49 646.7 86.49 681.84"/>
      <polygon class="cls-8" points="57.27 633.5 86.49 646.7 115.71 633.5 86.49 621.51 57.27 633.5"/>
    </g>
    <path class="cls-5" d="M268.75,638.38l-.65-1.63.15,0,.65,1.62Zm3.4-1.35-.64-1.63,4.88-1.94.65,1.63Zm8.14-3.23-.64-1.63,4.88-1.94.65,1.63Zm8.14-3.24-.64-1.63,4.88-1.94.65,1.63Zm8.14-3.23-.64-1.63,4.88-1.94.65,1.63Zm8.14-3.24-.64-1.62,4.88-2,.65,1.63Zm8.14-3.23-.64-1.63,4.88-1.94.65,1.63Zm8.14-3.24-.64-1.62,4.88-1.94.65,1.62Zm8.14-3.23-.64-1.63,4.88-1.94.65,1.63Zm8.14-3.23-.64-1.63,4.88-1.94.65,1.63Zm8.14-3.24-.64-1.63,4.88-1.94.65,1.63Zm8.14-3.23-.64-1.63,4.88-1.94.65,1.63Zm8.14-3.24-.64-1.62,4.88-1.94.65,1.62Zm8.14-3.23-.64-1.63,4.88-1.94.65,1.63ZM378,595l-.64-1.63,4.88-1.94.65,1.63Zm8.14-3.24-.64-1.63,4.88-1.94.65,1.63Zm8.14-3.23-.64-1.63,4.88-1.94.65,1.63Zm8.14-3.24-.64-1.62,4.88-1.94.65,1.62Zm8.14-3.23-.64-1.63,4.88-1.94.65,1.63Zm8.14-3.23-.64-1.63,4.88-1.94.65,1.62Zm8.14-3.24-.64-1.63,4.88-1.94.65,1.63Z"/>
    <g>
      <polygon class="cls-6" points="298.05 686.58 238.8 659.81 238.8 588.56 298.05 615.33 298.05 686.58"/>
      <polygon class="cls-7" points="298.05 686.58 357.29 659.81 357.29 588.56 298.05 615.33 298.05 686.58"/>
      <polygon class="cls-8" points="238.8 588.56 298.05 615.33 357.29 588.56 298.05 564.25 238.8 588.56"/>
    </g>
    <path class="cls-5" d="M396.06,669.15l-4.8-2.15.72-1.6,4.8,2.15Zm-8-3.58-4.8-2.15.72-1.59,4.79,2.14Zm-8-3.58-4.79-2.15.71-1.59,4.8,2.14Zm-8-3.58-4.8-2.14.72-1.6,4.79,2.14Zm-8-3.58-4.79-2.14.71-1.6,4.8,2.14Zm-8-3.58-4.8-2.14.72-1.6,4.8,2.14Zm-8-3.58-4.8-2.14.72-1.6,4.79,2.15Zm-8-3.58L335.31,642l.71-1.6,4.8,2.15Zm-8-3.57-4.8-2.15.72-1.6,4.79,2.15Z"/>
    <path class="cls-5" d="M220.4,669.76l-1-1.47,4.4-2.86,1,1.47Zm7.35-4.77-1-1.47,4.41-2.86,1,1.47Zm7.35-4.76-1-1.47,4.41-2.86,1,1.47Zm7.35-4.77-1-1.47,4.41-2.86.95,1.47Zm7.34-4.77-.95-1.47,4.41-2.86.95,1.47Zm7.35-4.76-.95-1.47,4.41-2.86.95,1.47Zm7.35-4.77-.95-1.47,4.41-2.86.95,1.47Z"/>
    <g>
      <polygon class="cls-6" points="200.14 744.95 159.62 726.64 159.62 677.92 200.14 696.22 200.14 744.95"/>
      <polygon class="cls-7" points="200.14 744.95 240.66 726.64 240.66 677.92 200.14 696.22 200.14 744.95"/>
      <polygon class="cls-8" points="159.62 677.92 200.14 696.22 240.66 677.92 200.14 661.29 159.62 677.92"/>
    </g>
    <g>
      <polygon class="cls-2" points="418.7 702.78 378.19 684.47 378.19 635.74 418.7 654.05 418.7 702.78"/>
      <polygon class="cls-3" points="418.7 702.78 459.22 684.47 459.22 635.74 418.7 654.05 418.7 702.78"/>
      <polygon class="cls-4" points="378.19 635.74 418.7 654.05 459.22 635.74 418.7 619.12 378.19 635.74"/>
    </g>
    <g>
      <polygon class="cls-2" points="598.41 742.02 563.63 726.31 563.63 684.49 598.41 700.2 598.41 742.02"/>
      <polygon class="cls-3" points="598.41 742.02 633.18 726.31 633.18 684.49 598.41 700.2 598.41 742.02"/>
      <polygon class="cls-4" points="563.63 684.49 598.41 700.2 633.18 684.49 598.41 670.22 563.63 684.49"/>
    </g>
    <g>
      <polygon class="cls-6" points="876.11 718.68 846.89 705.48 846.89 670.33 876.11 683.54 876.11 718.68"/>
      <polygon class="cls-7" points="876.11 718.68 905.33 705.48 905.33 670.33 876.11 683.54 876.11 718.68"/>
      <polygon class="cls-8" points="846.89 670.33 876.11 683.54 905.33 670.33 876.11 658.35 846.89 670.33"/>
    </g>
    <path class="cls-5" d="M699.32,752l-4.1-1.85.72-1.6,4.1,1.86Zm-7.29-3.3-4.79-2.17L688,745l4.79,2.17Zm-8-3.61L679.26,743l.73-1.6,4.78,2.17Zm-8-3.62-4.79-2.16.73-1.6,4.78,2.17Zm-8-3.61-4.78-2.17.72-1.59,4.79,2.17Zm-8-3.61-4.78-2.17.72-1.6,4.79,2.17Zm-8-3.62-4.78-2.16.72-1.6,4.79,2.17Zm-8-3.61-4.79-2.17.72-1.59,4.79,2.16Zm-8-3.61-4.79-2.17.72-1.6,4.79,2.17Zm-8-3.62-4.79-2.16.72-1.6,4.79,2.17Zm-8-3.61-4.79-2.17.72-1.59,4.79,2.16Z"/>
    <path class="cls-5" d="M528,752.18l-1-1.41,2.17-1.6,1,1.41Zm5-3.69-1-1.4,4.22-3.13,1,1.4Zm7-5.21-1-1.41,4.22-3.13,1,1.41Zm7-5.22-1-1.41,4.23-3.12,1,1.4Zm7-5.21-1-1.41,4.22-3.13,1,1.41Zm7-5.22-1-1.41,4.22-3.12,1,1.4Zm7-5.21-1-1.41,4.22-3.13,1,1.41Zm7-5.22-1-1.41,4.22-3.13,1,1.41Z"/>
    <g>
      <polygon class="cls-6" points="515.67 803.71 486.45 790.5 486.45 755.36 515.67 768.56 515.67 803.71"/>
      <polygon class="cls-7" points="515.67 803.71 544.89 790.5 544.89 755.36 515.67 768.56 515.67 803.71"/>
      <polygon class="cls-8" points="486.45 755.36 515.67 768.56 544.89 755.36 515.67 743.37 486.45 755.36"/>
    </g>
    <path class="cls-5" d="M479.7,205.85l1.6.71-2.15,4.8-1.6-.72Zm-3.58,8,1.6.72-2.15,4.79-1.6-.71Zm-3.58,8,1.6.72-2.15,4.8-1.6-.72Zm-3.58,8,1.6.71-2.15,4.8-1.6-.72Zm-3.58,8,1.6.72-2.15,4.79-1.6-.71Zm-3.58,8,1.6.71-2.15,4.8-1.6-.72Zm-3.58,8,1.6.72-2.15,4.79-1.6-.71Zm-3.58,8,1.6.72-2.15,4.8-1.6-.72Zm-3.58,8,1.6.71-2.15,4.8-1.6-.72Zm-3.58,8,1.6.72-2.15,4.79-1.6-.71Zm-3.58,8,1.6.71-2.15,4.8-1.6-.72Zm-3.58,8,1.6.72-2.15,4.79-1.6-.71Zm-3.58,8,1.6.72-2.15,4.8-1.6-.72Zm-3.58,8,1.6.71-2.15,4.8-1.6-.72Zm-3.58,8,1.6.72L429,323.27l-1.6-.71Zm-3.58,8,1.6.71-2.15,4.8-1.6-.72Zm-3.58,8,1.6.72-2.15,4.79-1.6-.71Zm-3.58,8,1.6.72-2.15,4.8-1.6-.72Z"/>
    <path class="cls-5" d="M697.93,760.25l-.64-1.63.15-.06.64,1.63Zm3.41-1.36-.65-1.62,4.89-1.95.64,1.63Zm8.14-3.23-.65-1.63,4.89-1.94.64,1.63Zm8.14-3.23L717,750.8l4.89-1.94.64,1.62Zm8.14-3.24-.65-1.63,4.89-1.94.64,1.63ZM733.9,746l-.65-1.63,4.89-1.94.64,1.63Zm8.14-3.24-.65-1.63,4.89-1.94.64,1.63Zm8.14-3.23-.65-1.63,4.89-1.94.64,1.63Zm8.14-3.24-.65-1.62,4.89-1.94.64,1.62Zm8.14-3.23-.65-1.63,4.89-1.94.64,1.63Zm8.14-3.23-.65-1.63,4.89-1.94.64,1.63Zm8.14-3.24-.65-1.63L787,723l.64,1.63Zm8.14-3.23-.65-1.63,4.89-1.94.64,1.63Zm8.14-3.24-.65-1.62,4.89-1.94.64,1.62Zm8.14-3.23-.65-1.63,4.89-1.94.64,1.63Zm8.14-3.23-.65-1.63,4.89-1.94.64,1.63Zm8.14-3.24-.65-1.63,4.89-1.94.64,1.63Zm8.14-3.23-.65-1.63,4.89-1.94.64,1.63Zm8.14-3.24-.65-1.62,4.89-1.95.64,1.63Zm8.14-3.23-.65-1.63,4.89-1.94.64,1.63Zm8.14-3.24-.65-1.62,4.89-1.94.64,1.62Z"/>
    <g>
      <polygon class="cls-6" points="727.23 808.44 667.99 781.67 667.99 710.42 727.23 737.19 727.23 808.44"/>
      <polygon class="cls-7" points="727.23 808.44 786.48 781.67 786.48 710.42 727.23 737.19 727.23 808.44"/>
      <polygon class="cls-8" points="667.99 710.42 727.23 737.19 786.48 710.42 727.23 686.12 667.99 710.42"/>
    </g>
    <path class="cls-5" d="M825.25,791l-4.8-2.14.72-1.6,4.79,2.15Zm-8-3.57-4.79-2.15.71-1.6,4.8,2.15Zm-8-3.58-4.8-2.15.72-1.6,4.79,2.15Zm-8-3.58-4.79-2.15.71-1.6,4.8,2.15Zm-8-3.58-4.8-2.15.72-1.6,4.8,2.15Zm-8-3.58-4.8-2.15.72-1.6,4.79,2.15Zm-8-3.58-4.8-2.15.72-1.6,4.8,2.15Zm-8-3.58-4.8-2.15.72-1.6,4.79,2.15Zm-8-3.58-4.79-2.15.71-1.6,4.8,2.15Z"/>
    <path class="cls-5" d="M649.58,791.62l-1-1.47,4.41-2.86,1,1.47Zm7.35-4.77-.95-1.47,4.41-2.85,1,1.47Zm7.35-4.76-.95-1.47,4.41-2.86,1,1.47Zm7.35-4.77-1-1.47,4.41-2.86.95,1.47Zm7.35-4.76-1-1.47,4.41-2.86.95,1.47Zm7.35-4.77-1-1.47,4.4-2.86,1,1.47Zm7.35-4.76-1-1.47,4.41-2.86,1,1.47Z"/>
    <g>
      <polygon class="cls-6" points="629.33 866.82 588.81 848.51 588.81 799.78 629.33 818.09 629.33 866.82"/>
      <polygon class="cls-7" points="629.33 866.82 669.84 848.51 669.84 799.78 629.33 818.09 629.33 866.82"/>
      <polygon class="cls-8" points="588.81 799.78 629.33 818.09 669.84 799.78 629.33 783.16 588.81 799.78"/>
    </g>
    <g>
      <polygon class="cls-2" points="847.89 824.64 807.37 806.33 807.37 757.61 847.89 775.91 847.89 824.64"/>
      <polygon class="cls-3" points="847.89 824.64 888.41 806.33 888.41 757.61 847.89 775.91 847.89 824.64"/>
      <polygon class="cls-4" points="807.37 757.61 847.89 775.91 888.41 757.61 847.89 740.98 807.37 757.61"/>
    </g>
    <g>
      <polygon class="cls-2" points="551.11 195.4 516.34 179.69 516.34 137.87 551.11 153.58 551.11 195.4"/>
      <polygon class="cls-3" points="551.11 195.4 585.89 179.69 585.89 137.87 551.11 153.58 551.11 195.4"/>
      <polygon class="cls-4" points="516.34 137.87 551.11 153.58 585.89 137.87 551.11 123.6 516.34 137.87"/>
    </g>
    <g>
      <polygon class="cls-6" points="828.82 172.06 799.59 158.86 799.59 123.71 828.82 136.91 828.82 172.06"/>
      <polygon class="cls-7" points="828.82 172.06 858.04 158.86 858.04 123.71 828.82 136.91 828.82 172.06"/>
      <polygon class="cls-8" points="799.59 123.71 828.82 136.91 858.04 123.71 828.82 111.72 799.59 123.71"/>
    </g>
    <path class="cls-5" d="M652,205.42l-4.09-1.85.72-1.6,4.1,1.86Zm-7.28-3.3L640,200l.72-1.59,4.79,2.16Zm-8-3.61L632,196.34l.72-1.6,4.79,2.17Zm-8-3.62L624,192.73l.72-1.6,4.79,2.17Zm-8-3.61L616,189.11l.72-1.59,4.79,2.16Zm-8-3.61L608,185.5l.73-1.6,4.78,2.17Zm-8-3.62-4.79-2.17.73-1.59,4.78,2.17Zm-8-3.61-4.78-2.17.72-1.59,4.79,2.16Zm-8-3.61-4.78-2.17.72-1.6,4.79,2.17Zm-8-3.62L576.12,171l.72-1.59,4.79,2.17Zm-8-3.61-4.79-2.17.72-1.59,4.79,2.16Z"/>
    <path class="cls-5" d="M480.66,205.56l-1-1.41,2.16-1.6,1,1.41Zm5-3.69-1-1.41,4.22-3.12,1,1.4Zm7-5.21-1.05-1.41,4.23-3.13,1,1.41Zm7-5.22-1-1.41,4.22-3.13,1.05,1.41Zm7-5.21-1-1.41,4.22-3.13,1,1.41Zm7-5.22-1-1.41,4.23-3.13,1,1.41Zm7-5.21-1-1.41,4.22-3.13,1,1.41Zm7-5.22-1-1.41L531,166l1,1.41Z"/>
    <g>
      <polygon class="cls-6" points="468.38 257.08 439.16 243.88 439.16 208.74 468.38 221.94 468.38 257.08"/>
      <polygon class="cls-7" points="468.38 257.08 497.6 243.88 497.6 208.74 468.38 221.94 468.38 257.08"/>
      <polygon class="cls-8" points="439.16 208.74 468.38 221.94 497.6 208.74 468.38 196.75 439.16 208.74"/>
    </g>
    <path class="cls-5" d="M650.64,213.63,650,212l.15-.06.65,1.63Zm3.4-1.36-.64-1.63,4.88-1.94.65,1.63Zm8.14-3.23-.64-1.63,4.88-1.94.65,1.63Zm8.14-3.24-.64-1.62,4.88-1.94.65,1.62Zm8.14-3.23-.64-1.63L682.7,199l.65,1.63Zm8.14-3.23-.64-1.63,4.88-1.94.65,1.63Zm8.14-3.24-.64-1.63,4.88-1.94.65,1.63Zm8.14-3.23-.64-1.63,4.88-1.94.65,1.63Zm8.14-3.24-.64-1.62,4.88-1.94.65,1.62Zm8.14-3.23-.64-1.63,4.88-1.94.65,1.63Zm8.14-3.23-.64-1.63,4.88-1.94.65,1.62Zm8.14-3.24-.64-1.63,4.88-1.94.65,1.63Zm8.14-3.23-.64-1.63,4.88-1.94.65,1.63Zm8.14-3.24-.64-1.62,4.88-2,.65,1.63Zm8.14-3.23-.64-1.63,4.88-1.94.65,1.63ZM768,167l-.64-1.62,4.88-1.94.65,1.62Zm8.14-3.23-.64-1.63,4.88-1.94.65,1.63Zm8.14-3.23-.64-1.63,4.88-1.94.65,1.63Zm8.14-3.24-.64-1.63,4.88-1.94.65,1.63Zm8.14-3.23-.64-1.63,4.88-1.94.65,1.63Zm8.14-3.24-.64-1.62,4.88-1.94.65,1.62Z"/>
    <g>
      <polygon class="cls-6" points="679.94 261.82 620.7 235.05 620.7 163.8 679.94 190.57 679.94 261.82"/>
      <polygon class="cls-7" points="679.94 261.82 739.18 235.05 739.18 163.8 679.94 190.57 679.94 261.82"/>
      <polygon class="cls-8" points="620.7 163.8 679.94 190.57 739.18 163.8 679.94 139.5 620.7 163.8"/>
    </g>
    <path class="cls-5" d="M778,244.39l-4.79-2.14.71-1.6,4.8,2.15Zm-8-3.58-4.8-2.14.72-1.6,4.79,2.15Zm-8-3.57-4.79-2.15.71-1.6,4.8,2.15Zm-8-3.58-4.8-2.15.72-1.6,4.8,2.15Zm-8-3.58-4.8-2.15.72-1.6,4.79,2.15Zm-8-3.58-4.79-2.15.71-1.6,4.8,2.15Zm-8-3.58-4.8-2.15.72-1.6,4.79,2.15Zm-8-3.58-4.79-2.15.71-1.6,4.8,2.15Zm-8-3.58-4.8-2.15.72-1.6,4.8,2.15Z"/>
    <path class="cls-5" d="M602.29,245l-.95-1.47,4.41-2.86,1,1.47Zm7.35-4.77-.95-1.47,4.41-2.86.95,1.47Zm7.35-4.76L616,234l4.4-2.86,1,1.47Zm7.35-4.77-1-1.47,4.41-2.86,1,1.47Zm7.35-4.76-1-1.47,4.41-2.86,1,1.47Zm7.35-4.77-1-1.47,4.41-2.86,1,1.47Zm7.34-4.76-1-1.47,4.41-2.86.95,1.47Z"/>
    <g>
      <polygon class="cls-6" points="582.03 320.19 541.52 301.89 541.52 253.16 582.03 271.46 582.03 320.19"/>
      <polygon class="cls-7" points="582.03 320.19 622.55 301.89 622.55 253.16 582.03 271.46 582.03 320.19"/>
      <polygon class="cls-8" points="541.52 253.16 582.03 271.46 622.55 253.16 582.03 236.54 541.52 253.16"/>
    </g>
    <g>
      <polygon class="cls-2" points="800.6 278.02 760.08 259.71 760.08 210.98 800.6 229.29 800.6 278.02"/>
      <polygon class="cls-3" points="800.6 278.02 841.11 259.71 841.11 210.98 800.6 229.29 800.6 278.02"/>
      <polygon class="cls-4" points="760.08 210.98 800.6 229.29 841.11 210.98 800.6 194.36 760.08 210.98"/>
    </g>
    <path class="cls-5" d="M434.23,571.67l-.65-1.63.15-.06.64,1.63Zm3.4-1.36-.65-1.63,4.89-1.94.64,1.63Zm8.14-3.23-.65-1.63,4.89-1.94.64,1.63Zm8.14-3.24-.65-1.62,4.89-1.94.64,1.62Zm8.14-3.23L461.4,559l4.89-1.94.64,1.63Zm8.14-3.23-.65-1.63,4.89-1.94.64,1.63Zm8.14-3.24-.65-1.63,4.89-1.94.64,1.63Zm8.14-3.23-.65-1.63,4.89-1.94.64,1.63Zm8.14-3.24-.65-1.62,4.89-1.94.64,1.62Zm8.14-3.23-.65-1.63,4.89-1.94.64,1.63Zm8.14-3.23-.65-1.63,4.89-1.94.64,1.63ZM519,538l-.65-1.63,4.89-1.94.64,1.63Zm8.14-3.23-.65-1.63,4.89-1.94.64,1.63Zm8.14-3.24-.65-1.62,4.89-2,.64,1.63Zm8.14-3.23-.65-1.63,4.89-1.94.64,1.63Zm8.14-3.24-.65-1.62,4.89-1.94.64,1.62Zm8.14-3.23-.65-1.63,4.89-1.94.64,1.63Zm8.14-3.23-.65-1.63,4.89-1.94.64,1.63Zm8.14-3.24-.65-1.63,4.89-1.94.64,1.63Zm8.14-3.23-.65-1.63,4.89-1.94.64,1.63Zm5.61-4.16h0a.88.88,0,0,1-.22-1.22l2-2.87a.87.87,0,0,1,1.22-.22h0a.87.87,0,0,1,.22,1.22l-2,2.87A.87.87,0,0,1,589.76,507.94Z"/>
    <polyline class="cls-5" points="593.07 478.78 593.11 484.03 591.36 484.04 591.32 478.79"/>
    <rect class="cls-5" x="591.4" y="487.54" width="1.75" height="5.26" transform="matrix(1, -0.01, 0.01, 1, -3.25, 3.95)"/>
    <rect class="cls-5" x="591.46" y="496.3" width="1.75" height="5.26" transform="translate(-3.31 3.96) rotate(-0.38)"/>
    <g>
      <polygon class="cls-6" points="130.31 436.49 106.57 425.76 106.57 397.21 130.31 407.94 130.31 436.49"/>
      <polygon class="cls-7" points="130.31 436.49 154.05 425.76 154.05 397.21 130.31 407.94 130.31 436.49"/>
      <polygon class="cls-8" points="106.57 397.21 130.31 407.94 154.05 397.21 130.31 387.47 106.57 397.21"/>
    </g>
    <g>
      <polygon class="cls-2" points="197.53 385.88 169.28 373.11 169.28 339.13 197.53 351.9 197.53 385.88"/>
      <polygon class="cls-3" points="197.53 385.88 225.78 373.11 225.78 339.13 197.53 351.9 197.53 385.88"/>
      <polygon class="cls-4" points="169.28 339.13 197.53 351.9 225.78 339.13 197.53 327.54 169.28 339.13"/>
    </g>
    <g>
      <polygon class="cls-6" points="423.15 366.91 399.41 356.19 399.41 327.63 423.15 338.36 423.15 366.91"/>
      <polygon class="cls-7" points="423.15 366.91 446.89 356.19 446.89 327.63 423.15 338.36 423.15 366.91"/>
      <polygon class="cls-8" points="399.41 327.63 423.15 338.36 446.89 327.63 423.15 317.9 399.41 327.63"/>
    </g>
    <path class="cls-5" d="M279.51,394l-3.33-1.51.59-1.29,3.33,1.5Zm-5.92-2.68-3.89-1.76.59-1.3,3.89,1.76Zm-6.48-2.94-3.89-1.76.59-1.3,3.89,1.77Zm-6.48-2.93-3.89-1.77.59-1.29,3.88,1.76Zm-6.48-2.94-3.89-1.76.58-1.3,3.89,1.76Zm-6.49-2.94-3.89-1.76.59-1.29,3.89,1.76Zm-6.48-2.93-3.89-1.76.59-1.3,3.89,1.76Zm-6.48-2.94L230.81,372l.59-1.29,3.89,1.76Zm-6.48-2.93L224.33,369l.58-1.3,3.89,1.76Zm-6.49-2.94-3.89-1.76.59-1.3,3.89,1.77Zm-6.48-2.93-3.89-1.77.59-1.29,3.89,1.76Z"/>
    <path class="cls-5" d="M140.29,394.13l-.85-1.14,1.76-1.3.85,1.14Zm4.05-3-.85-1.15,3.43-2.54.85,1.14Zm5.71-4.24-.84-1.15,3.43-2.54.84,1.15Zm5.72-4.24-.85-1.14,3.43-2.54.85,1.14Zm5.72-4.24-.85-1.14,3.43-2.54.85,1.14Zm5.71-4.23-.84-1.15,3.43-2.54.84,1.14Zm5.72-4.24-.85-1.14,3.43-2.55.85,1.15Zm5.72-4.24-.85-1.14,3.43-2.54.85,1.14Z"/>
    <g>
      <polygon class="cls-6" points="130.31 435.99 106.57 425.27 106.57 396.71 130.31 407.44 130.31 435.99"/>
      <polygon class="cls-7" points="130.31 435.99 154.05 425.27 154.05 396.71 130.31 407.44 130.31 435.99"/>
      <polygon class="cls-8" points="106.57 396.71 130.31 407.44 154.05 396.71 130.31 386.98 106.57 396.71"/>
    </g>
    <path class="cls-5" d="M278.39,400.68l-.53-1.32.12-.05.53,1.33Zm2.77-1.09-.53-1.33,4-1.57.52,1.32Zm6.61-2.63-.53-1.32,4-1.58.53,1.32Zm6.61-2.63-.52-1.32,4-1.58.53,1.32ZM301,391.7l-.53-1.32,4-1.58.52,1.33Zm6.61-2.62-.53-1.33,4-1.57.53,1.32Zm6.61-2.63-.52-1.32,4-1.58.53,1.32Zm6.61-2.63-.52-1.32,4-1.58.52,1.32Zm6.62-2.63-.53-1.32,4-1.58.53,1.33Zm6.61-2.62-.52-1.33,4-1.57L338,377Zm6.61-2.63-.52-1.33,4-1.57.52,1.32Zm6.62-2.63-.53-1.32,4-1.58.53,1.32Zm6.61-2.63-.52-1.32,4-1.58.53,1.33Zm6.61-2.63-.52-1.32,4-1.57.52,1.32Zm6.62-2.62-.53-1.33,4-1.57.53,1.32Zm6.61-2.63-.52-1.32,4-1.58.53,1.32Zm6.61-2.63-.52-1.32,4-1.58.52,1.33Zm6.62-2.63-.53-1.32,4-1.57.53,1.32Zm6.61-2.62-.52-1.33,4-1.57.53,1.32Zm6.61-2.63-.52-1.32,4-1.58.52,1.32Zm6.62-2.63-.53-1.32,4-1.58.53,1.33Z"/>
    <g>
      <polygon class="cls-6" points="302.19 439.84 254.06 418.09 254.06 360.2 302.19 381.95 302.19 439.84"/>
      <polygon class="cls-7" points="302.19 439.84 350.33 418.09 350.33 360.2 302.19 381.95 302.19 439.84"/>
      <polygon class="cls-8" points="254.06 360.2 302.19 381.95 350.33 360.2 302.19 340.46 254.06 360.2"/>
    </g>
    <path class="cls-5" d="M381.82,425.68l-3.89-1.74.58-1.3,3.9,1.74Zm-6.49-2.91-3.9-1.74.58-1.3,3.9,1.75Zm-6.5-2.9-3.89-1.75.58-1.3,3.9,1.75ZM362.34,417l-3.9-1.75.58-1.3,3.9,1.75Zm-6.5-2.91L352,412.31l.58-1.3,3.9,1.74Zm-6.49-2.91-3.9-1.74.58-1.3,3.9,1.74Zm-6.49-2.91-3.9-1.74.58-1.3,3.9,1.74Zm-6.5-2.9-3.9-1.75.59-1.3,3.89,1.75Zm-6.49-2.91-3.9-1.75.58-1.3,3.9,1.75Z"/>
    <path class="cls-5" d="M239.11,426.17l-.78-1.19,3.59-2.32.77,1.19Zm6-3.87-.78-1.19,3.59-2.32.77,1.19Zm6-3.87-.78-1.19,3.59-2.33.77,1.2Zm6-3.87-.77-1.2,3.58-2.32.77,1.2Zm6-3.87-.77-1.2,3.58-2.32.77,1.19Zm6-3.87-.77-1.2,3.58-2.32.77,1.19Zm6-3.88-.77-1.19,3.58-2.32.77,1.19Z"/>
    <g>
      <polygon class="cls-6" points="222.65 487.27 189.73 472.39 189.73 432.8 222.65 447.68 222.65 487.27"/>
      <polygon class="cls-7" points="222.65 487.27 255.57 472.39 255.57 432.8 222.65 447.68 222.65 487.27"/>
      <polygon class="cls-8" points="189.73 432.8 222.65 447.68 255.57 432.8 222.65 419.3 189.73 432.8"/>
    </g>
    <g>
      <polygon class="cls-2" points="400.22 453 367.3 438.13 367.3 398.54 400.22 413.41 400.22 453"/>
      <polygon class="cls-3" points="400.22 453 433.14 438.13 433.14 398.54 400.22 413.41 400.22 453"/>
      <polygon class="cls-4" points="367.3 398.54 400.22 413.41 433.14 398.54 400.22 385.04 367.3 398.54"/>
    </g>
    <path class="cls-5" d="M321.68,518.89,317.59,517l.72-1.59,4.1,1.85Zm-7.29-3.3-4.78-2.17.72-1.6,4.79,2.17Zm-8-3.62-4.78-2.17.72-1.59,4.79,2.17Zm-8-3.61-4.79-2.17.72-1.6,4.79,2.17Zm-8-3.61-4.79-2.17.72-1.6,4.79,2.17Zm-8-3.62L277.69,499l.72-1.59,4.79,2.17Zm-8-3.61-4.79-2.17.72-1.6,4.79,2.17Zm-8-3.62-4.79-2.16.73-1.6,4.78,2.17Zm-8-3.61-4.79-2.17.73-1.59,4.78,2.17Zm-8-3.61-4.78-2.17.72-1.6,4.79,2.17Zm-8-3.62-4.78-2.16.72-1.6,4.79,2.17Z"/>
    <path class="cls-5" d="M345,530l-4.79-2.17.72-1.6,4.79,2.17Zm-8-3.62-4.79-2.16.72-1.6,4.79,2.17Zm-8-3.61-4.79-2.17L325,519l4.79,2.17Zm19.86,9.37-1.78-1.63a.58.58,0,0,1,0-.83h0a.63.63,0,0,1,.86,0l1.77,1.64a.56.56,0,0,1,0,.82h0A.62.62,0,0,1,348.92,532.12Z"/>
  </g>
  <g id="Layer_2" data-name="Layer 2">
    <g id="gear">
      <path class="cls-9" d="M199.71,210.15a36.67,36.67,0,0,0-.84,14.16l4-.54a33.09,33.09,0,0,0,4.21,12.17l-3.44,2a36.61,36.61,0,0,0,9.4,10.61l.55-.71,1.88-2.48A32.56,32.56,0,0,0,227,251l-1,3.89a36.27,36.27,0,0,0,14.16.83l-.54-4a32.79,32.79,0,0,0,12.16-4.2l2,3.45a36.86,36.86,0,0,0,10.62-9.42h0l-.91-.71-2.26-1.71a32.54,32.54,0,0,0,5.61-11.57l3.88,1a36.37,36.37,0,0,0,.84-14.18l-4,.54a32.39,32.39,0,0,0-4.2-12.15l3.45-2a36.69,36.69,0,0,0-9.42-10.61L255,193.35a32.38,32.38,0,0,0-11.57-5.61l1-3.89a36.14,36.14,0,0,0-14.17-.83l.54,4a32.39,32.39,0,0,0-12.15,4.2l-2-3.45A36.47,36.47,0,0,0,206,197.16l0,0,2.1,1.59,1.06.81a32.63,32.63,0,0,0-5.61,11.57Zm18.36,4.77a17.74,17.74,0,1,1,12.71,21.63A17.73,17.73,0,0,1,218.07,214.92Z"/>
      <path class="cls-10" d="M243.37,138.71a20.34,20.34,0,0,0-3,7.31l2.19.42a18.54,18.54,0,0,0,0,7.16l-2.17.45a20.21,20.21,0,0,0,3.06,7.26l.41-.27,1.43-1a18.08,18.08,0,0,0,5.1,5L249.24,167a20.09,20.09,0,0,0,7.3,3l.43-2.19a18.11,18.11,0,0,0,7.15,0l.45,2.18a20.51,20.51,0,0,0,7.27-3.06h0l-.35-.54-.89-1.3a18,18,0,0,0,5-5.09l1.87,1.22a20.34,20.34,0,0,0,3-7.31l-2.19-.42a18.11,18.11,0,0,0-.05-7.15l2.18-.45a20.44,20.44,0,0,0-3.06-7.27l-1.85,1.25a18,18,0,0,0-5.09-5l1.22-1.87a20.16,20.16,0,0,0-7.31-3l-.42,2.19a18.3,18.3,0,0,0-7.15,0l-.45-2.17A20.44,20.44,0,0,0,249,133v0l.82,1.21.42.62a18.17,18.17,0,0,0-5,5.09Zm8.81,5.79A9.86,9.86,0,1,1,255,158.15,9.87,9.87,0,0,1,252.18,144.5Z"/>
    </g>
    <g id="phone">
      <g>
        <path class="cls-11" d="M226.48,15.88C224.05,1.5,201.91-5,202.34,4.39L100.85,5c-7,0-12.73,6.36-12.74,14.13L87.9,286.05c0,8.05,5.79,14.63,13,14.69l103.61.89a8.33,8.33,0,0,0,3.74,3.61c11.88.25,17.58-5.62,19.66-12.25a15.89,15.89,0,0,0,1-5.83C228.49,283.69,227.23,19.25,226.48,15.88Z"/>
        <path class="cls-11" d="M207.1,305.28l-118.93-.77c-7.42-.05-13.42-6.8-13.41-15.08l.45-274.52c0-8,5.92-14.47,13.2-14.49L205,0c7.33,0,13.33,6.45,13.39,14.47l2.12,275.79C220.6,298.62,214.59,305.33,207.1,305.28Z"/>
        <path d="M208.75,303.28a10.84,10.84,0,0,1-1.51.1l-118.89-.9c-6.38-.05-11.59-6-11.58-13.2l.41-274.22c0-7,5.14-12.66,11.4-12.68l116.61-.51h.55a11,11,0,0,1,7.72,3.76,13.19,13.19,0,0,1,3.29,8.73l2.08,276.07C218.88,297,214.56,302.5,208.75,303.28Z"/>
        <polygon class="cls-9" points="212.66 15.12 214.66 290.23 80.73 289.42 81.07 15.12 212.66 15.12"/>
      </g>
      <g>
        <rect class="cls-12" x="120.54" y="234.6" width="54.18" height="4.06"/>
        <rect class="cls-12" x="103.08" y="243.63" width="89.85" height="4.06"/>
        <rect class="cls-12" x="106.84" y="252.66" width="82.33" height="4.06"/>
      </g>
      <g>
        <g>
          <path class="cls-13" d="M135.62,175v16.72c0,1.86,22.73,1.86,22.73,0V175Z"/>
          <path class="cls-13" d="M156.36,174.18h-2.3V168.6a7.07,7.07,0,0,0-14.14,0v1.13h-2.3V168.6a9.37,9.37,0,0,1,18.74,0Z"/>
        </g>
        <path class="cls-9" d="M144.87,189.17a.92.92,0,0,1-.65-.28l-3.74-4a.88.88,0,1,1,1.29-1.2l3.15,3.37,8.8-8.06a.88.88,0,0,1,1.2,1.3l-9.45,8.66A.92.92,0,0,1,144.87,189.17Z"/>
      </g>
      <circle class="cls-14" cx="146.52" cy="86.59" r="41.93"/>
      <g class="cls-15">
        <g>
          <path class="cls-13" d="M161.26,158.56a34.84,34.84,0,0,1-11-1.79c-9.66-3.24-17.44-10.6-22.51-21.26-8.7-18.3-9.52-25.24-10.9-36.74-.19-1.65-.4-3.37-.64-5.24-1.07-9.7,1.12-18.4,6.35-25.16a31.08,31.08,0,0,1,20.64-11.65c8.26-1.13,15.78.71,21.73,5.32S175,74,176.46,83.1l.31,2.06c2,13.31,2.93,19.38,9.49,32.67,4.42,9,5.44,17.35,3,24.24-2.12,5.86-6.62,10.36-13.37,13.36A35.3,35.3,0,0,1,161.26,158.56Zm-13.47-99.9a32.29,32.29,0,0,0-4.33.3c-16.73,2.28-27,16.38-25.06,34.3.25,1.86.45,3.58.65,5.25,1.34,11.26,2.16,18.06,10.69,36,7.24,15.23,19.71,21.76,31.64,21.76a32.84,32.84,0,0,0,13.53-2.92h0c6.17-2.75,10.26-6.81,12.16-12.07,2.28-6.3,1.29-14.07-2.85-22.47-6.71-13.61-7.65-19.79-9.7-33.33l-.31-2C171.67,68,161.5,58.66,147.79,58.66Z"/>
          <path class="cls-13" d="M160.33,154.54a30,30,0,0,1-9.65-1.59c-5.8-2-13.82-6.72-19.12-18.16C123,116.2,122,108.12,120.41,95.9c-.17-1.31-.34-2.68-.52-4.1a26.5,26.5,0,0,1,5.5-19.73,29.26,29.26,0,0,1,18-10.9A24,24,0,0,1,161.8,65c5.24,3.76,8.72,9.76,9.79,16.89,2.28,15.22,3.68,23.15,10.52,37,3.81,7.72,4.63,15.06,2.38,21.21-1.89,5.17-6,9.23-11.74,11.76A29.69,29.69,0,0,1,160.33,154.54ZM148.33,63a24.94,24.94,0,0,0-4.5.41c-13.68,2.45-23.41,15.05-21.7,28.1.19,1.43.36,2.8.52,4.11,1.51,12,2.51,20,11,38.23,8.32,18,25.88,21.63,38.19,15.95h0c5.29-2.31,8.84-5.83,10.53-10.47,2-5.48,1.2-12.38-2.28-19.43-7-14.15-8.48-22.66-10.73-37.69-1-6.53-4.13-12-8.87-15.4A20.51,20.51,0,0,0,148.33,63Z"/>
          <path class="cls-13" d="M169.33,100.78a1.13,1.13,0,0,1-1.1-.87c-1.2-5.12-2-10.17-3-17.3-1.14-7.7-5.89-13.31-12.71-15a1.13,1.13,0,0,1,.55-2.2c7.62,1.9,13.14,8.37,14.4,16.88,1,7.07,1.81,12.08,3,17.11a1.13,1.13,0,0,1-.84,1.36A1.15,1.15,0,0,1,169.33,100.78Z"/>
          <path class="cls-13" d="M159.77,150.23a25.61,25.61,0,0,1-8.55-1.46c-4.83-1.71-11.49-5.71-15.76-15.05a1.13,1.13,0,1,1,2.06-.94c6.73,14.7,21.16,17.83,31.32,13.3a15.45,15.45,0,0,0,8.87-8.78c1.74-4.68,1.12-10.47-1.76-16.31a115.38,115.38,0,0,1-6.75-17.41,1.13,1.13,0,0,1,.77-1.4,1.12,1.12,0,0,1,1.4.76A113.8,113.8,0,0,0,178,120c3.16,6.4,3.81,12.83,1.85,18.1a17.69,17.69,0,0,1-10.09,10.07A24.57,24.57,0,0,1,159.77,150.23Z"/>
          <path class="cls-13" d="M133.35,127.15a1.13,1.13,0,0,1-1-.7c-5.17-12.65-6-19.75-7.26-29.57-.2-1.59-.4-3.24-.63-5a23.59,23.59,0,0,1,4.91-17.77c3-3.73,8.61-8.35,18.46-9.21a1.13,1.13,0,1,1,.19,2.25c-7.16.63-13,3.53-16.88,8.37a21.33,21.33,0,0,0-4.44,16.07c.23,1.77.44,3.42.64,5,1.23,10,2,16.62,7.1,29a1.13,1.13,0,0,1-.62,1.47A1,1,0,0,1,133.35,127.15Z"/>
          <path class="cls-13" d="M171.57,141a1.15,1.15,0,0,1-.77-.3,1.14,1.14,0,0,1-.05-1.6,11.48,11.48,0,0,0,2.53-4.25c1.25-3.72.74-8.21-1.44-12.66-7.21-14.69-8.51-23.66-10.68-38.52a14.3,14.3,0,0,0-5.8-9.88,13.7,13.7,0,0,0-10.84-2c-8.58,1.84-14.87,10.53-13.75,19a1.13,1.13,0,1,1-2.24.3,18.9,18.9,0,0,1,3.69-13.66A20.24,20.24,0,0,1,144,69.57a16,16,0,0,1,12.61,2.32,16.54,16.54,0,0,1,6.75,11.42c2.14,14.64,3.42,23.47,10.47,37.84,2.45,5,3,10.1,1.56,14.39a13.8,13.8,0,0,1-3,5.07A1.14,1.14,0,0,1,171.57,141Z"/>
          <path class="cls-13" d="M159.4,145.78c-7.66,0-15.83-4.23-20-13.35A116.62,116.62,0,0,1,129,95.52a1.13,1.13,0,0,1,2.25-.29,112.68,112.68,0,0,0,10.23,36.26c5,11,16.44,14.1,24.56,10.75a1.13,1.13,0,0,1,.86,2.1A19.68,19.68,0,0,1,159.4,145.78Z"/>
          <path class="cls-13" d="M159,141.29A17.21,17.21,0,0,1,143.37,131c-6.69-13.53-8.59-24.94-10.71-40.81a14.4,14.4,0,0,1,2.79-10.43,15.28,15.28,0,0,1,9-6,12.25,12.25,0,0,1,9.74,1.79,12.6,12.6,0,0,1,5.2,8.73l.09.64c2.06,14.37,3.31,23,10.31,37.39,2,4,2.3,8.12.95,11.58a11.25,11.25,0,0,1-6.59,6.45h0A15.07,15.07,0,0,1,159,141.29Zm4.74-1.95ZM147.31,75.76a10.88,10.88,0,0,0-2.39.27c-6.26,1.37-10.85,7.73-10,13.89,2.1,15.65,4,26.9,10.5,40.12l0,0c3.65,7.9,12,10.38,17.9,8.22a9,9,0,0,0,5.29-5.16c1.12-2.87.81-6.34-.87-9.77-7.16-14.66-8.42-23.47-10.52-38.06l-.09-.64a10.34,10.34,0,0,0-4.25-7.19A9.67,9.67,0,0,0,147.31,75.76Z"/>
          <path class="cls-13" d="M158.44,136.81a12.32,12.32,0,0,1-11.06-7.19c-6.72-13.18-8.93-26.77-10-35.85a1.13,1.13,0,1,1,2.24-.27c1.06,8.91,3.22,22.24,9.78,35.11l0,0c2.31,4.9,7.69,6.7,11.36,5.55a5.68,5.68,0,0,0,3.39-3.25,8,8,0,0,0-.51-6.33,169.73,169.73,0,0,1-6.27-16,1.14,1.14,0,0,1,.71-1.44,1.13,1.13,0,0,1,1.43.71,168.14,168.14,0,0,0,6.16,15.77,10,10,0,0,1,.58,8.16,8,8,0,0,1-4.72,4.54l-.06,0A10.14,10.14,0,0,1,158.44,136.81Z"/>
          <path class="cls-13" d="M157.46,105.74a1.14,1.14,0,0,1-1.1-.87c-1.34-5.57-2.11-11-3.08-17.9l-.18-1.29a6.48,6.48,0,0,0-2.68-4.51,6.33,6.33,0,0,0-5.06-.91A8.31,8.31,0,0,0,139,89.08a1.13,1.13,0,1,1-2.24.31,10.5,10.5,0,0,1,8.09-11.34,8.58,8.58,0,0,1,6.84,1.26,8.73,8.73,0,0,1,3.63,6l.18,1.29c1,6.83,1.72,12.22,3,17.69a1.13,1.13,0,0,1-.83,1.37A1.24,1.24,0,0,1,157.46,105.74Z"/>
          <path class="cls-13" d="M157.62,132.35a7.1,7.1,0,0,1-6.19-4,1.13,1.13,0,1,1,2-1,4.61,4.61,0,0,0,4.95,2.65,2.29,2.29,0,0,0,1.38-1.31,3.45,3.45,0,0,0-.21-2.77,95,95,0,0,1-6.71-17.53,170,170,0,0,1-3.44-17.51,1.13,1.13,0,0,1,.95-1.28,1.14,1.14,0,0,1,1.29,1,165.71,165.71,0,0,0,3.39,17.26,93.19,93.19,0,0,0,6.55,17.12,5.63,5.63,0,0,1,.27,4.61,4.59,4.59,0,0,1-2.75,2.6l-.09,0A5.78,5.78,0,0,1,157.62,132.35Z"/>
          <path class="cls-13" d="M148.4,119.56a1.14,1.14,0,0,1-1.06-.74c-3.69-9.78-4.67-17-6-27.11-.14-1-.28-2.07-.43-3.15a5.82,5.82,0,0,1,4.45-6.29,4.84,4.84,0,0,1,6,4.12,1.13,1.13,0,1,1-2.24.31,2.58,2.58,0,0,0-3.21-2.23,3.56,3.56,0,0,0-2.7,3.78c.14,1.09.28,2.14.42,3.16,1.33,9.91,2.28,17.07,5.89,26.61a1.13,1.13,0,0,1-.66,1.46A1.14,1.14,0,0,1,148.4,119.56Z"/>
          <path class="cls-13" d="M155.47,125.75a1.13,1.13,0,0,1-1-.65c-8.1-17.5-9.28-35.88-9.29-36.06a1.13,1.13,0,1,1,2.26-.14c0,.18,1.17,18.15,9.08,35.25a1.12,1.12,0,0,1-.55,1.5A1.1,1.1,0,0,1,155.47,125.75Z"/>
        </g>
      </g>
    </g>
    <g id="male_03" data-name="male 03">
      <path class="cls-16" d="M36.94,143.55c-3.43-1.39-5.94-6.62-1.39-9s18.13,4.79,16.43,7.87C49.4,147.12,40.36,144.93,36.94,143.55Z"/>
      <path class="cls-17" d="M43.1,158c-5.05-6.93-.58-19,9.24-15.91,5.67,5.66,22.93,10.36,24.45,13.8l14.13-11.38a2.21,2.21,0,0,1,2.41-1.22c1.6,2.37,3.49,3.86,5.9,3.81,0,0,1.12.74.29,2.51-3.25,6.86-12.91,18.49-20.08,20C70.94,171.39,46.93,162.55,43.1,158Z"/>
      <g>
        <path class="cls-18" d="M100.7,147.38s9.73-2,7.08-11.37c-1.12-3.94-10.52,2.89-10.52,2.89s1.08-6-1.26-5.11c-1.36.52-3.49,6.28-3,11C93.12,146.38,96.71,150.74,100.7,147.38Z"/>
        <g>
          <path d="M97.58,149.85l9.28.17A1.09,1.09,0,0,0,108,149l.53-19.07a1.09,1.09,0,0,0-1.07-1.13l-9.28-.16a1.07,1.07,0,0,0-1.1,1l-.53,19.07A1.08,1.08,0,0,0,97.58,149.85Z"/>
          <g>
            <polygon class="cls-9" points="97.99 135.12 105.59 145.8 97.74 145.59 97.99 135.12"/>
            <polygon class="cls-19" points="98.11 130.41 107.39 130.66 107.02 145.84 105.59 145.8 97.99 135.12 98.11 130.41"/>
          </g>
        </g>
        <path class="cls-18" d="M108.73,132.61c-.63-.23-3-1.29-2.94,4.66,0,3.62,1.18,6.56,2.88,5.54S110.27,135.77,108.73,132.61Z"/>
      </g>
      <path class="cls-20" d="M51.51,192.79s12.16,32.77,14.36,44.92-6.79,58.13-6.79,58.13l-11,2.75-1.61-53L25.31,192.79Z"/>
      <path class="cls-20" d="M12.89,193.1c-1.94,13.57.29,31.88-.29,54.46L1.31,295.91c7.59,1.71,5.86,5.93,11.29,1.45,0,0,18.24-35,21.43-47.49,2.16-8.45,3.79-57.36,3.79-57.36Z"/>
      <path class="cls-21" d="M53,143.34s-7.5-6.85-24.63-3.93C24,143.64,14.79,175.7,13.74,191.69c9.45,6.7,36.29,5,37.77,1.1Z"/>
      <path class="cls-16" d="M50.2,140.8c7,2,7.31,15.89,7.31,15.89l-1.08,41.06c-.67,1.74-2.24,5.26-9.28,5.57C47.46,184.19,53.08,157.89,50.2,140.8Z"/>
      <path class="cls-19" d="M36.76,138.31s-1.62,1.51-1.36,3.2,3.45,4.81,7.78,5.36,6.76,0,7.31-2.68a3.38,3.38,0,0,0-1.76-4.08C47.92,139.64,38.48,137.61,36.76,138.31Z"/>
      <path class="cls-18" d="M52.71,126.26l-1.35,9-1.11,7.47,0,.18c-1.59,6-15.69.48-13-4.36l5.54-13.16Z"/>
      <path class="cls-22" d="M51.36,135.3l-1.11,7.47C42.53,140.63,41.63,130,41.63,130,44.78,129.07,48.76,132,51.36,135.3Z"/>
      <g>
        <path class="cls-13" d="M19.35,295.94l-3.14-1c-2-4.09-10.89-3.59-9.73,1.39a6.42,6.42,0,0,1-5.29-1.21L0,304.57H18.79Z"/>
        <path class="cls-23" d="M8.88,304.57v-.13a8.82,8.82,0,0,1,8.8-8.66,8.51,8.51,0,0,1,8.53,8.66v.13Z"/>
        <path class="cls-24" d="M9.81,297.39a.32.32,0,0,1-.19-.05.34.34,0,0,1-.1-.48,6.89,6.89,0,0,1,6.19-2.72.35.35,0,0,1,.33.37.34.34,0,0,1-.37.32,6.27,6.27,0,0,0-5.57,2.41A.35.35,0,0,1,9.81,297.39Z"/>
        <path class="cls-24" d="M11.92,298.06a.33.33,0,0,1-.21-.07.35.35,0,0,1-.06-.49,6.91,6.91,0,0,1,6.42-2.14.34.34,0,0,1,.29.39A.34.34,0,0,1,18,296a6.24,6.24,0,0,0-5.77,1.89A.34.34,0,0,1,11.92,298.06Z"/>
      </g>
      <g>
        <path class="cls-13" d="M66.15,295.94,63,295c-2-4.09-10.9-3.59-9.74,1.39A6.42,6.42,0,0,1,48,295.16l-1.18,9.41H65.59Z"/>
        <path class="cls-23" d="M55.68,304.57v-.13a8.84,8.84,0,0,1,8.8-8.66A8.51,8.51,0,0,1,73,304.44c0,.05,0,.09,0,.13Z"/>
        <path class="cls-24" d="M56.61,297.39a.34.34,0,0,1-.19-.05.35.35,0,0,1-.1-.48,6.93,6.93,0,0,1,6.2-2.72.35.35,0,0,1,.32.37.33.33,0,0,1-.36.32,6.32,6.32,0,0,0-5.58,2.41A.34.34,0,0,1,56.61,297.39Z"/>
        <path class="cls-24" d="M58.73,298.06a.31.31,0,0,1-.21-.07.35.35,0,0,1-.06-.49,6.9,6.9,0,0,1,6.41-2.14.34.34,0,1,1-.1.68A6.24,6.24,0,0,0,59,297.93.34.34,0,0,1,58.73,298.06Z"/>
      </g>
      <path class="cls-16" d="M35.37,201.56c-5.71-.55-20.09-3-23.37-5.36,1.1-24,9.61-51.87,13.9-56.09,2.49-1.83,8.93-3.05,11.48-2.39C38.11,156.28,35.07,190.08,35.37,201.56Z"/>
      <g>
        <g>
          <path class="cls-18" d="M61.69,119.42c2.57,6,2,14.89-5,17.94s-15.59-1.82-19.14-10-.76-17.27,6.25-20.32S60.13,109.49,61.69,119.42Z"/>
          <path class="cls-25" d="M55.11,125.94a.13.13,0,0,1-.06-.07.12.12,0,0,1,.07-.15s1.43-.5,1.52-1.54c0-.62-.61-.73-1.4-.8a1.58,1.58,0,0,1-.68-.14l0,0-.67-1.44a.12.12,0,0,1,.22-.1l.65,1.41a2.48,2.48,0,0,0,.53.08c.67.06,1.69.15,1.62,1.06-.1,1.19-1.61,1.72-1.68,1.74A.1.1,0,0,1,55.11,125.94Z"/>
          <path class="cls-26" d="M56.78,119.85c-.37-.89-.27-1.72.24-1.93s1.18.28,1.56,1.17l-.38.16c-.29-.67-.77-1.06-1-1s-.3.72,0,1.4Z"/>
          <path class="cls-26" d="M45.72,123.21c-.37-.89-.27-1.72.24-1.93s1.18.29,1.56,1.17l-.38.16c-.29-.67-.77-1.06-1-1s-.3.72,0,1.39Z"/>
          <path class="cls-25" d="M47.68,130.81a9.87,9.87,0,0,1-1.43-1,.12.12,0,0,1,.16-.19c5.26,4.37,10.67,0,10.73,0a.12.12,0,1,1,.15.19S52.6,133.57,47.68,130.81Z"/>
        </g>
        <path class="cls-24" d="M53.41,111c.74,1.86-1.27,5.59-5.63,2.31.29,2.06-2.3,5.12-4.73,2.69,0,4.21-3.77,9.53-2.66,16-6.56-3.47-15.92-14.71-6.89-23.47-.51-6.34,10.65-8.32,16-8.19,7.14-.85,11.85,2.34,13.41,5.59C64.77,109.91,62.05,114,53.41,111Z"/>
        <circle class="cls-18" cx="39.94" cy="125.14" r="2.64" transform="matrix(0.93, -0.36, 0.36, 0.93, -42.16, 22.6)"/>
        <path class="cls-27" d="M56.82,122.8c.09.64,1.28,1,2.65.81s2.42-.87,2.33-1.51-1.28-1-2.65-.81S56.73,122.16,56.82,122.8Z"/>
        <path class="cls-27" d="M44.43,126c.09.64,1.33,1,2.76.79s2.53-.89,2.44-1.53-1.32-1-2.76-.79S44.34,125.35,44.43,126Z"/>
      </g>
      <g>
        <path class="cls-18" d="M85.85,158s.56-6.78,5.62-7.88c1.24-.18,2.42,2.13,2.42,2.13s8.64-5.91,9.26-4.78c1,1.78-5.24,6.32-5.24,6.32s3.52,5.15.9,6.82-6.34,3.77-7.93,4.1S85.4,161.52,85.85,158Z"/>
        <path class="cls-16" d="M30.94,145.37l29.64,17,25-4.22c2.65.69,6.63,6.26,5.31,7.36,0,0-19.37,14.51-32.11,10.85s-36.59-12.55-36.59-12.55Z"/>
        <path class="cls-28" d="M63.07,176.93A17.32,17.32,0,0,1,57,176a274.27,274.27,0,0,1-31.12-10.67.36.36,0,0,1-.18-.46.35.35,0,0,1,.45-.18,272.55,272.55,0,0,0,31,10.64h0c6.22,2.4,16.28-.52,17.45-1.15a.35.35,0,1,1,.33.61A35.76,35.76,0,0,1,63.07,176.93Z"/>
        <path class="cls-28" d="M60.5,162.74l-.11-.07c-7.22-4.71-27.95-15.43-28.15-15.54a.34.34,0,0,1-.15-.46.33.33,0,0,1,.46-.15c.21.1,20.76,10.74,28.11,15.5,5.76-.87,11.81-1.9,11.87-1.92a.35.35,0,1,1,.11.69c-.06,0-6.2,1.06-12,1.93Z"/>
      </g>
    </g>
  </g>
  <g id="Layer_3" data-name="Layer 3">
    <g id="gear-2" data-name="gear">
      <path class="cls-9" d="M527.82,537.58a22.57,22.57,0,0,0-.52,8.81l2.47-.34a20.38,20.38,0,0,0,2.62,7.57l-2.15,1.26a22.76,22.76,0,0,0,5.85,6.6l.34-.44,1.17-1.54a20.36,20.36,0,0,0,7.2,3.49l-.62,2.41a22.5,22.5,0,0,0,8.8.52l-.33-2.47a20.43,20.43,0,0,0,7.56-2.61l1.26,2.14a22.65,22.65,0,0,0,6.6-5.86h0l-.56-.44-1.41-1.07a20.15,20.15,0,0,0,3.49-7.19l2.42.63a22.62,22.62,0,0,0,.52-8.82l-2.48.34a20.08,20.08,0,0,0-2.61-7.56l2.15-1.26a22.79,22.79,0,0,0-5.86-6.6l-1.51,2a20.36,20.36,0,0,0-7.2-3.49l.63-2.41a22.58,22.58,0,0,0-8.81-.52l.33,2.47a20.21,20.21,0,0,0-7.55,2.61l-1.27-2.14a22.65,22.65,0,0,0-6.6,5.86h0l1.31,1,.66.51a20.07,20.07,0,0,0-3.49,7.19Zm11.42,3a11,11,0,1,1,7.9,13.45A11,11,0,0,1,539.24,540.55Z"/>
      <path class="cls-10" d="M555,493.16a12.82,12.82,0,0,0-1.85,4.54l1.36.26a11.29,11.29,0,0,0,0,4.45l-1.35.29a12.63,12.63,0,0,0,1.9,4.51l.26-.17.89-.6a11.23,11.23,0,0,0,3.17,3.12l-.76,1.16a12.2,12.2,0,0,0,4.54,1.84l.26-1.36a11.11,11.11,0,0,0,4.45,0l.28,1.35a12.67,12.67,0,0,0,4.52-1.9h0l-.22-.33-.55-.81a11.23,11.23,0,0,0,3.12-3.17l1.16.77a12.66,12.66,0,0,0,1.84-4.55l-1.36-.27a11.25,11.25,0,0,0,0-4.44l1.35-.28a12.52,12.52,0,0,0-1.91-4.52l-1.15.77a11.32,11.32,0,0,0-3.16-3.12l.76-1.16a12.59,12.59,0,0,0-4.55-1.84l-.26,1.36a11.44,11.44,0,0,0-4.44,0L563,487.7a12.54,12.54,0,0,0-4.52,1.91h0l.51.75.26.39a11.06,11.06,0,0,0-3.12,3.16Zm5.48,3.6a6.13,6.13,0,1,1,1.76,8.49A6.14,6.14,0,0,1,560.45,496.76Z"/>
    </g>
    <g id="phone_02" data-name="phone 02">
      <g>
        <path class="cls-11" d="M567.47,471.27c1.51-8.94,15.27-13,15-7.14l63.12.36c4.37,0,7.92,4,7.92,8.79l.13,166c0,5-3.6,9.09-8.06,9.13l-64.43.55a5.12,5.12,0,0,1-2.33,2.24c-7.38.16-10.93-3.49-12.22-7.61A9.78,9.78,0,0,1,566,640C566.21,637.81,567,473.36,567.47,471.27Z"/>
        <path class="cls-11" d="M579.51,651.23l74-.48c4.61,0,8.35-4.23,8.34-9.38l-.28-170.71c0-5-3.68-9-8.21-9l-72.52-.23c-4.56,0-8.29,4-8.33,9l-1.31,171.49C571.12,647.09,574.86,651.26,579.51,651.23Z"/>
        <path d="M578.49,650a7.3,7.3,0,0,0,.94.06l73.93-.56c4,0,7.21-3.72,7.2-8.21l-.25-170.52c0-4.34-3.2-7.87-7.09-7.89l-72.52-.32h-.34a6.89,6.89,0,0,0-4.8,2.34,8.17,8.17,0,0,0-2,5.43L572.22,642C572.19,646.07,574.87,649.5,578.49,650Z"/>
        <polygon class="cls-9" points="576.06 470.8 574.81 641.87 658.1 641.37 657.89 470.8 576.06 470.8"/>
      </g>
      <g>
        <rect class="cls-12" x="599.65" y="607.28" width="33.69" height="2.53"/>
        <rect class="cls-12" x="588.33" y="612.89" width="55.87" height="2.53" transform="translate(1232.53 1228.31) rotate(180)"/>
        <rect class="cls-12" x="590.67" y="618.51" width="51.19" height="2.53" transform="translate(1232.53 1239.55) rotate(180)"/>
      </g>
      <rect class="cls-14" x="585.2" y="491.69" width="64.77" height="66.39" rx="32.38"/>
      <g>
        <path class="cls-29" d="M607.25,567.55c3.1-9-2.7-24.42-9.5-20.57-7,3.86-11.17,13.75-10.67,20.57Z"/>
        <path class="cls-29" d="M629,567.55c-3.1-9,2.7-24.42,9.5-20.57,7,3.86,11.17,13.75,10.67,20.57Z"/>
        <path class="cls-24" d="M639.67,548.45c1-9.65,2.68-48.86-21.33-48.86-24.21,0-22,39-21.19,48.11Z"/>
        <path class="cls-30" d="M596.59,547.9c8.51-6.34,35.66-6.49,43.63.39l.1,19.32H596.49Z"/>
        <g>
          <g>
            <path class="cls-19" d="M611.14,543.39s-10,6.05-4,11.64c4.93,4.63,12.13-2.27,12.13-2.27Z"/>
            <path class="cls-19" d="M625,543.29s10,6.05,4,11.64c-4.93,4.63-12.12-2.27-12.12-2.27Z"/>
          </g>
          <path class="cls-29" d="M626,549.49c0,5.54-15.81,5.54-15.81,0l.84-8.53.54-5.55h13.07l.89,9.21Z"/>
          <polygon class="cls-22" points="625.55 544.62 611.04 540.96 611.6 535.41 624.66 535.41 625.55 544.62"/>
        </g>
        <path class="cls-29" d="M634.55,520.31c.49,11.59-6.64,21-15.91,21s-16.4-9.4-15.91-21c.46-10.92,7.57-19.32,15.91-19.32S634.09,509.39,634.55,520.31Z"/>
        <path class="cls-24" d="M600.85,519h35.34s-1.79-19.43-17.85-19.43S600.85,519,600.85,519Z"/>
        <path class="cls-31" d="M617.8,528.7a1.35,1.35,0,0,1-1-.37c-.57-.69.85-4.15,1.14-4.84a.17.17,0,0,1,.23-.09.17.17,0,0,1,.09.22c-.69,1.63-1.52,4.1-1.2,4.49s1.65.17,2.1,0a.16.16,0,0,1,.21.1.17.17,0,0,1-.1.22A5.41,5.41,0,0,1,617.8,528.7Z"/>
        <path class="cls-31" d="M613.73,532s4.78,1.89,11.51-.94C621.28,535.89,616.37,538.72,613.73,532Z"/>
        <g>
          <path class="cls-24" d="M609.36,523c0,.85.34,1.54.76,1.54s.77-.69.77-1.54-.34-1.55-.77-1.55S609.36,522.18,609.36,523Z"/>
          <path class="cls-31" d="M611.58,521.15a.16.16,0,0,1-.13-.06,2,2,0,0,0-2.86-.19.17.17,0,0,1-.22-.26,2.37,2.37,0,0,1,3.34.23.17.17,0,0,1,0,.24A.14.14,0,0,1,611.58,521.15Z"/>
        </g>
        <g>
          <ellipse class="cls-24" cx="626.66" cy="523.04" rx="0.77" ry="1.54"/>
          <path class="cls-31" d="M628.11,521.15a.18.18,0,0,1-.13-.06,2,2,0,0,0-2.86-.19.17.17,0,0,1-.24,0,.17.17,0,0,1,0-.24,2.36,2.36,0,0,1,3.33.23.17.17,0,0,1,0,.24A.15.15,0,0,1,628.11,521.15Z"/>
        </g>
        <ellipse class="cls-32" cx="610.08" cy="527.66" rx="2.05" ry="1.08"/>
        <ellipse class="cls-32" cx="626.22" cy="527.66" rx="2.05" ry="1.08"/>
      </g>
      <g>
        <path class="cls-19" d="M604.72,545.75h-4.46a6,6,0,0,1-6-6v-4.62h1.66v4.62a4.35,4.35,0,0,0,4.35,4.35h4.46Z"/>
        <path class="cls-19" d="M635.38,545.75H631v-1.66h4.36a4.35,4.35,0,0,0,4.34-4.35V535h1.67v4.78A6,6,0,0,1,635.38,545.75Z"/>
        <path class="cls-19" d="M641.39,511.2h-1.67v-4.14a4.35,4.35,0,0,0-4.34-4.34h-4.2v-1.67h4.2a6,6,0,0,1,6,6Z"/>
        <path class="cls-19" d="M595.91,512h-1.66v-4.95a6,6,0,0,1,6-6h4.3v1.67h-4.3a4.35,4.35,0,0,0-4.35,4.34Z"/>
      </g>
      <g>
        <g>
          <path class="cls-13" d="M611,586.18v10.39c0,1.16,14.14,1.16,14.14,0V586.18Z"/>
          <path class="cls-13" d="M623.91,585.67h-1.43V582.2a4.4,4.4,0,1,0-8.8,0v.7h-1.43v-.7a5.83,5.83,0,1,1,11.66,0Z"/>
        </g>
        <path class="cls-9" d="M616.76,595a.56.56,0,0,1-.4-.17l-2.33-2.5a.55.55,0,1,1,.8-.75l2,2.1,5.48-5a.55.55,0,0,1,.74.82l-5.88,5.38A.57.57,0,0,1,616.76,595Z"/>
      </g>
    </g>
    <g>
      <polygon class="cls-9" points="749.05 581.35 716.9 581.4 723.72 600.03 749.05 581.35"/>
      <path class="cls-24" d="M716.23,581.26s-11.88,1.93-10.25,26.22c2.15,2.08,24.06-.08,24.06-.08-3.68-3.77-4.89-11.59-5.12-21C724.92,586.39,724.44,580.36,716.23,581.26Z"/>
      <path class="cls-29" d="M727.44,604l12.9-3.48,12.18-11,2.37,2s-9.4,11.88-11.76,14c-2.09,1.88-14.45,7.15-14.45,7.15Z"/>
      <path class="cls-30" d="M711.27,614.16c.55,3,5.88,16.15,5.88,16.15,0,3.22,15.61,3.22,15.61,0,.19-4.92.63-14.15.56-19.61a15,15,0,0,0-6.2-7.6C720.57,601.67,708.43,603.35,711.27,614.16Z"/>
      <path class="cls-29" d="M712.24,650.13h13.89c-.34,2.82-1.82,5.9-2.45,8.42-5.65,15.5-8.41,36.25-14.38,49.92,0,0-2.57,1.33-4.28,0,1.17-10.29,1.08-16.67,4.43-33.71C710.62,669.81,710.15,658,712.24,650.13Z"/>
      <path class="cls-29" d="M735.61,650.13c1.8,17.18,5.11,54.3,5.47,58.13l-4.41,0c-2.9-9.84-6.59-18.66-6.91-31.14-2.26-6.87-6-18.42-8.82-27Z"/>
      <path class="cls-22" d="M711.86,653.55l10.49.87,2.55.21,11.26.93c.48,4.77,1,10.44,1.56,16.26-3.39,1.41-8.12,3.44-8.52,3.62l-5.52-16.89c-1.61,5.26-3.59,12.14-5.08,17.51a42.19,42.19,0,0,0-8.83-3.1C710.32,666.75,711,659.6,711.86,653.55Z"/>
      <path class="cls-19" d="M725.49,602.63s4.39,3,2.75,5.25c-1.41,1.93-4.9-.27-4.9-.27s-.58,3-2.92,2.59c-3.26-.55-3.94-5.35-2.58-6.91S723.9,601.82,725.49,602.63Z"/>
      <path class="cls-29" d="M718.25,604.29c.11,1.3,2.11,3,4.66,2.64,1.63-.24,2.45-1.4,2.07-2.72l-.43-1.71-1.21-4.84-6,.7Z"/>
      <path class="cls-22" d="M717.44,597.48c1,2,2.76,3.37,6.69,3.26l-1.21-4.84-5.54.66Z"/>
      <path class="cls-30" d="M703.16,670a54.15,54.15,0,0,0,14.51,2.64c10.37.59,22.27-1.13,23.34-3-2.12-19.38-8.27-39.35-8.27-39.35H717.15c-2.75,2.16-5.24,5.93-6.85,10A181.09,181.09,0,0,0,703.16,670Z"/>
      <g>
        <path class="cls-13" d="M749.06,712.73c0-.05-2.62-.05-5.43,0l-7.24,0a14.64,14.64,0,0,1,.28-4.44l5.06,0a35.2,35.2,0,0,1,3.86,1c.16,0,.33.08.51.12C750,710.28,749.06,712.85,749.06,712.73Z"/>
        <path class="cls-33" d="M749.06,712.73c0-.05-2.62-.05-5.43,0a2.75,2.75,0,0,1-.13-.81,2.82,2.82,0,0,1,2.09-2.63l.51.12C750,710.28,749.06,712.85,749.06,712.73Z"/>
        <rect class="cls-33" x="736.21" y="711.94" width="13.11" height="0.8"/>
      </g>
      <g>
        <path class="cls-13" d="M709.58,712.91c-.07,0-1.36,0-3,0-2.59,0-6,0-6.32,0-.9-2.18,1-3.3,2.69-3.92.74-.26,1.45-.43,1.91-.55l4.39,0A14.62,14.62,0,0,1,709.58,712.91Z"/>
        <rect class="cls-33" x="700.05" y="712.12" width="9.71" height="0.8" transform="translate(1409.81 1425.04) rotate(180)"/>
      </g>
      <path class="cls-33" d="M706.63,712.88c-2.59,0-6,0-6.32,0-.9-2.18,1-3.3,2.69-3.92a3.6,3.6,0,0,1,3.09,1A2.47,2.47,0,0,1,706.63,712.88Z"/>
      <path class="cls-19" d="M724.8,632.26a19.22,19.22,0,0,1-7.78-1.62.35.35,0,0,1-.19-.46.36.36,0,0,1,.47-.19,19.78,19.78,0,0,0,15.28,0,.36.36,0,0,1,.48.16.37.37,0,0,1-.17.48A20.58,20.58,0,0,1,724.8,632.26Z"/>
      <g>
        <path class="cls-29" d="M725.41,598.56c-4.38,2.26-9.32.54-11.07-3.24-3.22-4.3-4.23-9.52-.61-12.37,4.24-3.31,10.6-1.77,11.75,4.7a8.89,8.89,0,0,1,1.6,3.18,4.43,4.43,0,0,1,.21,1.06A7.68,7.68,0,0,1,725.41,598.56Z"/>
        <path class="cls-24" d="M711.66,592.56s10.6-4.08,15.18-4.81c-1.19-3.64-5.91-9.32-12.71-5.62C708.38,585.16,711.66,592.56,711.66,592.56Z"/>
        <path class="cls-24" d="M716.47,586.72c-1,4.42-.72,12,6.14,20.62l-2.8.45s-3.17-.57-8.11-11.75C708.79,588.45,713.45,585.63,716.47,586.72Z"/>
      </g>
      <path class="cls-29" d="M716.76,610.71c-.49,2.95-5.11,13.09-5.11,13.09l3.51,18-2.8,1.1s-6.94-14.91-6.89-19.21c.06-5.46,4.7-15.39,4.7-15.39C712.57,604,717.64,605.37,716.76,610.71Z"/>
      <path class="cls-29" d="M712.15,641.87s-1.87,6,.05,7.17,3.06-5.25,3.06-5.25.82,1.07,1.2.87-.74-2.6-1.51-3.3S712.67,640.36,712.15,641.87Z"/>
      <g>
        <path class="cls-29" d="M750.77,589.14s.87-.88,1.28.46c1.41.51,2.7-1.13,3.26.36C756.2,592.3,751.63,593.22,750.77,589.14Z"/>
        <path class="cls-29" d="M755,587.81a9.17,9.17,0,0,0-3.15-4c-.77-.37-1.16-.12-1.16-.12l3,8C755.05,592.74,756.25,590.56,755,587.81Z"/>
        <g>
          <path class="cls-34" d="M753.72,594.66l-5-14.68a1.18,1.18,0,0,1,.4-.54l5.11,15.43A1.35,1.35,0,0,1,753.72,594.66Z"/>
          <path d="M749.15,579.44c.18-.1.41-.12.72.16.75.68,5.07,13.61,5,14.68-.05.52-.32.62-.58.59Z"/>
        </g>
        <path class="cls-29" d="M751.28,583.63s-.92-.28-.56,1.75c.44,2.48,1.84,3.82,2.63,3.66S753.08,584,751.28,583.63Z"/>
      </g>
      <path class="cls-31" d="M724.79,592.2a.08.08,0,0,1,0-.15c.21-.06.75-.26.78-.53s-.91-.94-1.58-1.38a.08.08,0,1,1,.09-.13c.28.19,1.68,1.12,1.64,1.53s-.8.64-.89.66Z"/>
      <path class="cls-31" d="M725.8,594.37a6.86,6.86,0,0,1-4.84.6C723,596.64,725.29,597.38,725.8,594.37Z"/>
      <path class="cls-24" d="M720.78,590.82c.09.29.05.56-.09.61s-.34-.15-.44-.44,0-.57.09-.62S720.68,590.52,720.78,590.82Z"/>
      <path class="cls-24" d="M725.79,589.17c.09.25.05.49-.07.53s-.3-.13-.38-.38-.05-.5.08-.54S725.71,588.91,725.79,589.17Z"/>
      <path class="cls-32" d="M720.11,593.37c.06.3.56.44,1.11.32s1-.44.9-.74-.56-.43-1.12-.31S720.05,593.08,720.11,593.37Z"/>
      <path class="cls-32" d="M727.29,591.89h0c-.56.1-1.06,0-1.12-.33s.34-.6.88-.73h.05A4.43,4.43,0,0,1,727.29,591.89Z"/>
    </g>
    <g id="phone-2" data-name="phone">
      <g>
        <path class="cls-11" d="M365.12,525.1c-2.21-13.07-22.33-19-21.94-10.44l-92.27.54c-6.39,0-11.57,5.79-11.57,12.85l-.2,242.66c0,7.32,5.27,13.3,11.78,13.36l94.19.8a7.54,7.54,0,0,0,3.41,3.28c10.8.23,16-5.1,17.87-11.13a14.59,14.59,0,0,0,.94-5.3C367,768.56,365.8,528.17,365.12,525.1Z"/>
        <path class="cls-11" d="M347.51,788.19l-108.12-.7c-6.74,0-12.2-6.18-12.19-13.71l.41-249.56c0-7.26,5.38-13.15,12-13.17l106-.35c6.67,0,12.12,5.87,12.18,13.16l1.92,250.71C359.78,782.13,354.31,788.23,347.51,788.19Z"/>
        <path d="M349,786.37a10.35,10.35,0,0,1-1.36.09l-108.09-.82c-5.79,0-10.53-5.43-10.52-12l.37-249.28c0-6.34,4.67-11.51,10.36-11.53l106-.46h.5a10,10,0,0,1,7,3.42,11.92,11.92,0,0,1,3,7.93l1.89,251C358.22,780.65,354.29,785.67,349,786.37Z"/>
        <polygon class="cls-9" points="352.56 524.99 354.38 775.09 232.62 774.36 232.93 524.99 352.56 524.99"/>
      </g>
      <g>
        <g>
          <g>
            <g>
              <path class="cls-35" d="M293.63,562.49l0,0c-6,6.38-15.47,11.62-25.64,13.85,0,.68,0,4.44-.1,21.8-.1,23.15,21.93,34.46,25.35,36.2C283.15,593.61,291,569,293.63,562.49Z"/>
              <path class="cls-36" d="M293.63,562.49c-2.61,6.51-10.48,31.12-.43,71.8,3.31-1.53,25.63-12.82,25.73-36,.08-17.35.09-21.12.1-21.8C308.89,574.2,299.54,568.9,293.63,562.49Z"/>
            </g>
            <path class="cls-19" d="M293.19,634.77l-.19-.1a55.34,55.34,0,0,1-14.1-10.15c-7.66-7.68-11.53-16.58-11.48-26.44l.1-22.14.33-.08c9.93-2.17,19.44-7.3,25.43-13.71l.31-.34.36.38c5.95,6.47,15.36,11.66,25.17,13.9l.34.08v.35c0,.58,0,3.45-.07,15.29l0,6.51c-.11,23.76-23.33,35.14-26,36.36Zm-24.81-58.14-.1,21.46c-.09,20.6,17.25,31.78,24.93,35.72,3.35-1.58,25.19-12.75,25.29-35.5l0-6.51c0-10.34.06-13.84.06-14.94-9.71-2.29-19-7.41-25-13.79C287.54,569.38,278.17,574.42,268.38,576.63Z"/>
          </g>
          <path class="cls-13" d="M293.23,630.16l-.39-.21a48.68,48.68,0,0,1-11.54-8.44c-6.84-6.81-10.29-14.67-10.25-23.38l.08-19.16.65-.17a50.2,50.2,0,0,0,21.15-11l.59-.55.62.6a50.34,50.34,0,0,0,21,11.12l.64.18-.09,19.16c0,8.71-3.55,16.54-10.46,23.29A49,49,0,0,1,294,629.79l-.05,0-.27.13ZM272.85,580.3l-.08,17.84c0,8.23,3.24,15.68,9.74,22.15a46.82,46.82,0,0,0,10.73,7.92,47,47,0,0,0,10.8-7.82c6.56-6.42,9.9-13.84,9.94-22.06l.08-17.85a52.23,52.23,0,0,1-20.56-10.86A52.22,52.22,0,0,1,272.85,580.3Z"/>
        </g>
        <g>
          <path class="cls-13" d="M283.24,594.94v15.2c0,1.69,20.66,1.69,20.66,0v-15.2ZM294.61,603v4.31a1,1,0,1,1-2.09,0V603a2.54,2.54,0,1,1,2.09,0Z"/>
          <path class="cls-13" d="M302.09,593.86H300v-1a6.43,6.43,0,1,0-12.86,0v1H285v-1a8.53,8.53,0,0,1,17,0Z"/>
        </g>
      </g>
      <g>
        <g>
          <rect class="cls-19" x="262.72" y="646.34" width="59.72" height="11.8"/>
          <g>
            <circle class="cls-13" cx="274.66" cy="652.64" r="2.58"/>
            <circle class="cls-13" cx="283.5" cy="652.64" r="2.58"/>
            <circle class="cls-13" cx="292.34" cy="652.64" r="2.58"/>
            <circle class="cls-13" cx="301.18" cy="652.64" r="2.58"/>
            <circle class="cls-13" cx="310.02" cy="652.64" r="2.58"/>
          </g>
        </g>
        <path class="cls-13" d="M300.33,674.73h-16a4.09,4.09,0,0,1-4.1-4.1h0a4.09,4.09,0,0,1,4.1-4.1h16a4.1,4.1,0,0,1,4.11,4.1h0A4.1,4.1,0,0,1,300.33,674.73Z"/>
      </g>
      <g>
        <rect class="cls-12" x="268.81" y="688.92" width="49.26" height="3.69"/>
        <rect class="cls-12" x="252.94" y="697.13" width="81.68" height="3.69"/>
        <rect class="cls-12" x="256.36" y="705.34" width="74.84" height="3.69"/>
      </g>
    </g>
    <g id="male_02" data-name="male 02">
      <g>
        <path class="cls-37" d="M195.86,692c-5.91,6-11.07,11.88-16,22.83-1.38-3.57-1-2.79-4.36-10.63-1.52-3.69-11.38-1.6-11.62,1.64,0,0-1.77,22.6,8.66,31.49S212.36,709,212.36,709C221.75,696.19,206,683.93,195.86,692Z"/>
        <g>
          <path class="cls-20" d="M271.58,771.66c-11.09,21.64-92,13.94-105.91,2.16-10.29-15.11,27-22.49,27.81-22.51,18.32-.5,43.56,1.13,52.87,1.13C268,755.76,274,763.42,271.58,771.66Z"/>
          <path class="cls-38" d="M193.31,762.58c15,3.57,28.39,4.74,44.81,2.22,0,0-25.14,11.11-25.28,11.52S193.31,762.58,193.31,762.58Z"/>
          <path class="cls-20" d="M269.65,774.17c-16.21,17.94-85.36,16.22-72.06-.1,12.07-1.51,45.24-9.57,48.17-11.15C256,754.65,276.24,764.46,269.65,774.17Z"/>
          <g>
            <g>
              <path class="cls-39" d="M259.27,787c-.8-3.61-5-5.91-9.41-7.36a23.82,23.82,0,0,0-5.29,15C254.43,796.81,260.65,793.19,259.27,787Z"/>
              <path class="cls-9" d="M237.34,778s-4.13-.71-5.34,4.24c-.41,1.67-1.61,5,2.42,7.66,4,2.22,6.81,3.93,10.15,4.68a23.82,23.82,0,0,1,5.29-15A41.42,41.42,0,0,0,237.34,778Z"/>
            </g>
            <path class="cls-20" d="M236.05,778.59c7.89,1.89,3.84,11.62-.23,11,4.43.63-78.36.64-70.28-24.4h0c3.08-5.27,12.73-9.83,20.54-6.39C204.21,768.45,221.29,775.11,236.05,778.59Z"/>
            <g>
              <path class="cls-9" d="M239,789.1s-7-.55-4.6-6.21,7.39-2.34,7.39-2.34S244.44,786.32,239,789.1Z"/>
              <path class="cls-19" d="M239.34,789.58a.33.33,0,0,1-.32-.31,12.55,12.55,0,0,1,3.14-8.66.32.32,0,1,1,.46.44,12.22,12.22,0,0,0-3,8.2.32.32,0,0,1-.31.33Z"/>
              <path class="cls-19" d="M241.33,790.34A.32.32,0,0,1,241,790a12.55,12.55,0,0,1,3.14-8.66.32.32,0,0,1,.45,0,.33.33,0,0,1,0,.46,12.15,12.15,0,0,0-3,8.19.32.32,0,0,1-.31.33Z"/>
              <path class="cls-19" d="M243.44,790.87a.33.33,0,0,1-.32-.31,12.61,12.61,0,0,1,3.13-8.66.33.33,0,0,1,.46,0,.32.32,0,0,1,0,.45,12.18,12.18,0,0,0-3,8.2.32.32,0,0,1-.31.33Z"/>
            </g>
          </g>
          <path class="cls-38" d="M236.88,789.31c-1.68.94-44.35,2.92-68.1-12.38-7.73-5-3.66-12.12-3.66-12.12S170.65,785.52,236.88,789.31Z"/>
          <path class="cls-38" d="M232.12,778.4l-.14,0c-30.75-9.11-44.92-18.55-45.06-18.64a.48.48,0,0,1,.54-.8c.14.09,14.2,9.45,44.79,18.51a.48.48,0,0,1-.13.95Z"/>
          <path class="cls-38" d="M212.64,771.51a.48.48,0,0,1-.08-1c.19,0,19.58-3.52,27.09-6.74a.48.48,0,0,1,.38.89c-7.61,3.26-26.5,6.66-27.3,6.8Z"/>
        </g>
        <path class="cls-19" d="M247.5,752.41c.67,5.18-36.15,6.41-55-1.09C189.7,739.65,180,686.5,209,686.66,240.38,686.83,244.52,738.32,247.5,752.41Z"/>
        <path class="cls-40" d="M165,705.58l-.44-6.58,6.92-1,2.61,5.91C174.34,705.62,165.24,707.33,165,705.58Z"/>
        <g>
          <path class="cls-40" d="M171.75,699l1.67-10.66s-2.44-.69-2.66,2.21-4.95,4.72-3.74,7.54S171.75,699,171.75,699Z"/>
          <path class="cls-40" d="M164.74,699.29s-5.19-7.93-5.64-12.42c0-1.64.69-2.13.69-2.13l11.8,11.58s.77,2.36-.15,3.35A4.64,4.64,0,0,1,164.74,699.29Z"/>
          <path class="cls-41" d="M172,696.48s.12,1.87-.95,1.49c-3.16-.93-3.34-5.56-3.34-5.56Z"/>
          <g>
            <path class="cls-34" d="M176.67,698.81l-22-20.4a2.23,2.23,0,0,0-1.25.28l23.16,21.24A2.82,2.82,0,0,0,176.67,698.81Z"/>
            <path d="M153.45,678.69c-.34.23-.55.64-.3,1.4.61,1.87,20,19.73,22,20.4,1,.32,1.35-.07,1.5-.56Z"/>
          </g>
          <path class="cls-40" d="M159.15,685.77s.22-1.84,3.53.41c4,2.74,6.71,7.61,5.8,8.86C167.33,696.63,158.27,689.42,159.15,685.77Z"/>
        </g>
        <path class="cls-37" d="M203.07,687.54c-20.83,4.57-15.22,54.31-13.76,65.09,3.94,1.57,16.66,4.67,21.67,5.52C201,734.46,195.71,689.8,203.07,687.54Z"/>
        <path class="cls-40" d="M215.29,688.25c-2.32,11.28-14.73,11-14.89,4.66a3,3,0,0,1,0-.52l-1-13.69-.13-1.68,1.1-.22,9.87-2,.35-.07.29.87,1.26,3.57Z"/>
        <path class="cls-37" d="M215,687.39c-3.92,9.22,1.26,57.38,4.86,71.76,9.71,3.28,24.37-1.52,28.28-6.45C245.37,739.56,240.92,693.64,215,687.39Z"/>
        <g>
          <path class="cls-37" d="M214,704.14c-1.51,8.29,1.37,22.68,3.62,30.15,6,4.38,15.2,2.12,15.2-4.61a90.64,90.64,0,0,0-1.74-20.58C229.66,691.77,214.77,691.93,214,704.14Z"/>
          <path class="cls-37" d="M204.9,715.31c-6.13-2.22-9.28,6.59-4.82,9.64,10.61,7.17,27.1,16.8,30,10.66C234.4,726.63,218.87,719.73,204.9,715.31Z"/>
          <g>
            <path class="cls-40" d="M199.25,722.23l-4.54-2.4c-2.85-2.21,2.17-6.76,4.21-6l3.53,2.21C204.24,717.71,201.7,722,199.25,722.23Z"/>
            <g>
              <path class="cls-40" d="M195.15,719.93c-3.72-.79-2.43-4.54-1.6-8.83C190.56,698.25,206.92,720.27,195.15,719.93Z"/>
              <path class="cls-40" d="M196.78,709.46s-1.21-1.89-3.88-6.11c-1.2.22-1.85,2.34-.23,4.19C194.09,709.16,196.15,710.26,196.78,709.46Z"/>
              <path class="cls-40" d="M193.13,708.33c-2.68-1.52-4.59,2.9-3.89,6.36,1.08,5.28,5,2.67,6.19,1.26C197.58,713.37,196.42,710.19,193.13,708.33Z"/>
            </g>
          </g>
          <path class="cls-42" d="M214.37,719a.33.33,0,0,1-.32-.27c0-.12-1.92-11.84.43-19.76a.32.32,0,0,1,.4-.21.32.32,0,0,1,.22.4c-2.31,7.77-.44,19.35-.42,19.46a.32.32,0,0,1-.26.37Z"/>
          <path class="cls-42" d="M225.55,737.09c-5.3,0-11.58-3.33-12-3.52a.34.34,0,0,1-.13-.44.33.33,0,0,1,.44-.13c.12.06,12.2,6.47,16.62,1.62,3.88-4.25,1-22.66,1-22.85a.32.32,0,0,1,.64-.1c.12.77,3,18.91-1.12,23.39A7.12,7.12,0,0,1,225.55,737.09Z"/>
          <path class="cls-19" d="M221.25,721.78a.31.31,0,0,1-.13,0c-7.74-3.44-17.44-6.56-17.54-6.59a.31.31,0,0,1-.2-.4.32.32,0,0,1,.4-.21c.1,0,9.83,3.16,17.6,6.62a.31.31,0,0,1,.16.42A.31.31,0,0,1,221.25,721.78Z"/>
        </g>
        <path class="cls-43" d="M200.37,692.61c-.29-3-2-14.42,0-15.81l9.87-2C212.47,687.28,204,693.49,200.37,692.61Z"/>
      </g>
      <g>
        <path class="cls-40" d="M213.88,672.62c-.48,10.17-9.53,18.06-16.27,17.69s-15-9-14.54-19.14,7.76-18.1,16.27-17.69S214.36,662.45,213.88,672.62Z"/>
        <path class="cls-24" d="M204.72,654.91c-8.52-7-14.28-2.11-19.6,3.16-3.74,3.7-6.39,6.36-10.48,6.48,6.53,10.7,22.78,6.18,28.86-3-.21,5.63,5.78,11,10.38,11.07C216.12,666.61,213.37,653.57,204.72,654.91Z"/>
        <circle class="cls-40" cx="212.28" cy="673.05" r="3.51" transform="matrix(0.96, -0.26, 0.26, 0.96, -169.75, 79.66)"/>
        <g>
          <path class="cls-31" d="M193.45,682.92a1.23,1.23,0,0,1-.71-.2c-.88-.62,0-5.84.27-7.43a.21.21,0,0,1,.24-.16.2.2,0,0,1,.17.24c-.56,3.12-.89,6.69-.44,7,.6.42,2-.33,2.49-.65a.21.21,0,0,1,.29.06.21.21,0,0,1-.06.29A5.07,5.07,0,0,1,193.45,682.92Z"/>
          <path class="cls-24" d="M199.67,674.1c.18.82.65,1.4,1.05,1.31s.59-.82.41-1.63-.65-1.4-1-1.31S199.49,673.29,199.67,674.1Z"/>
          <path class="cls-24" d="M186.79,677.28c.16.76.6,1.31,1,1.22s.54-.76.38-1.52-.61-1.31-1-1.22S186.62,676.52,186.79,677.28Z"/>
          <path class="cls-44" d="M199.44,685c-.33,0-.54,0-.57,0a.21.21,0,0,1-.18-.24.21.21,0,0,1,.23-.18,5.12,5.12,0,0,0,3.63-1,4.91,4.91,0,0,0,1.54-3.77.21.21,0,0,1,.22-.2.22.22,0,0,1,.2.22,4.81,4.81,0,0,1-5.07,5.2Z"/>
          <path class="cls-44" d="M198.16,672h0a.2.2,0,0,1-.2-.22,1.93,1.93,0,0,1,1.46-1.76,2,2,0,0,1,2.26.67.21.21,0,0,1-.34.24,1.62,1.62,0,0,0-1.8-.52,1.57,1.57,0,0,0-1.17,1.39A.2.2,0,0,1,198.16,672Z"/>
          <path class="cls-44" d="M185.81,675h0a.2.2,0,0,1-.19-.22,1.82,1.82,0,0,1,1.5-1.86,1.76,1.76,0,0,1,1.85,1.24.21.21,0,0,1-.39.14,1.35,1.35,0,0,0-1.41-1c-.49.06-1.05.48-1.14,1.49A.2.2,0,0,1,185.81,675Z"/>
        </g>
      </g>
    </g>
    <g id="message">
      <g>
        <g>
          <rect class="cls-9" x="110.29" y="626.31" width="53.38" height="26.49" rx="13.25"/>
          <polygon class="cls-9" points="154.85 648.53 154.85 660.48 142.67 648.3 154.85 648.53"/>
        </g>
        <g>
          <circle class="cls-19" cx="120.5" cy="639.81" r="2.33"/>
          <circle class="cls-19" cx="128.3" cy="639.81" r="2.33" transform="translate(-523.89 618.32) rotate(-76.77)"/>
          <circle class="cls-19" cx="136.1" cy="639.81" r="2.33" transform="translate(-517.88 625.91) rotate(-76.77)"/>
          <circle class="cls-19" cx="143.9" cy="639.81" r="2.33" transform="translate(-510.7 679.36) rotate(-80.78)"/>
          <circle class="cls-19" cx="151.69" cy="639.81" r="2.33"/>
        </g>
      </g>
      <g>
        <g>
          <rect class="cls-9" x="174.83" y="584.74" width="38.7" height="31.39" rx="15.7"/>
          <polygon class="cls-9" points="188.84 615.15 193.27 622.93 198.15 615.15 188.84 615.15"/>
        </g>
        <g>
          <polygon class="cls-13" points="193.35 599.7 185.62 593.88 201.04 593.88 193.35 599.7"/>
          <polygon class="cls-13" points="201.68 595.38 201.68 605.48 184.98 605.48 184.98 595.38 193.35 601.66 201.68 595.38"/>
        </g>
      </g>
    </g>
  </g>
</svg>
